{"glyphs":{"0":{"ha":841,"x_min":58,"x_max":783,"o":"m 590 485 q 549 762 590 673 q 420 851 508 851 q 294 767 338 851 q 251 505 251 682 q 293 228 251 317 q 420 139 335 139 q 547 224 503 139 q 590 485 590 309 m 783 502 q 736 192 783 306 q 606 31 689 79 q 414 -17 523 -17 q 226 31 306 -17 q 102 190 146 79 q 58 488 58 300 q 105 793 58 680 q 236 957 153 907 q 427 1007 319 1007 q 622 958 543 1007 q 742 798 701 909 q 783 502 783 687 z "},"1":{"ha":841,"x_min":130,"x_max":739,"o":"m 739 0 l 136 0 l 136 159 l 344 159 l 344 793 l 154 690 l 130 867 l 344 990 l 530 990 l 530 159 l 739 159 l 739 0 z "},"2":{"ha":841,"x_min":87,"x_max":755,"o":"m 755 176 l 755 0 l 90 0 l 90 149 q 236 264 159 199 q 379 403 312 330 q 488 550 446 476 q 530 688 530 623 q 493 793 530 749 q 378 838 456 838 q 246 802 316 838 q 131 712 176 767 l 87 875 q 169 943 118 913 q 278 990 219 972 q 395 1007 338 1007 q 568 972 494 1007 q 684 873 642 937 q 725 722 725 810 q 687 559 725 640 q 589 406 648 479 q 463 272 529 334 q 341 166 397 211 l 521 166 q 629 167 588 166 q 699 170 671 168 q 755 176 728 172 z "},"3":{"ha":841,"x_min":75,"x_max":766,"o":"m 271 600 l 332 600 q 441 622 394 600 q 516 677 489 644 q 543 747 543 711 q 500 821 543 793 q 407 848 457 848 q 263 825 329 848 q 139 743 197 802 l 115 899 q 236 976 156 945 q 400 1007 315 1007 q 573 979 498 1007 q 690 898 648 951 q 732 773 732 846 q 698 660 732 711 q 614 573 664 608 q 515 529 564 539 q 595 508 551 523 q 677 464 638 492 q 741 389 716 435 q 766 275 766 342 q 715 129 766 195 q 576 23 665 62 q 376 -17 488 -17 q 207 11 286 -17 q 75 88 128 39 l 98 275 q 231 177 154 212 q 390 142 309 142 q 480 160 439 142 q 548 210 522 178 q 573 288 573 243 q 510 394 573 351 q 332 437 448 437 l 271 437 l 271 600 z "},"4":{"ha":841,"x_min":54,"x_max":797,"o":"m 797 234 l 688 234 l 688 0 l 509 0 l 509 234 l 54 234 l 54 387 l 485 990 l 688 990 l 688 387 l 797 387 l 797 234 m 509 777 l 220 387 l 509 387 l 509 777 z "},"5":{"ha":841,"x_min":81,"x_max":753,"o":"m 132 437 l 132 990 l 712 990 l 712 810 q 625 821 674 819 q 532 824 575 824 l 309 824 l 309 607 q 359 623 326 615 q 424 631 393 631 q 592 593 518 631 q 710 486 667 555 q 753 322 753 416 q 700 140 753 216 q 560 24 648 64 q 366 -17 473 -17 q 216 -1 288 -17 q 81 54 145 15 l 109 244 q 239 168 177 189 q 373 146 302 146 q 509 194 454 146 q 563 319 563 241 q 535 410 563 374 q 460 464 507 446 q 359 481 414 481 q 251 472 306 481 q 132 437 195 462 z "},"6":{"ha":841,"x_min":68,"x_max":790,"o":"m 734 946 l 691 773 q 597 832 648 817 q 498 848 547 848 q 403 830 448 848 q 323 767 358 812 q 268 642 288 722 q 248 437 248 562 q 303 224 248 306 q 452 142 359 142 q 539 166 502 142 q 596 228 576 190 q 617 309 617 266 q 574 432 617 383 q 451 481 532 481 q 309 450 372 481 q 203 366 245 418 l 159 444 q 292 575 217 523 q 465 627 368 627 q 635 587 562 627 q 749 476 709 546 q 790 319 790 407 q 748 144 790 220 q 629 26 705 68 q 449 -17 552 -17 q 168 106 269 -17 q 68 461 68 229 q 91 657 68 560 q 166 833 115 754 q 301 960 217 912 q 505 1007 385 1007 q 629 995 576 1007 q 734 946 682 982 z "},"7":{"ha":841,"x_min":68,"x_max":766,"o":"m 353 0 l 159 0 q 244 256 203 144 q 330 461 286 368 q 425 642 374 555 q 543 824 477 729 l 326 824 q 168 821 230 824 q 68 810 106 819 l 68 990 l 766 990 l 766 854 q 517 441 616 648 q 353 0 418 233 z "},"8":{"ha":841,"x_min":61,"x_max":780,"o":"m 420 -17 q 245 18 327 -17 q 112 118 163 52 q 61 275 61 183 q 87 401 61 351 q 153 483 113 451 q 237 539 194 515 q 181 579 211 554 q 130 646 151 605 q 109 749 109 688 q 153 890 109 833 q 270 977 197 947 q 427 1007 343 1007 q 581 977 512 1007 q 691 890 650 947 q 732 749 732 833 q 712 647 732 688 q 663 580 692 606 q 607 539 633 555 q 684 489 644 520 q 752 408 724 458 q 780 281 780 358 q 729 123 780 190 q 596 19 678 56 q 420 -17 515 -17 m 563 739 q 528 825 563 789 q 420 861 493 861 q 318 827 358 861 q 278 739 278 793 q 315 644 278 680 q 420 607 353 607 q 526 644 488 607 q 563 739 563 680 m 600 302 q 548 416 600 372 q 420 461 496 461 q 293 416 345 461 q 241 302 241 372 q 263 222 241 260 q 326 162 286 185 q 420 139 366 139 q 553 189 506 139 q 600 302 600 238 z "},"9":{"ha":841,"x_min":51,"x_max":773,"o":"m 108 44 l 144 217 q 242 158 189 174 q 344 142 295 142 q 439 160 394 142 q 519 223 484 178 q 573 348 553 268 q 593 551 593 427 q 392 848 593 848 q 271 805 317 848 q 224 703 224 762 q 271 582 224 629 q 393 536 317 536 q 537 575 471 536 q 640 672 603 614 l 688 589 q 607 489 656 534 q 500 417 559 444 q 376 391 441 391 q 209 429 282 391 q 93 533 135 467 q 51 680 51 599 q 99 854 51 781 q 228 967 148 928 q 403 1007 309 1007 q 572 968 502 1007 q 687 862 642 929 q 752 709 731 795 q 773 529 773 623 q 750 339 773 435 q 676 162 727 243 q 541 32 625 81 q 337 -17 458 -17 q 108 44 203 -17 z "}," ":{"ha":373,"x_min":0,"x_max":0,"o":""},"!":{"ha":529,"x_min":156,"x_max":393,"o":"m 359 339 l 186 339 q 183 539 184 437 q 177 759 182 641 q 159 1024 172 877 l 387 1024 q 369 759 374 877 q 362 539 363 641 q 359 339 361 437 m 156 102 q 190 187 156 154 q 275 220 223 220 q 360 187 327 220 q 393 102 393 154 q 360 16 393 49 q 275 -17 327 -17 q 190 16 223 -17 q 156 102 156 49 z "},"\"":{"ha":736,"x_min":163,"x_max":573,"o":"m 305 709 l 186 709 q 181 865 184 781 q 163 1075 178 950 l 329 1075 q 311 865 314 950 q 305 709 308 781 m 549 709 l 431 709 q 426 865 429 781 q 407 1075 422 950 l 573 1075 q 555 865 558 950 q 549 709 552 781 z "},"#":{"ha":841,"x_min":14,"x_max":793,"o":"m 286 922 l 435 922 l 191 68 l 42 68 l 286 922 m 14 288 l 14 431 l 753 431 l 753 288 l 14 288 m 54 576 l 54 719 l 793 719 l 793 576 l 54 576 m 608 922 l 758 922 l 513 68 l 364 68 l 608 922 z "},"$":{"ha":841,"x_min":97,"x_max":750,"o":"m 696 892 l 657 730 q 557 788 620 770 q 429 806 494 806 q 315 779 355 806 q 275 705 275 752 q 290 662 275 682 q 347 618 304 642 q 474 560 390 595 q 620 489 558 526 q 716 404 682 453 q 750 281 750 355 q 702 128 750 191 q 577 33 654 65 q 411 0 500 0 q 228 23 311 0 q 97 84 144 46 l 146 260 q 268 176 198 208 q 411 143 337 143 q 541 172 492 143 q 591 262 591 201 q 575 314 591 291 q 514 361 559 336 q 380 422 469 387 q 180 536 245 477 q 115 690 115 595 q 152 811 115 753 q 261 905 189 869 q 436 942 332 942 q 571 932 508 942 q 696 892 635 922 m 385 1085 l 500 1085 l 500 498 l 480 453 l 480 -149 l 365 -149 l 365 492 l 385 534 l 385 1085 z "},"%":{"ha":1061,"x_min":47,"x_max":1015,"o":"m 728 1004 l 867 1004 l 338 -17 l 197 -17 l 728 1004 m 347 730 q 328 873 347 831 q 267 916 309 916 q 209 874 228 916 q 189 740 189 833 q 208 595 189 638 q 267 553 227 553 q 326 594 306 553 q 347 730 347 636 m 489 739 q 459 578 489 639 q 378 491 429 518 q 264 465 328 465 q 109 526 170 465 q 47 731 47 588 q 77 887 47 827 q 157 976 106 947 q 271 1004 208 1004 q 427 941 365 1004 q 489 739 489 878 m 872 248 q 853 392 872 350 q 793 434 834 434 q 734 393 753 434 q 715 258 715 352 q 734 114 715 157 q 793 71 753 71 q 852 113 831 71 q 872 248 872 155 m 1015 257 q 985 97 1015 157 q 904 10 955 37 q 790 -17 853 -17 q 634 45 696 -17 q 572 250 572 106 q 602 406 572 345 q 683 494 632 466 q 796 522 734 522 q 952 459 890 522 q 1015 257 1015 396 z "},"&":{"ha":919,"x_min":61,"x_max":875,"o":"m 719 407 l 810 288 q 745 195 791 248 q 635 95 699 143 q 500 15 572 46 q 356 -17 428 -17 q 137 52 212 -17 q 61 233 61 120 q 94 348 61 296 q 183 453 127 400 q 309 570 239 506 q 434 707 397 652 q 471 797 471 762 q 446 863 471 837 q 380 888 420 888 q 313 859 340 888 q 285 793 285 829 q 323 716 285 765 q 419 603 361 667 q 532 461 476 538 q 690 250 626 334 q 799 120 755 166 q 875 61 843 75 q 834 32 863 50 q 779 -2 806 13 q 739 -17 751 -17 q 625 83 713 -17 q 400 366 537 182 q 276 525 338 450 q 171 666 213 600 q 129 787 129 732 q 164 908 129 859 q 260 982 200 957 q 390 1007 319 1007 q 560 954 493 1007 q 627 807 627 900 q 595 702 627 759 q 511 587 563 646 q 397 475 458 529 q 300 387 338 423 q 245 319 263 351 q 227 251 227 288 q 268 161 227 193 q 366 129 308 129 q 465 156 411 129 q 571 225 519 182 q 663 316 623 268 q 719 407 703 364 z "},"'":{"ha":424,"x_min":129,"x_max":295,"o":"m 271 709 l 153 709 q 148 865 151 781 q 129 1075 144 950 l 295 1075 q 277 865 280 950 q 271 709 274 781 z "},"(":{"ha":583,"x_min":78,"x_max":465,"o":"m 376 1112 l 458 987 q 342 830 387 921 q 276 636 297 739 q 255 431 255 534 q 303 121 255 278 q 465 -163 351 -35 l 363 -278 q 151 42 223 -133 q 78 424 78 217 q 115 704 78 572 q 220 941 153 836 q 376 1112 287 1046 z "},")":{"ha":583,"x_min":119,"x_max":506,"o":"m 125 987 l 208 1112 q 365 941 298 1046 q 469 704 431 836 q 506 424 506 572 q 433 42 506 217 q 221 -278 361 -133 l 119 -163 q 281 121 233 -35 q 329 431 329 278 q 308 636 329 534 q 242 830 287 739 q 125 987 197 921 z "},"*":{"ha":705,"x_min":85,"x_max":635,"o":"m 423 1085 q 411 982 416 1027 q 403 887 406 937 q 483 948 446 917 q 561 1013 520 979 l 627 896 q 530 854 574 873 q 441 811 486 834 q 534 774 488 790 q 635 739 579 758 l 563 620 q 484 680 521 654 q 402 735 448 706 q 412 641 407 686 q 429 538 418 595 l 292 538 q 307 637 302 590 q 316 737 313 684 q 237 675 273 706 q 161 608 201 644 l 92 730 q 192 771 146 752 q 279 811 237 789 q 189 849 238 831 q 85 886 139 868 l 155 1001 q 236 940 197 966 q 317 887 274 913 q 306 986 313 940 q 288 1085 298 1033 l 423 1085 z "},"+":{"ha":814,"x_min":105,"x_max":709,"o":"m 336 800 l 478 800 l 478 193 l 336 193 l 336 800 m 105 427 l 105 570 l 709 570 l 709 427 l 105 427 z "},",":{"ha":451,"x_min":125,"x_max":366,"o":"m 125 34 l 125 109 q 141 159 125 134 q 183 200 157 184 q 241 217 210 217 q 333 177 299 217 q 366 75 366 138 q 320 -95 366 -16 q 210 -227 273 -173 l 132 -180 q 207 -66 186 -123 q 227 34 227 -9 l 125 34 z "},"-":{"ha":607,"x_min":54,"x_max":553,"o":"m 54 359 l 54 495 l 553 495 l 553 359 l 54 359 z "},".":{"ha":481,"x_min":136,"x_max":373,"o":"m 136 102 q 169 187 136 154 q 254 220 203 220 q 340 187 307 220 q 373 102 373 154 q 340 16 373 49 q 254 -17 307 -17 q 169 16 203 -17 q 136 102 136 49 z "},"/":{"ha":732,"x_min":7,"x_max":726,"o":"m 570 1085 l 726 1085 l 163 -166 l 7 -166 l 570 1085 z "},":":{"ha":481,"x_min":136,"x_max":373,"o":"m 136 102 q 169 187 136 154 q 254 220 203 220 q 340 187 307 220 q 373 102 373 154 q 340 16 373 49 q 254 -17 307 -17 q 169 16 203 -17 q 136 102 136 49 m 136 509 q 169 594 136 561 q 254 627 203 627 q 340 594 307 627 q 373 509 373 561 q 340 423 373 456 q 254 390 307 390 q 169 423 203 390 q 136 509 136 456 z "},";":{"ha":481,"x_min":125,"x_max":380,"o":"m 136 509 q 169 594 136 561 q 254 627 203 627 q 340 594 307 627 q 373 509 373 561 q 340 423 373 456 q 254 390 307 390 q 169 423 203 390 q 136 509 136 456 m 125 34 l 125 122 q 161 195 125 160 q 254 231 197 231 q 346 191 313 231 q 380 88 380 151 q 358 -31 380 28 q 301 -140 337 -90 q 224 -227 266 -191 l 125 -180 q 207 -66 179 -123 q 234 34 234 -9 l 125 34 z "},"<":{"ha":814,"x_min":75,"x_max":726,"o":"m 726 322 l 726 166 l 75 431 l 75 559 l 726 824 l 726 668 l 264 495 l 726 322 z "},"=":{"ha":814,"x_min":81,"x_max":732,"o":"m 81 305 l 81 441 l 732 441 l 732 305 l 81 305 m 81 543 l 81 678 l 732 678 l 732 543 l 81 543 z "},">":{"ha":814,"x_min":88,"x_max":739,"o":"m 88 166 l 88 322 l 549 495 l 88 668 l 88 824 l 739 559 l 739 431 l 88 166 z "},"?":{"ha":739,"x_min":95,"x_max":610,"o":"m 434 339 l 254 339 q 279 530 254 446 q 336 665 304 613 q 394 752 372 724 q 417 807 417 781 q 393 858 417 837 q 320 878 370 878 q 217 855 269 878 q 125 792 164 832 l 95 954 q 156 997 117 976 q 242 1031 195 1017 q 339 1044 290 1044 q 540 982 470 1044 q 610 827 610 920 q 598 766 610 793 q 565 712 585 739 q 520 648 544 685 q 452 499 470 572 q 434 339 434 426 m 227 102 q 261 187 227 154 q 346 220 294 220 q 431 187 398 220 q 465 102 465 154 q 431 16 465 49 q 346 -17 398 -17 q 261 16 294 -17 q 227 102 227 49 z "},"@":{"ha":1181,"x_min":61,"x_max":1119,"o":"m 773 7 l 865 -87 q 740 -144 814 -122 q 597 -166 665 -166 q 399 -131 495 -166 q 227 -25 303 -95 q 106 150 151 45 q 61 390 61 254 q 106 641 61 532 q 229 821 151 749 q 407 930 307 893 q 614 966 506 966 q 876 905 762 966 q 1055 734 990 844 q 1119 475 1119 623 q 1080 277 1119 359 q 983 152 1041 195 q 865 109 924 109 q 765 166 803 109 q 722 309 728 223 q 669 220 705 267 q 589 142 633 174 q 502 111 545 111 q 413 141 456 111 q 340 227 369 171 q 312 359 312 283 q 325 471 312 422 q 363 559 338 520 q 468 667 406 629 q 614 705 530 705 q 680 700 642 705 q 759 686 719 695 q 827 665 798 677 l 827 441 q 844 278 827 329 q 885 227 860 227 q 929 253 905 227 q 972 330 954 279 q 990 454 990 380 q 948 651 990 564 q 822 790 907 739 q 607 841 737 841 q 399 785 492 841 q 252 632 307 730 q 197 410 197 535 q 252 173 197 275 q 400 15 307 71 q 607 -41 493 -41 q 773 7 705 -41 m 692 481 l 692 556 q 653 572 675 564 q 593 580 631 580 q 488 533 524 580 q 458 469 469 508 q 448 390 448 429 q 524 237 448 237 q 573 262 547 237 q 623 324 599 286 q 665 404 647 362 q 692 481 684 446 z "},"A":{"ha":1007,"x_min":35,"x_max":955,"o":"m 237 0 l 35 0 q 73 93 54 41 q 123 241 92 144 l 374 990 l 616 990 l 867 241 q 918 93 899 146 q 955 0 937 41 l 756 0 l 681 241 l 312 241 l 237 0 m 635 387 l 495 833 l 357 387 l 635 387 z "},"B":{"ha":939,"x_min":102,"x_max":844,"o":"m 305 846 l 305 593 l 410 593 q 557 630 507 593 q 608 730 608 667 q 566 820 608 791 q 428 850 523 850 q 358 849 393 850 q 305 846 324 848 m 112 309 l 112 678 q 111 864 112 778 q 102 990 109 949 q 235 995 152 994 q 417 997 319 997 q 611 974 526 997 q 745 897 696 951 q 793 753 793 844 q 747 619 793 670 q 634 543 701 568 q 733 502 685 529 q 813 424 781 474 q 844 292 844 374 q 800 140 844 208 q 664 33 756 72 q 428 -7 572 -7 q 282 -5 350 -7 q 166 -2 214 -4 q 102 0 119 -1 q 111 124 109 41 q 112 309 112 208 m 305 446 l 305 149 q 357 147 322 149 q 442 146 391 146 q 551 160 501 146 q 630 209 600 174 q 659 305 659 244 q 601 411 659 375 q 436 446 543 446 l 305 446 z "},"C":{"ha":939,"x_min":61,"x_max":858,"o":"m 824 275 l 858 95 q 758 37 817 62 q 634 -3 699 12 q 512 -17 570 -17 q 271 44 372 -17 q 115 217 170 105 q 61 481 61 329 q 99 711 61 612 q 202 876 136 810 q 353 974 268 941 q 532 1007 438 1007 q 700 986 626 1007 q 848 912 774 965 l 800 749 q 672 822 736 800 q 543 844 609 844 q 395 806 460 844 q 292 690 330 767 q 254 498 254 614 q 329 242 254 335 q 536 149 404 149 q 690 183 612 149 q 824 275 768 218 z "},"D":{"ha":1007,"x_min":102,"x_max":929,"o":"m 112 309 l 112 678 q 111 864 112 778 q 102 990 109 949 q 164 993 124 991 q 251 995 203 994 q 344 997 298 996 q 427 997 391 997 q 551 986 484 997 q 685 946 618 976 q 807 862 751 917 q 896 719 862 807 q 929 502 929 631 q 896 294 929 381 q 808 149 863 207 q 685 56 753 90 q 547 8 618 22 q 413 -7 476 -7 q 327 -6 378 -7 q 223 -3 275 -5 q 137 -1 172 -2 q 102 0 102 0 q 110 124 109 41 q 112 309 111 208 m 305 842 l 305 157 q 357 152 325 155 q 429 150 389 150 q 576 183 505 150 q 692 291 646 216 q 738 488 738 366 q 698 701 738 623 q 589 812 659 779 q 432 845 520 845 q 366 844 404 845 q 305 842 327 843 z "},"E":{"ha":822,"x_min":102,"x_max":747,"o":"m 305 593 l 676 593 l 676 441 l 305 441 l 305 156 l 480 156 q 643 158 577 156 q 747 166 708 159 l 747 0 l 102 0 q 111 118 109 41 q 112 295 112 195 l 112 695 q 111 872 112 795 q 102 990 109 949 l 727 990 l 727 834 l 305 834 l 305 593 z "},"F":{"ha":814,"x_min":102,"x_max":739,"o":"m 305 583 l 682 583 l 682 431 l 305 431 l 305 277 q 307 110 305 182 q 315 0 308 37 l 102 0 q 111 118 109 41 q 112 295 112 195 l 112 692 q 111 871 112 792 q 102 990 109 949 l 739 990 l 739 834 l 305 834 l 305 583 z "},"G":{"ha":998,"x_min":61,"x_max":907,"o":"m 907 532 l 907 105 q 708 7 796 32 q 527 -17 620 -17 q 286 42 391 -17 q 121 213 181 100 q 61 488 61 326 q 126 767 61 651 q 302 945 191 883 q 555 1007 414 1007 q 722 989 642 1007 q 897 912 802 972 l 838 751 q 695 823 768 801 q 549 844 622 844 q 393 802 460 844 q 291 684 327 760 q 254 505 254 608 q 328 244 254 340 q 522 149 401 149 q 627 160 580 149 q 734 199 675 170 l 734 380 l 520 380 l 520 532 l 907 532 z "},"H":{"ha":1027,"x_min":102,"x_max":909,"o":"m 909 0 l 705 0 l 705 431 l 305 431 l 305 0 l 102 0 q 111 116 109 41 q 112 292 112 191 l 112 699 q 111 874 112 799 q 102 990 109 949 l 305 990 l 305 583 l 705 583 l 705 990 l 909 990 q 900 874 901 949 q 899 699 899 799 l 899 292 q 900 116 899 191 q 909 0 901 41 z "},"I":{"ha":709,"x_min":88,"x_max":607,"o":"m 88 990 l 607 990 l 607 851 l 444 851 l 444 139 l 607 139 l 607 0 l 88 0 l 88 139 l 251 139 l 251 851 l 88 851 l 88 990 z "},"J":{"ha":699,"x_min":20,"x_max":580,"o":"m 376 990 l 580 990 q 580 835 580 916 q 580 675 580 754 q 580 531 580 597 q 580 420 580 465 q 580 363 580 375 q 538 142 580 225 q 421 21 496 58 q 246 -17 347 -17 q 169 -9 211 -17 q 87 17 126 -1 q 20 61 47 34 l 54 235 q 144 175 92 196 q 248 154 196 154 q 337 185 307 154 q 376 268 366 217 q 387 378 387 319 l 387 665 q 385 850 387 764 q 376 990 383 937 z "},"K":{"ha":970,"x_min":102,"x_max":922,"o":"m 640 990 l 868 990 l 393 458 l 345 488 l 252 496 l 640 990 m 264 496 l 416 562 l 922 0 l 671 0 l 264 496 m 305 990 l 305 0 l 102 0 q 111 118 109 41 q 112 295 112 195 l 112 695 q 111 872 112 795 q 102 990 109 949 l 305 990 z "},"L":{"ha":766,"x_min":102,"x_max":736,"o":"m 305 156 l 452 156 q 622 158 548 156 q 736 166 696 159 l 736 0 l 102 0 q 111 118 109 41 q 112 295 112 195 l 112 695 q 111 872 112 795 q 102 990 109 949 l 305 990 l 305 156 z "},"M":{"ha":1258,"x_min":102,"x_max":1139,"o":"m 622 186 l 854 990 l 1029 990 l 947 793 l 722 0 l 522 0 l 296 793 l 214 990 l 390 990 l 622 186 m 149 990 l 329 990 l 304 817 l 285 0 l 102 0 q 110 96 106 28 q 119 254 114 163 q 128 446 123 345 q 136 643 132 547 q 143 818 140 739 q 148 943 146 897 q 149 990 149 990 m 1139 0 l 956 0 l 939 817 l 909 990 l 1092 990 q 1100 756 1095 880 q 1110 511 1105 633 q 1120 285 1115 390 q 1130 105 1125 180 q 1139 0 1135 30 z "},"N":{"ha":1048,"x_min":102,"x_max":929,"o":"m 151 888 l 288 990 l 880 102 l 743 0 l 151 888 m 743 0 l 743 990 l 929 990 q 921 872 922 949 q 919 695 919 795 l 919 0 l 743 0 m 288 990 l 288 0 l 102 0 q 111 118 109 41 q 112 295 112 195 l 112 695 q 111 872 112 795 q 102 990 109 949 l 288 990 z "},"O":{"ha":1017,"x_min":61,"x_max":939,"o":"m 746 485 q 715 675 746 595 q 629 798 684 755 q 502 841 574 841 q 375 800 431 841 q 287 684 319 759 q 254 505 254 608 q 286 316 254 396 q 373 193 317 236 q 502 149 429 149 q 625 189 570 149 q 713 304 680 229 q 746 485 746 380 m 939 502 q 903 283 939 380 q 804 120 867 187 q 662 18 742 54 q 495 -17 582 -17 q 279 42 378 -17 q 121 213 180 100 q 61 488 61 326 q 97 706 61 610 q 197 869 134 802 q 340 972 260 937 q 509 1007 420 1007 q 723 948 625 1007 q 880 777 821 890 q 939 502 939 665 z "},"P":{"ha":865,"x_min":102,"x_max":814,"o":"m 305 355 l 305 295 q 307 117 305 195 q 315 0 309 40 l 102 0 q 111 118 109 41 q 112 295 112 195 l 112 678 q 111 864 112 778 q 102 990 109 949 q 135 991 102 990 q 220 994 168 992 q 332 996 272 995 q 446 997 392 997 q 639 962 556 997 q 768 858 722 928 q 814 685 814 789 q 767 505 814 581 q 635 389 720 429 q 439 348 551 348 q 305 355 368 348 m 305 841 l 305 502 q 357 497 327 498 q 419 495 388 495 q 569 541 517 495 q 621 678 621 587 q 575 798 621 752 q 422 844 529 844 q 358 843 382 844 q 305 841 334 842 z "},"Q":{"ha":1048,"x_min":61,"x_max":1041,"o":"m 939 502 q 896 267 939 365 q 777 96 852 168 q 849 55 805 78 q 943 14 892 33 q 1041 -10 994 -5 q 1021 -47 1035 -24 q 988 -96 1006 -71 q 951 -138 970 -121 q 916 -155 932 -155 q 866 -140 899 -155 q 794 -104 833 -125 q 717 -61 755 -83 q 648 -25 678 -39 q 603 -10 617 -10 q 556 -16 578 -14 q 495 -17 534 -17 q 279 42 378 -17 q 121 213 180 100 q 61 488 61 326 q 97 706 61 610 q 197 869 134 802 q 340 972 260 937 q 509 1007 420 1007 q 723 948 625 1007 q 880 777 821 890 q 939 502 939 665 m 746 485 q 715 675 746 595 q 629 798 684 755 q 502 841 574 841 q 375 800 431 841 q 287 684 319 759 q 254 505 254 608 q 286 316 254 396 q 373 193 317 236 q 502 149 429 149 q 626 189 571 149 q 714 304 682 229 q 746 485 746 380 z "},"R":{"ha":936,"x_min":102,"x_max":902,"o":"m 305 397 l 305 295 q 307 117 305 195 q 315 0 309 40 l 102 0 q 111 118 109 41 q 112 295 112 195 l 112 678 q 111 864 112 778 q 102 990 109 949 q 132 991 102 990 q 212 994 162 992 q 321 996 262 995 q 441 997 381 997 q 627 965 547 997 q 752 868 707 932 q 797 705 797 804 q 744 530 797 598 q 606 429 691 461 q 424 397 521 397 l 305 397 m 305 841 l 305 543 l 410 543 q 551 577 499 543 q 604 702 604 612 q 555 811 604 779 q 417 844 507 844 q 355 843 378 844 q 305 841 332 842 m 377 431 l 561 466 q 583 436 561 466 q 639 357 604 406 q 714 252 674 308 q 793 142 755 195 q 861 51 832 90 q 902 0 890 12 l 661 0 l 377 431 z "},"S":{"ha":843,"x_min":61,"x_max":772,"o":"m 729 946 l 699 766 q 559 825 618 806 q 427 844 499 844 q 323 809 364 844 q 282 732 282 774 q 298 682 282 703 q 359 639 313 660 q 493 590 404 618 q 700 482 629 548 q 772 309 772 416 q 722 138 772 212 q 590 24 673 65 q 407 -17 507 -17 q 209 9 300 -17 q 61 75 117 35 l 95 261 q 246 176 168 203 q 407 149 325 149 q 490 165 451 149 q 553 212 529 181 q 577 285 577 242 q 560 338 577 313 q 494 388 543 362 q 346 444 444 413 q 184 519 239 478 q 108 609 128 559 q 88 719 88 659 q 108 814 88 764 q 170 908 127 865 q 277 980 212 952 q 434 1007 342 1007 q 589 992 521 1007 q 729 946 656 978 z "},"T":{"ha":858,"x_min":24,"x_max":821,"o":"m 24 990 l 821 990 l 821 821 q 745 832 784 829 q 665 834 706 834 l 517 834 l 517 280 q 520 112 517 185 q 531 0 522 39 l 311 0 q 322 112 319 39 q 324 280 324 185 l 324 834 l 180 834 q 100 832 139 834 q 24 821 60 829 l 24 990 z "},"U":{"ha":1010,"x_min":102,"x_max":892,"o":"m 688 990 l 892 990 q 883 875 885 949 q 882 695 882 800 l 882 349 q 785 83 882 184 q 498 -17 689 -17 q 209 83 306 -17 q 112 349 112 184 l 112 695 q 111 872 112 795 q 102 990 109 949 l 305 990 l 305 380 q 322 252 305 307 q 381 168 339 198 q 498 138 423 138 q 613 168 572 138 q 671 252 654 198 q 688 380 688 307 l 688 990 z "},"V":{"ha":994,"x_min":17,"x_max":963,"o":"m 756 990 l 963 990 q 924 895 945 949 q 868 743 903 842 l 604 0 l 376 0 l 112 743 q 55 895 77 841 q 17 990 34 949 l 224 990 l 490 176 l 756 990 z "},"W":{"ha":1448,"x_min":20,"x_max":1411,"o":"m 1010 0 l 997 88 l 1200 990 l 1411 990 q 1377 895 1394 949 q 1333 743 1360 842 l 1122 0 l 1010 0 m 800 990 l 1038 88 l 1024 0 l 909 0 l 675 885 l 624 990 l 800 990 m 407 0 l 393 88 l 624 990 l 800 990 l 749 885 l 519 0 l 407 0 m 231 990 l 434 88 l 420 0 l 305 0 l 98 743 q 54 895 71 840 q 20 990 36 950 l 231 990 z "},"X":{"ha":926,"x_min":20,"x_max":888,"o":"m 671 0 l 214 753 q 143 865 171 823 q 94 934 115 906 q 51 990 73 962 l 271 990 l 734 228 q 804 117 778 157 q 849 53 830 77 q 888 0 868 28 l 671 0 m 410 642 l 475 413 l 237 0 l 20 0 q 61 55 42 29 q 106 119 80 80 q 173 231 132 159 l 410 642 m 509 413 l 444 642 l 644 990 l 865 990 q 821 935 843 964 q 771 862 799 905 q 705 753 744 819 l 509 413 z "},"Y":{"ha":925,"x_min":17,"x_max":895,"o":"m 390 380 l 190 722 q 112 852 151 789 q 17 990 74 914 l 242 990 l 530 458 l 390 380 m 522 380 l 391 458 l 676 990 l 895 990 q 826 889 854 933 q 774 806 798 845 q 725 722 751 766 l 522 380 m 359 471 l 553 471 l 553 295 q 554 118 553 195 q 563 0 555 41 l 349 0 q 358 118 357 41 q 359 295 359 195 l 359 471 z "},"Z":{"ha":848,"x_min":44,"x_max":790,"o":"m 770 990 l 770 871 l 281 156 l 495 156 q 672 159 595 156 q 790 170 749 163 l 790 0 l 44 0 l 44 109 l 538 834 l 380 834 q 199 832 269 834 q 85 821 130 829 l 85 990 l 770 990 z "},"[":{"ha":576,"x_min":129,"x_max":481,"o":"m 481 -278 l 129 -278 l 129 1085 l 481 1085 l 481 943 l 319 943 l 319 -136 l 481 -136 l 481 -278 z "},"\\":{"ha":732,"x_min":7,"x_max":726,"o":"m 7 1085 l 163 1085 l 726 -166 l 570 -166 l 7 1085 z "},"]":{"ha":576,"x_min":95,"x_max":448,"o":"m 448 -278 l 95 -278 l 95 -136 l 258 -136 l 258 943 l 95 943 l 95 1085 l 448 1085 l 448 -278 z "},"^":{"ha":597,"x_min":5,"x_max":602,"o":"m 602 814 l 439 814 l 304 970 l 168 814 l 5 814 l 202 1085 l 406 1085 l 602 814 z "},"_":{"ha":878,"x_min":0,"x_max":878,"o":"m 0 -251 l 0 -115 l 878 -115 l 878 -251 l 0 -251 z "},"`":{"ha":434,"x_min":0,"x_max":434,"o":"m 0 1085 l 237 1085 l 434 814 l 271 814 l 0 1085 z "},"a":{"ha":852,"x_min":68,"x_max":794,"o":"m 794 0 l 614 0 q 595 54 604 16 q 582 133 587 92 q 576 199 576 174 l 576 237 q 507 120 551 179 q 402 22 462 62 q 271 -17 342 -17 q 127 59 186 -17 q 68 278 68 134 q 92 435 68 359 q 165 572 115 511 q 291 669 214 633 q 473 705 368 705 q 620 697 547 705 q 750 675 692 688 l 750 359 q 762 144 750 231 q 794 0 774 57 m 556 495 l 556 540 q 515 548 542 543 q 444 553 488 553 q 332 514 373 553 q 275 412 292 475 q 258 278 258 349 q 280 181 258 218 q 332 144 302 144 q 392 173 361 144 q 452 245 422 201 q 505 338 481 290 q 542 430 528 387 q 556 495 556 472 z "},"b":{"ha":824,"x_min":81,"x_max":763,"o":"m 81 1085 l 281 1085 q 281 930 281 1013 q 281 773 281 848 q 281 644 281 698 q 281 573 281 589 q 390 667 328 629 q 535 705 452 705 q 653 662 602 705 q 734 542 705 618 q 763 366 763 465 q 723 164 763 250 q 611 31 684 78 q 441 -17 539 -17 q 255 4 342 -17 q 92 44 168 24 q 92 405 92 224 q 92 766 92 586 q 91 875 92 815 q 89 991 91 935 q 81 1085 87 1047 m 281 397 l 281 163 q 349 137 321 144 q 410 129 376 129 q 532 188 484 129 q 580 342 580 247 q 550 486 580 433 q 463 539 519 539 q 360 499 411 539 q 281 397 310 460 z "},"c":{"ha":693,"x_min":61,"x_max":632,"o":"m 625 657 l 595 493 q 518 541 560 525 q 418 556 476 556 q 297 497 342 556 q 251 339 251 438 q 294 193 251 250 q 418 136 337 136 q 524 155 479 136 q 612 210 568 175 l 632 47 q 527 0 586 16 q 392 -17 468 -17 q 226 24 301 -17 q 106 143 151 64 q 61 332 61 221 q 105 523 61 438 q 228 656 149 607 q 415 705 308 705 q 535 691 482 705 q 625 657 588 677 z "},"d":{"ha":858,"x_min":68,"x_max":807,"o":"m 756 1085 l 756 359 q 771 144 756 231 q 807 0 785 57 l 621 0 q 603 50 613 16 q 583 119 592 83 q 479 18 538 54 q 349 -17 420 -17 q 202 24 266 -17 q 103 139 139 64 q 68 312 68 213 q 113 520 68 432 q 233 657 157 608 q 400 705 309 705 q 485 688 440 705 q 566 648 530 670 l 566 838 q 563 981 566 919 q 549 1085 559 1042 l 756 1085 m 566 271 l 566 500 q 484 533 519 524 q 400 543 448 543 q 332 517 365 543 q 278 446 299 492 q 258 332 258 399 q 387 136 258 136 q 458 155 422 136 q 522 206 493 175 q 566 271 550 237 z "},"e":{"ha":753,"x_min":61,"x_max":688,"o":"m 685 305 l 164 305 l 164 427 l 512 427 q 481 531 512 498 q 390 563 450 563 q 281 512 317 563 q 245 342 245 462 q 289 185 245 235 q 416 136 332 136 q 547 151 483 136 q 674 204 611 167 l 688 51 q 547 -2 615 14 q 399 -17 479 -17 q 233 23 310 -17 q 108 142 155 63 q 61 336 61 220 q 102 531 61 448 q 219 660 143 614 q 399 705 295 705 q 540 676 485 705 q 627 597 595 646 q 671 486 659 547 q 684 361 684 425 q 685 333 684 351 q 685 305 685 315 z "},"f":{"ha":543,"x_min":20,"x_max":587,"o":"m 156 793 q 227 1021 156 943 q 424 1099 298 1099 q 509 1085 462 1099 q 587 1051 557 1071 l 548 897 q 495 929 526 917 q 439 941 465 941 q 368 905 391 941 q 346 786 346 869 q 346 561 346 673 q 346 335 346 448 q 351 145 346 237 q 366 0 355 54 l 156 0 q 156 397 156 199 q 156 793 156 595 m 20 546 l 20 682 l 519 682 l 519 546 l 20 546 z "},"g":{"ha":804,"x_min":68,"x_max":719,"o":"m 719 654 l 719 17 q 690 -136 719 -73 q 614 -240 662 -200 q 507 -300 566 -281 q 387 -319 448 -319 q 225 -294 296 -319 q 105 -231 153 -270 l 163 -89 q 255 -145 205 -123 q 359 -167 304 -167 q 441 -151 402 -167 q 505 -100 480 -136 q 529 -7 529 -65 l 529 119 q 417 26 477 56 q 302 -3 356 -3 q 188 26 241 -3 q 101 122 134 56 q 68 295 68 187 q 90 446 68 373 q 158 578 112 519 q 276 671 204 637 q 448 705 348 705 q 587 689 515 705 q 719 654 659 673 m 529 282 l 529 517 q 424 544 476 544 q 328 512 364 544 q 274 431 291 480 q 258 329 258 382 q 290 194 258 230 q 370 158 321 158 q 452 190 407 158 q 529 282 497 222 z "},"h":{"ha":838,"x_min":81,"x_max":753,"o":"m 281 393 l 281 0 l 92 0 q 92 175 92 82 q 92 359 92 267 q 92 534 92 452 q 92 676 92 616 q 92 766 92 737 q 90 959 92 876 q 81 1085 89 1042 l 281 1085 q 281 923 281 1008 q 281 762 281 838 q 281 635 281 686 q 281 576 281 585 q 402 673 332 641 q 546 705 473 705 q 753 424 753 705 q 753 342 753 393 q 753 231 753 292 q 753 111 753 171 q 753 0 753 50 l 563 0 q 563 99 563 45 q 563 207 563 153 q 563 304 563 260 q 563 373 563 348 q 537 506 563 472 q 458 539 512 539 q 383 517 419 539 q 320 462 347 495 q 281 393 294 429 z "},"i":{"ha":434,"x_min":98,"x_max":336,"o":"m 112 692 l 312 692 q 312 583 312 641 q 312 472 312 526 q 312 378 312 418 q 312 322 312 338 q 314 217 312 279 q 318 96 315 155 q 326 0 321 37 l 122 0 q 122 115 122 49 q 122 246 122 180 q 122 359 122 311 q 120 548 122 458 q 112 692 119 638 m 98 939 q 132 1025 98 991 q 217 1058 165 1058 q 302 1025 269 1058 q 336 939 336 991 q 302 853 336 886 q 217 821 269 821 q 132 853 165 821 q 98 939 98 886 z "},"j":{"ha":454,"x_min":-129,"x_max":363,"o":"m 339 692 l 339 17 q 299 -183 339 -109 q 191 -288 259 -256 q 38 -319 123 -319 q -58 -299 -9 -319 q -129 -264 -107 -280 l -98 -103 q -39 -141 -76 -125 q 33 -157 -2 -157 q 149 14 149 -157 l 149 359 q 148 548 149 458 q 139 692 146 638 l 339 692 m 125 939 q 159 1025 125 991 q 244 1058 193 1058 q 330 1025 296 1058 q 363 939 363 991 q 330 853 363 886 q 244 821 296 821 q 159 853 193 821 q 125 939 125 886 z "},"k":{"ha":772,"x_min":81,"x_max":765,"o":"m 281 0 l 92 0 q 92 175 92 82 q 92 359 92 267 q 92 533 92 452 q 92 676 92 615 q 92 766 92 737 q 90 959 92 876 q 81 1085 89 1042 l 281 1085 l 281 0 m 490 692 l 745 692 l 388 358 l 239 387 l 490 692 m 237 387 l 366 450 l 765 0 l 516 0 l 237 387 z "},"l":{"ha":434,"x_min":109,"x_max":326,"o":"m 312 1085 l 312 322 q 314 217 312 279 q 318 96 315 155 q 326 0 321 37 l 122 0 l 122 766 q 109 1085 122 965 l 312 1085 z "},"m":{"ha":1194,"x_min":78,"x_max":1095,"o":"m 699 448 l 699 0 l 509 0 l 509 387 q 502 484 509 451 q 477 528 494 516 q 431 539 460 539 q 357 510 393 539 q 302 434 321 480 l 302 0 l 112 0 l 112 417 q 100 587 112 517 q 78 692 89 656 l 254 692 q 274 644 266 672 q 286 593 281 616 q 402 683 349 661 q 515 705 456 705 q 624 671 582 705 q 682 591 665 636 q 802 683 746 660 q 912 705 859 705 q 1055 639 1015 705 q 1095 448 1095 573 l 1095 0 l 905 0 l 905 373 q 899 477 905 441 q 875 526 892 513 q 827 539 858 539 q 755 514 790 539 q 699 448 720 490 z "},"n":{"ha":844,"x_min":64,"x_max":760,"o":"m 760 0 l 570 0 q 570 29 570 0 q 570 104 570 58 q 570 202 570 151 q 570 299 570 254 q 570 373 570 345 q 544 503 570 467 q 465 539 519 539 q 390 517 426 539 q 327 462 354 495 q 288 393 300 429 l 288 0 l 98 0 q 98 30 98 0 q 98 109 98 60 q 98 213 98 157 q 98 324 98 270 q 98 417 98 378 q 87 587 98 517 q 64 692 76 656 l 251 692 q 261 654 256 678 q 271 606 267 631 q 278 566 276 582 q 405 673 342 640 q 539 705 467 705 q 701 634 642 705 q 760 424 760 564 q 760 337 760 390 q 760 227 760 285 q 760 117 760 168 q 760 33 760 65 q 760 0 760 0 z "},"o":{"ha":787,"x_min":61,"x_max":726,"o":"m 61 344 q 107 541 61 460 q 231 664 154 622 q 400 705 309 705 q 570 664 496 705 q 684 541 643 622 q 726 344 726 460 q 679 147 726 227 q 555 25 633 66 q 387 -17 478 -17 q 218 25 291 -17 q 103 147 144 66 q 61 344 61 227 m 251 344 q 287 191 251 247 q 393 136 323 136 q 497 191 459 136 q 536 344 536 247 q 499 497 536 441 q 393 553 463 553 q 289 497 328 553 q 251 344 251 441 z "},"p":{"ha":838,"x_min":64,"x_max":777,"o":"m 64 692 l 251 692 q 266 648 258 677 q 278 576 273 618 q 388 669 325 633 q 524 705 450 705 q 657 661 600 705 q 745 540 713 617 q 777 363 777 463 q 736 162 777 247 q 626 30 695 77 q 474 -17 557 -17 q 378 0 420 -17 q 288 44 336 16 l 288 -102 q 292 -236 288 -183 q 305 -332 296 -289 l 98 -332 q 98 -2 98 -167 q 98 329 98 163 q 93 545 98 456 q 64 692 87 634 m 288 397 l 288 203 q 367 153 340 165 q 429 140 394 140 q 539 194 492 140 q 587 342 587 248 q 552 489 587 435 q 456 544 517 544 q 364 506 410 544 q 288 397 317 469 z "},"q":{"ha":821,"x_min":68,"x_max":743,"o":"m 536 -332 l 536 81 q 435 5 483 28 q 339 -17 387 -17 q 214 16 277 -17 q 110 118 151 50 q 68 295 68 187 q 88 446 68 373 q 151 578 109 519 q 261 671 194 637 q 420 705 328 705 q 577 689 498 705 q 726 654 656 673 q 726 618 726 654 q 726 520 726 581 q 726 384 726 458 q 726 231 726 309 q 726 84 726 153 q 726 -34 726 16 q 726 -102 726 -83 q 730 -236 726 -183 q 743 -332 734 -289 l 536 -332 m 536 250 l 536 522 q 444 544 489 544 q 336 512 377 544 q 276 431 295 480 q 258 329 258 382 q 299 183 258 229 q 393 138 340 138 q 467 166 429 138 q 536 250 504 194 z "},"r":{"ha":675,"x_min":64,"x_max":668,"o":"m 288 0 l 98 0 l 98 417 q 87 587 98 517 q 64 692 76 656 l 251 692 q 261 652 256 677 q 271 602 267 627 q 278 559 276 576 q 387 668 328 630 q 492 705 446 705 q 594 670 555 705 q 650 578 633 635 q 668 451 668 520 l 517 427 q 494 502 513 473 q 432 530 475 530 q 380 505 410 530 q 326 440 351 479 q 288 359 300 401 l 288 0 z "},"s":{"ha":702,"x_min":68,"x_max":651,"o":"m 614 651 l 587 492 q 491 534 549 511 q 363 556 433 556 q 280 536 303 556 q 258 495 258 515 q 267 467 258 479 q 305 446 276 456 q 393 424 334 436 q 523 386 464 410 q 616 319 581 361 q 651 214 651 278 q 612 96 651 149 q 506 14 572 44 q 356 -17 439 -17 q 189 6 265 -17 q 68 61 112 30 l 105 227 q 228 161 155 186 q 359 136 300 136 q 438 154 408 136 q 468 197 468 173 q 437 249 468 227 q 309 293 406 272 q 162 343 212 314 q 93 409 111 372 q 75 488 75 446 q 88 550 75 513 q 135 622 102 586 q 225 681 168 657 q 370 705 282 705 q 513 688 452 705 q 614 651 574 671 z "},"t":{"ha":600,"x_min":20,"x_max":556,"o":"m 556 191 l 556 39 q 463 -4 508 8 q 382 -17 418 -17 q 265 0 318 -17 q 181 61 212 18 q 149 183 149 105 q 149 539 149 361 q 149 895 149 718 l 339 895 q 339 605 339 750 q 339 313 339 459 q 348 199 339 237 q 376 151 357 162 q 425 140 395 140 q 556 191 474 140 m 546 546 l 20 546 l 20 682 l 546 682 l 546 546 z "},"u":{"ha":844,"x_min":85,"x_max":787,"o":"m 787 0 l 607 0 q 586 56 597 22 q 570 125 575 90 q 445 19 510 56 q 311 -17 380 -17 q 98 275 98 -17 q 98 309 98 279 q 98 375 98 338 q 98 441 98 412 q 98 475 98 470 q 96 585 98 539 q 85 692 94 631 l 288 692 l 288 315 q 308 181 288 223 q 380 140 328 140 q 446 163 411 140 q 510 219 480 186 q 553 283 539 252 l 553 475 q 552 553 553 519 q 548 618 551 586 q 539 692 545 650 l 743 692 l 743 305 q 754 132 743 207 q 787 0 766 57 z "},"v":{"ha":749,"x_min":7,"x_max":742,"o":"m 533 692 l 742 692 q 703 607 723 653 q 665 520 682 562 q 637 451 648 478 q 603 366 624 418 q 556 249 581 313 q 506 121 531 186 q 458 0 480 56 l 292 0 q 228 160 262 75 q 164 321 195 244 q 112 451 133 399 q 83 520 101 479 q 46 607 66 562 q 7 692 26 653 l 218 692 l 377 197 l 533 692 z "},"w":{"ha":1065,"x_min":24,"x_max":1041,"o":"m 451 692 l 614 692 l 739 193 l 846 692 l 1041 692 q 1014 601 1025 640 q 991 527 1002 562 q 970 451 981 492 l 844 0 l 648 0 l 532 471 l 417 0 l 220 0 l 95 451 q 64 559 80 505 q 24 692 47 614 l 219 692 l 326 193 l 451 692 z "},"x":{"ha":804,"x_min":27,"x_max":777,"o":"m 553 0 l 176 509 q 135 564 153 540 q 94 618 117 589 q 34 692 71 647 l 258 692 l 631 183 q 670 131 651 156 q 715 75 690 105 q 777 0 740 44 l 553 0 m 338 418 l 396 243 l 234 0 l 27 0 q 89 81 64 49 q 132 136 114 113 q 166 183 149 160 l 338 418 m 458 275 l 404 453 l 559 692 l 766 692 q 685 586 714 624 q 627 509 655 547 l 458 275 z "},"y":{"ha":746,"x_min":-7,"x_max":739,"o":"m 408 142 l 318 -56 l 122 451 q 78 555 104 498 q 14 692 53 612 l 226 692 l 408 142 m 641 451 l 478 0 q 382 -200 431 -131 q 281 -294 334 -269 q 166 -319 228 -319 q -7 -261 71 -319 l 41 -113 q 98 -148 62 -131 q 166 -164 133 -164 q 209 -153 187 -164 q 253 -108 230 -141 q 302 -12 276 -75 q 328 50 312 13 q 360 125 344 87 q 387 195 377 164 q 442 387 416 293 q 491 561 469 481 q 527 692 513 640 l 739 692 q 681 556 704 613 q 641 451 658 498 z "},"z":{"ha":719,"x_min":64,"x_max":661,"o":"m 85 692 l 651 692 l 651 594 l 292 146 l 512 146 q 586 147 548 146 q 661 156 624 149 l 661 0 l 64 0 l 64 108 l 417 546 l 190 546 q 132 545 160 546 q 85 536 104 543 l 85 692 z "},"{":{"ha":705,"x_min":115,"x_max":607,"o":"m 607 -121 l 573 -278 q 472 -255 527 -269 q 371 -225 416 -241 q 309 -193 326 -210 q 288 -143 296 -181 q 274 -54 279 -106 q 266 53 269 -3 q 261 157 263 108 q 257 240 259 207 q 251 278 255 273 q 222 307 243 289 q 175 345 200 324 q 133 384 151 365 q 115 417 115 403 q 133 450 115 431 q 175 490 151 469 q 222 528 200 510 q 251 556 243 545 q 257 594 255 562 q 261 676 259 627 q 267 781 264 726 q 274 888 269 837 q 288 978 279 940 q 309 1027 296 1015 q 367 1060 325 1044 q 461 1089 410 1076 q 556 1112 513 1103 l 590 956 q 542 939 569 949 q 492 919 514 929 q 465 902 471 909 q 453 856 457 894 q 448 767 450 819 q 445 664 446 715 q 441 576 444 613 q 436 532 439 540 q 402 495 429 517 q 353 451 376 472 q 328 417 329 429 q 353 384 329 406 q 403 340 377 363 q 437 302 429 317 q 443 258 441 295 q 445 170 444 221 q 448 67 446 119 q 454 -22 450 16 q 465 -68 458 -60 q 497 -85 471 -75 q 553 -105 522 -96 q 607 -121 585 -115 z "},"|":{"ha":468,"x_min":163,"x_max":305,"o":"m 163 1085 l 305 1085 l 305 -264 l 163 -264 l 163 1085 z "},"}":{"ha":705,"x_min":88,"x_max":580,"o":"m 122 -278 l 88 -121 q 142 -105 111 -115 q 199 -85 173 -96 q 231 -68 224 -75 q 241 -22 238 -60 q 247 67 245 16 q 250 170 249 119 q 253 258 251 221 q 258 302 254 295 q 292 340 266 317 q 342 384 318 363 q 368 417 366 406 q 342 451 366 429 q 293 495 319 472 q 259 532 267 517 q 254 576 256 540 q 251 664 252 613 q 248 767 250 715 q 242 856 245 819 q 231 902 238 894 q 203 919 225 909 q 154 939 181 929 q 105 956 127 949 l 139 1112 q 234 1089 182 1103 q 328 1060 286 1076 q 387 1027 371 1044 q 408 978 399 1015 q 421 888 416 940 q 429 781 426 837 q 434 676 431 726 q 438 594 436 627 q 444 556 441 562 q 473 528 452 545 q 520 490 495 510 q 562 450 545 469 q 580 417 580 431 q 562 384 580 403 q 520 345 545 365 q 473 307 495 324 q 444 278 452 289 q 438 240 441 273 q 434 157 436 207 q 429 53 432 108 q 421 -54 426 -3 q 408 -143 416 -106 q 387 -193 399 -181 q 324 -225 370 -210 q 223 -255 279 -241 q 122 -278 168 -269 z "},"~":{"ha":756,"x_min":14,"x_max":732,"o":"m 112 234 l 14 234 q 32 323 14 275 q 87 404 51 370 q 176 437 123 437 q 302 419 245 437 q 420 384 360 401 q 553 366 479 366 q 613 389 595 366 q 634 434 631 411 l 732 434 q 712 342 732 391 q 652 258 691 293 q 559 224 614 224 q 424 242 488 224 q 301 277 359 260 q 190 295 243 295 q 133 277 151 295 q 112 234 115 259 z "},"Ä":{"ha":1007,"x_min":35,"x_max":955,"o":"m 237 0 l 35 0 q 73 93 54 41 q 123 241 92 144 l 374 990 l 616 990 l 867 241 q 918 93 899 146 q 955 0 937 41 l 756 0 l 681 241 l 312 241 l 237 0 m 635 387 l 495 833 l 357 387 l 635 387 m 544 1231 q 577 1316 544 1283 q 663 1350 611 1350 q 748 1316 715 1350 q 781 1231 781 1283 q 748 1145 781 1178 q 663 1112 715 1112 q 577 1145 611 1112 q 544 1231 544 1178 m 212 1231 q 245 1316 212 1283 q 330 1350 279 1350 q 416 1316 382 1350 q 449 1231 449 1283 q 416 1145 449 1178 q 330 1112 382 1112 q 245 1145 279 1112 q 212 1231 212 1178 z "},"Å":{"ha":1007,"x_min":35,"x_max":955,"o":"m 237 0 l 35 0 q 73 93 54 41 q 123 241 92 144 l 374 990 l 616 990 l 867 241 q 918 93 899 146 q 955 0 937 41 l 756 0 l 681 241 l 312 241 l 237 0 m 635 387 l 495 833 l 357 387 l 635 387 m 564 1241 q 546 1289 564 1272 q 496 1305 527 1305 q 447 1289 466 1305 q 429 1241 429 1272 q 447 1194 429 1211 q 496 1177 466 1177 q 546 1194 527 1177 q 564 1241 564 1211 m 330 1241 q 378 1358 330 1312 q 496 1404 425 1404 q 615 1358 568 1404 q 663 1241 663 1312 q 615 1124 663 1170 q 496 1078 568 1078 q 378 1124 425 1078 q 330 1241 330 1170 z "},"Ç":{"ha":939,"x_min":61,"x_max":858,"o":"m 824 275 l 858 95 q 758 37 817 62 q 634 -3 699 12 q 512 -17 570 -17 q 271 44 372 -17 q 115 217 170 105 q 61 481 61 329 q 99 711 61 612 q 202 876 136 810 q 353 974 268 941 q 532 1007 438 1007 q 700 986 626 1007 q 848 912 774 965 l 800 749 q 672 822 736 800 q 543 844 609 844 q 395 806 460 844 q 292 690 330 767 q 254 498 254 614 q 329 242 254 335 q 536 149 404 149 q 690 183 612 149 q 824 275 768 218 m 448 34 l 546 34 l 546 -71 q 560 -69 553 -70 q 578 -68 568 -68 q 661 -100 630 -68 q 692 -183 692 -133 q 665 -263 692 -229 q 597 -314 638 -296 q 512 -332 556 -332 q 457 -325 486 -332 q 407 -305 428 -317 l 414 -217 q 495 -241 444 -241 q 551 -226 526 -241 q 576 -183 576 -211 q 558 -147 576 -161 q 515 -132 541 -132 q 477 -136 496 -132 q 448 -146 458 -140 l 448 34 z "},"É":{"ha":822,"x_min":102,"x_max":747,"o":"m 305 593 l 676 593 l 676 441 l 305 441 l 305 156 l 480 156 q 643 158 577 156 q 747 166 708 159 l 747 0 l 102 0 q 111 118 109 41 q 112 295 112 195 l 112 695 q 111 872 112 795 q 102 990 109 949 l 727 990 l 727 834 l 305 834 l 305 593 m 461 1377 l 699 1377 l 427 1105 l 264 1105 l 461 1377 z "},"Ñ":{"ha":1048,"x_min":102,"x_max":929,"o":"m 151 888 l 288 990 l 880 102 l 743 0 l 151 888 m 743 0 l 743 990 l 929 990 q 921 872 922 949 q 919 695 919 795 l 919 0 l 743 0 m 288 990 l 288 0 l 102 0 q 111 118 109 41 q 112 295 112 195 l 112 695 q 111 872 112 795 q 102 990 109 949 l 288 990 m 349 1099 l 244 1099 q 264 1199 244 1153 q 318 1274 283 1245 q 397 1302 352 1302 q 465 1292 430 1302 q 539 1266 499 1281 q 602 1243 579 1251 q 650 1234 625 1234 q 686 1254 673 1234 q 702 1295 698 1274 l 807 1295 q 763 1149 807 1207 q 650 1092 720 1092 q 590 1101 619 1092 q 526 1125 562 1110 q 401 1160 444 1160 q 365 1140 376 1160 q 349 1099 353 1120 z "},"Ö":{"ha":1017,"x_min":61,"x_max":939,"o":"m 746 485 q 715 675 746 595 q 629 798 684 755 q 502 841 574 841 q 375 800 431 841 q 287 684 319 759 q 254 505 254 608 q 286 316 254 396 q 373 193 317 236 q 502 149 429 149 q 625 189 570 149 q 713 304 680 229 q 746 485 746 380 m 939 502 q 903 283 939 380 q 804 120 867 187 q 662 18 742 54 q 495 -17 582 -17 q 279 42 378 -17 q 121 213 180 100 q 61 488 61 326 q 97 706 61 610 q 197 869 134 802 q 340 972 260 937 q 509 1007 420 1007 q 723 948 625 1007 q 880 777 821 890 q 939 502 939 665 m 549 1231 q 583 1316 549 1283 q 668 1350 616 1350 q 753 1316 720 1350 q 787 1231 787 1283 q 753 1145 787 1178 q 668 1112 720 1112 q 583 1145 616 1112 q 549 1231 549 1178 m 217 1231 q 251 1316 217 1283 q 336 1350 284 1350 q 421 1316 388 1350 q 454 1231 454 1283 q 421 1145 454 1178 q 336 1112 388 1112 q 251 1145 284 1112 q 217 1231 217 1178 z "},"Ü":{"ha":1010,"x_min":102,"x_max":892,"o":"m 688 990 l 892 990 q 883 875 885 949 q 882 695 882 800 l 882 349 q 785 83 882 184 q 498 -17 689 -17 q 209 83 306 -17 q 112 349 112 184 l 112 695 q 111 872 112 795 q 102 990 109 949 l 305 990 l 305 380 q 322 252 305 307 q 381 168 339 198 q 498 138 423 138 q 613 168 572 138 q 671 252 654 198 q 688 380 688 307 l 688 990 m 544 1231 q 577 1316 544 1283 q 663 1350 611 1350 q 748 1316 715 1350 q 781 1231 781 1283 q 748 1145 781 1178 q 663 1112 715 1112 q 577 1145 611 1112 q 544 1231 544 1178 m 212 1231 q 245 1316 212 1283 q 330 1350 279 1350 q 416 1316 382 1350 q 449 1231 449 1283 q 416 1145 449 1178 q 330 1112 382 1112 q 245 1145 279 1112 q 212 1231 212 1178 z "},"ç":{"ha":693,"x_min":61,"x_max":632,"o":"m 625 657 l 595 493 q 518 541 560 525 q 418 556 476 556 q 297 497 342 556 q 251 339 251 438 q 294 193 251 250 q 418 136 337 136 q 524 155 479 136 q 612 210 568 175 l 632 47 q 527 0 586 16 q 392 -17 468 -17 q 226 24 301 -17 q 106 143 151 64 q 61 332 61 221 q 105 523 61 438 q 228 656 149 607 q 415 705 308 705 q 535 691 482 705 q 625 657 588 677 m 319 35 l 417 35 l 417 -71 q 431 -68 424 -69 q 450 -67 439 -67 q 532 -100 501 -67 q 563 -182 563 -132 q 536 -262 563 -229 q 468 -314 509 -296 q 383 -332 427 -332 q 328 -324 357 -332 q 278 -304 299 -316 l 285 -216 q 366 -240 315 -240 q 422 -225 397 -240 q 448 -182 448 -210 q 430 -146 448 -161 q 387 -132 412 -132 q 349 -136 368 -132 q 319 -145 330 -140 l 319 35 z "},"é":{"ha":753,"x_min":61,"x_max":688,"o":"m 685 305 l 164 305 l 164 427 l 512 427 q 481 531 512 498 q 390 563 450 563 q 281 512 317 563 q 245 342 245 462 q 289 185 245 235 q 416 136 332 136 q 547 151 483 136 q 674 204 611 167 l 688 51 q 547 -2 615 14 q 399 -17 479 -17 q 233 23 310 -17 q 108 142 155 63 q 61 336 61 220 q 102 531 61 448 q 219 660 143 614 q 399 705 295 705 q 540 676 485 705 q 627 597 595 646 q 671 486 659 547 q 684 361 684 425 q 685 333 684 351 q 685 305 685 315 m 441 1085 l 678 1085 l 407 814 l 244 814 l 441 1085 z "},"è":{"ha":753,"x_min":61,"x_max":688,"o":"m 685 305 l 164 305 l 164 427 l 512 427 q 481 531 512 498 q 390 563 450 563 q 281 512 317 563 q 245 342 245 462 q 289 185 245 235 q 416 136 332 136 q 547 151 483 136 q 674 204 611 167 l 688 51 q 547 -2 615 14 q 399 -17 479 -17 q 233 23 310 -17 q 108 142 155 63 q 61 336 61 220 q 102 531 61 448 q 219 660 143 614 q 399 705 295 705 q 540 676 485 705 q 627 597 595 646 q 671 486 659 547 q 684 361 684 425 q 685 333 684 351 q 685 305 685 315 m 109 1085 l 346 1085 l 543 814 l 380 814 l 109 1085 z "},"ê":{"ha":753,"x_min":61,"x_max":692,"o":"m 685 305 l 164 305 l 164 427 l 512 427 q 481 531 512 498 q 390 563 450 563 q 281 512 317 563 q 245 342 245 462 q 289 185 245 235 q 416 136 332 136 q 547 151 483 136 q 674 204 611 167 l 688 51 q 547 -2 615 14 q 399 -17 479 -17 q 233 23 310 -17 q 108 142 155 63 q 61 336 61 220 q 102 531 61 448 q 219 660 143 614 q 399 705 295 705 q 540 676 485 705 q 627 597 595 646 q 671 486 659 547 q 684 361 684 425 q 685 333 684 351 q 685 305 685 315 m 692 814 l 529 814 l 393 970 l 258 814 l 95 814 l 292 1085 l 495 1085 l 692 814 z "},"ë":{"ha":753,"x_min":61,"x_max":688,"o":"m 685 305 l 164 305 l 164 427 l 512 427 q 481 531 512 498 q 390 563 450 563 q 281 512 317 563 q 245 342 245 462 q 289 185 245 235 q 416 136 332 136 q 547 151 483 136 q 674 204 611 167 l 688 51 q 547 -2 615 14 q 399 -17 479 -17 q 233 23 310 -17 q 108 142 155 63 q 61 336 61 220 q 102 531 61 448 q 219 660 143 614 q 399 705 295 705 q 540 676 485 705 q 627 597 595 646 q 671 486 659 547 q 684 361 684 425 q 685 333 684 351 q 685 305 685 315 m 441 939 q 474 1025 441 991 q 559 1058 508 1058 q 645 1025 612 1058 q 678 939 678 991 q 645 853 678 886 q 559 821 612 821 q 474 853 508 821 q 441 939 441 886 m 109 939 q 142 1025 109 991 q 227 1058 176 1058 q 313 1025 279 1058 q 346 939 346 991 q 313 853 346 886 q 227 821 279 821 q 142 853 176 821 q 109 939 109 886 z "},"í":{"ha":437,"x_min":68,"x_max":502,"o":"m 112 692 l 312 692 q 312 583 312 641 q 312 472 312 526 q 312 378 312 418 q 312 322 312 338 q 314 217 312 279 q 318 96 315 155 q 326 0 321 37 l 122 0 q 122 115 122 49 q 122 246 122 180 q 122 359 122 311 q 120 548 122 458 q 112 692 119 638 m 264 1085 l 502 1085 l 231 814 l 68 814 l 264 1085 z "},"ì":{"ha":437,"x_min":-68,"x_max":366,"o":"m 112 692 l 312 692 q 312 583 312 641 q 312 472 312 526 q 312 378 312 418 q 312 322 312 338 q 314 217 312 279 q 318 96 315 155 q 326 0 321 37 l 122 0 q 122 115 122 49 q 122 246 122 180 q 122 359 122 311 q 120 548 122 458 q 112 692 119 638 m -68 1085 l 170 1085 l 366 814 l 203 814 l -68 1085 z "},"î":{"ha":437,"x_min":-81,"x_max":515,"o":"m 112 692 l 312 692 q 312 583 312 641 q 312 472 312 526 q 312 378 312 418 q 312 322 312 338 q 314 217 312 279 q 318 96 315 155 q 326 0 321 37 l 122 0 q 122 115 122 49 q 122 246 122 180 q 122 359 122 311 q 120 548 122 458 q 112 692 119 638 m 515 814 l 353 814 l 217 970 l 81 814 l -81 814 l 115 1085 l 319 1085 l 515 814 z "},"ï":{"ha":437,"x_min":-68,"x_max":502,"o":"m 112 692 l 312 692 q 312 583 312 641 q 312 472 312 526 q 312 378 312 418 q 312 322 312 338 q 314 217 312 279 q 318 96 315 155 q 326 0 321 37 l 122 0 q 122 115 122 49 q 122 246 122 180 q 122 359 122 311 q 120 548 122 458 q 112 692 119 638 m 264 939 q 298 1025 264 991 q 383 1058 332 1058 q 469 1025 435 1058 q 502 939 502 991 q 469 853 502 886 q 383 821 435 821 q 298 853 332 821 q 264 939 264 886 m -68 939 q -34 1025 -68 991 q 51 1058 -1 1058 q 136 1025 103 1058 q 170 939 170 991 q 136 853 170 886 q 51 821 103 821 q -34 853 -1 821 q -68 939 -68 886 z "},"ñ":{"ha":844,"x_min":64,"x_max":760,"o":"m 760 0 l 570 0 q 570 29 570 0 q 570 104 570 58 q 570 202 570 151 q 570 299 570 254 q 570 373 570 345 q 544 503 570 467 q 465 539 519 539 q 390 517 426 539 q 327 462 354 495 q 288 393 300 429 l 288 0 l 98 0 q 98 30 98 0 q 98 109 98 60 q 98 213 98 157 q 98 324 98 270 q 98 417 98 378 q 87 587 98 517 q 64 692 76 656 l 251 692 q 261 654 256 678 q 271 606 267 631 q 278 566 276 582 q 405 673 342 640 q 539 705 467 705 q 701 634 642 705 q 760 424 760 564 q 760 337 760 390 q 760 227 760 285 q 760 117 760 168 q 760 33 760 65 q 760 0 760 0 m 251 807 l 146 807 q 165 907 146 861 q 219 982 185 954 q 298 1010 254 1010 q 366 1000 332 1010 q 441 975 401 989 q 504 951 481 960 q 551 943 527 943 q 587 963 575 943 q 604 1004 600 983 l 709 1004 q 665 858 709 916 q 552 800 621 800 q 492 809 521 800 q 427 833 463 819 q 303 868 345 868 q 266 848 278 868 q 251 807 254 829 z "},"ó":{"ha":787,"x_min":61,"x_max":726,"o":"m 61 344 q 107 541 61 460 q 231 664 154 622 q 400 705 309 705 q 570 664 496 705 q 684 541 643 622 q 726 344 726 460 q 679 147 726 227 q 555 25 633 66 q 387 -17 478 -17 q 218 25 291 -17 q 103 147 144 66 q 61 344 61 227 m 251 344 q 287 191 251 247 q 393 136 323 136 q 497 191 459 136 q 536 344 536 247 q 499 497 536 441 q 393 553 463 553 q 289 497 328 553 q 251 344 251 441 m 441 1085 l 678 1085 l 407 814 l 244 814 l 441 1085 z "},"ò":{"ha":787,"x_min":61,"x_max":726,"o":"m 61 344 q 107 541 61 460 q 231 664 154 622 q 400 705 309 705 q 570 664 496 705 q 684 541 643 622 q 726 344 726 460 q 679 147 726 227 q 555 25 633 66 q 387 -17 478 -17 q 218 25 291 -17 q 103 147 144 66 q 61 344 61 227 m 251 344 q 287 191 251 247 q 393 136 323 136 q 497 191 459 136 q 536 344 536 247 q 499 497 536 441 q 393 553 463 553 q 289 497 328 553 q 251 344 251 441 m 109 1085 l 346 1085 l 543 814 l 380 814 l 109 1085 z "},"ô":{"ha":787,"x_min":61,"x_max":726,"o":"m 61 344 q 107 541 61 460 q 231 664 154 622 q 400 705 309 705 q 570 664 496 705 q 684 541 643 622 q 726 344 726 460 q 679 147 726 227 q 555 25 633 66 q 387 -17 478 -17 q 218 25 291 -17 q 103 147 144 66 q 61 344 61 227 m 251 344 q 287 191 251 247 q 393 136 323 136 q 497 191 459 136 q 536 344 536 247 q 499 497 536 441 q 393 553 463 553 q 289 497 328 553 q 251 344 251 441 m 692 814 l 529 814 l 393 970 l 258 814 l 95 814 l 292 1085 l 495 1085 l 692 814 z "},"ö":{"ha":787,"x_min":61,"x_max":726,"o":"m 61 344 q 107 541 61 460 q 231 664 154 622 q 400 705 309 705 q 570 664 496 705 q 684 541 643 622 q 726 344 726 460 q 679 147 726 227 q 555 25 633 66 q 387 -17 478 -17 q 218 25 291 -17 q 103 147 144 66 q 61 344 61 227 m 251 344 q 287 191 251 247 q 393 136 323 136 q 497 191 459 136 q 536 344 536 247 q 499 497 536 441 q 393 553 463 553 q 289 497 328 553 q 251 344 251 441 m 441 939 q 474 1025 441 991 q 559 1058 508 1058 q 645 1025 612 1058 q 678 939 678 991 q 645 853 678 886 q 559 821 612 821 q 474 853 508 821 q 441 939 441 886 m 109 939 q 142 1025 109 991 q 227 1058 176 1058 q 313 1025 279 1058 q 346 939 346 991 q 313 853 346 886 q 227 821 279 821 q 142 853 176 821 q 109 939 109 886 z "},"õ":{"ha":787,"x_min":61,"x_max":726,"o":"m 61 344 q 107 541 61 460 q 231 664 154 622 q 400 705 309 705 q 570 664 496 705 q 684 541 643 622 q 726 344 726 460 q 679 147 726 227 q 555 25 633 66 q 387 -17 478 -17 q 218 25 291 -17 q 103 147 144 66 q 61 344 61 227 m 251 344 q 287 191 251 247 q 393 136 323 136 q 497 191 459 136 q 536 344 536 247 q 499 497 536 441 q 393 553 463 553 q 289 497 328 553 q 251 344 251 441 m 224 807 l 119 807 q 138 907 119 861 q 192 982 158 954 q 271 1010 227 1010 q 339 1000 304 1010 q 414 975 374 989 q 477 951 454 960 q 524 943 500 943 q 560 963 548 943 q 576 1004 572 983 l 682 1004 q 638 858 682 916 q 525 800 594 800 q 465 809 494 800 q 400 833 436 819 q 276 868 318 868 q 239 848 251 868 q 224 807 227 829 z "},"ú":{"ha":844,"x_min":85,"x_max":787,"o":"m 787 0 l 607 0 q 586 56 597 22 q 570 125 575 90 q 445 19 510 56 q 311 -17 380 -17 q 98 275 98 -17 q 98 309 98 279 q 98 375 98 338 q 98 441 98 412 q 98 475 98 470 q 96 585 98 539 q 85 692 94 631 l 288 692 l 288 315 q 308 181 288 223 q 380 140 328 140 q 446 163 411 140 q 510 219 480 186 q 553 283 539 252 l 553 475 q 552 553 553 519 q 548 618 551 586 q 539 692 545 650 l 743 692 l 743 305 q 754 132 743 207 q 787 0 766 57 m 465 1085 l 702 1085 l 431 814 l 268 814 l 465 1085 z "},"ù":{"ha":844,"x_min":85,"x_max":787,"o":"m 787 0 l 607 0 q 586 56 597 22 q 570 125 575 90 q 445 19 510 56 q 311 -17 380 -17 q 98 275 98 -17 q 98 309 98 279 q 98 375 98 338 q 98 441 98 412 q 98 475 98 470 q 96 585 98 539 q 85 692 94 631 l 288 692 l 288 315 q 308 181 288 223 q 380 140 328 140 q 446 163 411 140 q 510 219 480 186 q 553 283 539 252 l 553 475 q 552 553 553 519 q 548 618 551 586 q 539 692 545 650 l 743 692 l 743 305 q 754 132 743 207 q 787 0 766 57 m 132 1085 l 370 1085 l 566 814 l 404 814 l 132 1085 z "},"û":{"ha":844,"x_min":85,"x_max":787,"o":"m 787 0 l 607 0 q 586 56 597 22 q 570 125 575 90 q 445 19 510 56 q 311 -17 380 -17 q 98 275 98 -17 q 98 309 98 279 q 98 375 98 338 q 98 441 98 412 q 98 475 98 470 q 96 585 98 539 q 85 692 94 631 l 288 692 l 288 315 q 308 181 288 223 q 380 140 328 140 q 446 163 411 140 q 510 219 480 186 q 553 283 539 252 l 553 475 q 552 553 553 519 q 548 618 551 586 q 539 692 545 650 l 743 692 l 743 305 q 754 132 743 207 q 787 0 766 57 m 715 814 l 553 814 l 417 970 l 281 814 l 119 814 l 315 1085 l 519 1085 l 715 814 z "},"ü":{"ha":844,"x_min":85,"x_max":787,"o":"m 787 0 l 607 0 q 586 56 597 22 q 570 125 575 90 q 445 19 510 56 q 311 -17 380 -17 q 98 275 98 -17 q 98 309 98 279 q 98 375 98 338 q 98 441 98 412 q 98 475 98 470 q 96 585 98 539 q 85 692 94 631 l 288 692 l 288 315 q 308 181 288 223 q 380 140 328 140 q 446 163 411 140 q 510 219 480 186 q 553 283 539 252 l 553 475 q 552 553 553 519 q 548 618 551 586 q 539 692 545 650 l 743 692 l 743 305 q 754 132 743 207 q 787 0 766 57 m 465 939 q 498 1025 465 991 q 583 1058 532 1058 q 669 1025 635 1058 q 702 939 702 991 q 669 853 702 886 q 583 821 635 821 q 498 853 532 821 q 465 939 465 886 m 132 939 q 166 1025 132 991 q 251 1058 199 1058 q 336 1025 303 1058 q 370 939 370 991 q 336 853 370 886 q 251 821 303 821 q 166 853 199 821 q 132 939 132 886 z "},"†":{"ha":695,"x_min":20,"x_max":675,"o":"m 424 566 q 426 240 424 419 q 437 -159 427 62 l 258 -159 q 270 240 268 62 q 271 566 271 419 q 271 710 271 631 q 267 870 270 789 q 258 1024 264 952 l 437 1024 q 428 870 431 952 q 425 710 425 789 q 424 566 424 631 m 675 749 l 675 590 q 548 595 603 593 q 445 596 492 596 q 349 597 398 597 q 202 596 276 597 q 20 590 129 595 l 20 749 q 202 744 129 745 q 349 743 276 743 q 459 743 414 743 q 554 745 505 743 q 675 749 603 747 z "},"°":{"ha":485,"x_min":41,"x_max":444,"o":"m 342 807 q 314 877 342 849 q 244 905 286 905 q 173 877 203 905 q 142 807 142 849 q 173 735 142 766 q 244 705 203 705 q 314 735 286 705 q 342 807 342 766 m 41 807 q 68 910 41 865 q 141 981 95 955 q 244 1007 187 1007 q 347 981 302 1007 q 418 910 392 955 q 444 807 444 865 q 418 704 444 750 q 347 631 392 658 q 244 604 302 604 q 141 631 187 604 q 68 704 95 658 q 41 807 41 750 z "},"¢":{"ha":739,"x_min":102,"x_max":644,"o":"m 638 675 l 610 512 q 529 557 566 542 q 441 572 492 572 q 328 519 374 572 q 282 372 282 466 q 326 235 282 288 q 441 182 369 182 q 542 201 500 182 q 625 252 583 219 l 644 95 q 542 50 595 65 q 416 34 488 34 q 258 73 330 34 q 144 186 186 112 q 102 366 102 260 q 143 547 102 467 q 260 673 185 627 q 438 720 336 720 q 552 707 502 720 q 638 675 603 693 m 382 895 l 511 895 l 511 -142 l 382 -142 l 382 895 z "},"£":{"ha":841,"x_min":102,"x_max":728,"o":"m 728 0 l 102 0 l 102 129 q 173 218 142 163 q 203 340 203 273 q 188 522 203 434 q 174 695 174 610 q 256 929 174 851 q 482 1007 339 1007 q 577 995 525 1007 q 664 960 630 982 l 633 810 q 560 840 605 829 q 482 851 515 851 q 398 820 431 851 q 366 715 366 789 q 379 551 366 636 q 393 390 393 466 q 378 260 393 317 q 325 156 364 203 l 458 156 q 620 158 549 156 q 728 166 691 159 l 728 0 m 102 454 l 102 590 l 578 590 l 578 454 l 102 454 z "},"§":{"ha":743,"x_min":68,"x_max":651,"o":"m 68 -241 l 105 -75 q 228 -142 155 -117 q 359 -167 300 -167 q 436 -143 401 -167 q 471 -66 471 -119 q 428 24 471 -22 q 293 130 386 70 q 127 269 180 203 q 75 400 75 334 q 91 481 75 439 q 143 561 107 524 q 240 622 180 598 q 388 645 300 645 l 388 490 q 283 468 316 490 q 250 407 250 447 q 279 351 250 381 q 355 287 308 321 q 454 218 402 254 q 563 134 519 174 q 629 48 606 94 q 651 -63 651 1 q 612 -193 651 -135 q 506 -285 572 -251 q 356 -319 439 -319 q 189 -295 265 -319 q 68 -241 112 -272 m 614 953 l 587 791 q 491 833 549 810 q 363 855 433 855 q 279 833 303 855 q 254 790 254 810 q 303 719 254 755 q 454 620 352 683 q 604 502 557 556 q 651 380 651 448 q 620 258 651 315 q 518 164 588 200 q 331 129 448 129 l 331 281 q 475 370 475 281 q 439 432 475 399 q 307 519 404 465 q 133 648 191 585 q 75 783 75 711 q 88 846 75 808 q 135 920 102 883 q 225 982 168 957 q 370 1007 282 1007 q 513 990 452 1007 q 614 953 574 972 z "},"•":{"ha":637,"x_min":142,"x_max":495,"o":"m 142 509 q 193 635 142 585 q 319 685 243 685 q 445 635 395 685 q 495 509 495 585 q 445 382 495 433 q 319 332 395 332 q 193 382 243 332 q 142 509 142 433 z "},"¶":{"ha":749,"x_min":34,"x_max":709,"o":"m 709 892 l 631 892 l 631 0 l 519 0 l 519 892 l 410 892 l 410 0 l 298 0 l 298 505 q 213 517 258 505 q 126 556 167 528 q 60 630 85 583 q 34 748 34 677 q 60 866 34 819 q 128 940 86 913 q 218 979 170 967 q 312 990 267 990 l 709 990 l 709 892 z "},"ß":{"ha":964,"x_min":102,"x_max":923,"o":"m 420 46 l 454 199 q 529 155 481 174 q 624 136 577 136 q 707 157 674 136 q 740 216 740 178 q 714 282 740 256 q 650 330 689 308 q 572 377 612 352 q 485 453 523 408 q 448 573 448 497 q 469 655 448 623 q 522 710 490 688 q 586 753 554 733 q 639 795 618 772 q 661 850 661 817 q 638 901 661 879 q 581 935 615 923 q 514 947 547 947 q 365 898 417 947 q 312 773 312 849 l 312 0 l 102 0 q 118 145 113 54 q 122 335 122 237 l 122 760 q 153 916 122 851 q 238 1021 184 980 q 358 1080 291 1061 q 495 1099 425 1099 q 688 1064 611 1099 q 805 974 766 1029 q 844 857 844 919 q 822 763 844 798 q 769 705 801 727 q 706 666 738 683 q 653 630 674 650 q 631 580 631 611 q 651 526 631 549 q 701 485 670 503 q 766 446 732 466 q 840 395 804 423 q 900 325 876 366 q 923 222 923 284 q 884 94 923 147 q 778 12 846 40 q 622 -17 709 -17 q 508 2 566 -17 q 420 46 450 22 z "},"®":{"ha":1048,"x_min":31,"x_max":1017,"o":"m 526 898 q 340 852 427 898 q 198 716 253 806 q 144 495 144 627 q 198 274 144 363 q 340 138 253 184 q 526 92 427 92 q 709 138 623 92 q 850 274 795 184 q 904 495 904 363 q 850 716 904 627 q 709 852 795 806 q 526 898 623 898 m 526 1007 q 703 975 616 1007 q 862 878 791 943 q 975 718 932 814 q 1017 495 1017 623 q 975 269 1017 366 q 862 110 932 173 q 703 15 791 46 q 526 -17 616 -17 q 343 15 431 -17 q 184 110 254 46 q 72 269 113 173 q 31 495 31 366 q 72 718 31 623 q 184 878 113 814 q 343 975 254 943 q 526 1007 431 1007 m 422 439 l 422 379 q 422 273 422 319 q 427 203 423 227 l 300 203 q 306 274 305 228 q 307 379 307 319 l 307 606 q 306 716 307 665 q 300 792 305 768 q 331 793 300 792 q 409 795 362 794 q 502 796 455 796 q 654 755 595 796 q 713 622 713 715 q 678 512 713 551 q 591 455 644 474 q 634 394 608 432 q 688 315 660 355 q 738 244 715 275 q 768 203 760 213 l 626 203 l 478 439 l 422 439 m 423 700 l 423 529 l 484 529 q 564 549 534 529 q 594 620 594 568 q 567 683 594 665 q 487 702 539 702 q 452 702 465 702 q 423 700 439 701 z "},"©":{"ha":1041,"x_min":31,"x_max":1010,"o":"m 519 898 q 337 852 422 898 q 197 716 251 806 q 144 495 144 627 q 197 274 144 363 q 337 138 251 184 q 519 92 422 92 q 702 138 616 92 q 843 274 789 184 q 897 495 897 363 q 843 716 897 627 q 702 852 789 806 q 519 898 616 898 m 519 1007 q 696 975 609 1007 q 855 878 784 943 q 968 718 926 814 q 1010 495 1010 623 q 968 269 1010 366 q 855 110 926 173 q 696 15 784 46 q 519 -17 609 -17 q 338 15 426 -17 q 181 110 251 46 q 71 269 112 173 q 31 495 31 366 q 71 718 31 623 q 181 878 112 814 q 338 975 251 943 q 519 1007 426 1007 m 691 368 l 711 254 q 617 205 675 224 q 510 187 560 187 q 318 268 388 187 q 248 486 248 349 q 286 661 248 591 q 386 766 323 730 q 522 801 449 801 q 620 789 576 801 q 705 745 663 777 l 678 640 q 603 683 640 670 q 528 696 566 696 q 413 647 458 696 q 367 496 367 597 q 409 347 367 401 q 524 294 450 294 q 614 314 568 294 q 691 368 659 334 z "},"™":{"ha":1134,"x_min":34,"x_max":1059,"o":"m 958 445 l 949 867 l 829 445 l 720 445 l 600 867 l 589 445 l 488 445 q 494 524 491 465 q 502 662 498 582 q 509 827 505 741 q 515 989 512 913 l 647 989 l 774 548 l 903 989 l 1033 989 q 1039 827 1036 913 q 1045 662 1042 741 q 1053 524 1049 582 q 1059 445 1057 465 l 958 445 m 34 989 l 472 989 l 472 897 q 431 903 452 901 q 386 904 409 904 l 305 904 l 305 600 q 307 507 305 547 q 313 445 308 467 l 192 445 q 198 507 197 467 q 199 600 199 547 l 199 904 l 120 904 q 76 903 98 904 q 34 897 54 901 l 34 989 z "},"´":{"ha":434,"x_min":0,"x_max":434,"o":"m 197 1085 l 434 1085 l 163 814 l 0 814 l 197 1085 z "},"¨":{"ha":570,"x_min":0,"x_max":570,"o":"m 332 939 q 366 1025 332 991 q 451 1058 399 1058 q 536 1025 503 1058 q 570 939 570 991 q 536 853 570 886 q 451 821 503 821 q 366 853 399 821 q 332 939 332 886 m 0 939 q 34 1025 0 991 q 119 1058 67 1058 q 204 1025 171 1058 q 237 939 237 991 q 204 853 237 886 q 119 821 171 821 q 34 853 67 821 q 0 939 0 886 z "},"≠":{"ha":814,"x_min":81,"x_max":732,"o":"m 81 298 l 81 441 l 732 441 l 732 298 l 81 298 m 81 549 l 81 692 l 732 692 l 732 549 l 81 549 m 553 824 l 702 824 l 251 136 l 102 136 l 553 824 z "},"Æ":{"ha":1242,"x_min":7,"x_max":1163,"o":"m 790 156 l 897 156 q 1059 158 994 156 q 1163 166 1124 159 l 1163 0 l 587 0 q 595 97 593 35 q 597 241 597 159 l 321 241 l 209 0 l 7 0 q 41 59 24 28 q 80 134 58 90 q 133 241 102 177 l 499 990 l 1143 990 l 1143 834 l 790 834 l 790 593 l 1092 593 l 1092 441 l 790 441 l 790 156 m 597 387 l 597 834 l 389 387 l 597 387 z "},"Ø":{"ha":1017,"x_min":61,"x_max":939,"o":"m 939 502 q 903 283 939 380 q 804 120 867 187 q 662 18 742 54 q 495 -17 582 -17 q 279 42 378 -17 q 121 213 180 100 q 61 488 61 326 q 97 706 61 610 q 197 869 134 802 q 340 972 260 937 q 509 1007 420 1007 q 723 948 625 1007 q 880 777 821 890 q 939 502 939 665 m 746 485 q 715 675 746 595 q 629 798 684 755 q 502 841 574 841 q 375 800 431 841 q 287 684 319 759 q 254 505 254 608 q 286 316 254 396 q 373 193 317 236 q 502 149 429 149 q 625 189 570 149 q 713 304 680 229 q 746 485 746 380 m 726 1040 l 882 1040 l 272 -54 l 116 -54 l 726 1040 z "},"∞":{"ha":814,"x_min":20,"x_max":793,"o":"m 353 495 q 281 564 318 545 q 214 583 244 583 q 152 557 176 583 q 129 495 129 531 q 152 437 129 465 q 214 410 176 410 q 284 432 244 410 q 353 495 323 454 m 461 495 q 533 426 496 446 q 600 407 570 407 q 662 433 638 407 q 685 495 685 460 q 662 553 685 526 q 600 580 638 580 q 530 558 570 580 q 461 495 490 537 m 793 495 q 739 353 793 404 q 607 302 685 302 q 407 393 503 302 q 312 325 359 348 q 207 302 265 302 q 71 358 121 302 q 20 495 20 414 q 75 639 20 587 q 207 692 129 692 q 312 665 265 692 q 407 590 359 638 q 505 664 456 637 q 607 692 553 692 q 744 634 694 692 q 793 495 793 576 z "},"±":{"ha":814,"x_min":105,"x_max":709,"o":"m 709 546 l 478 546 l 478 319 l 336 319 l 336 546 l 105 546 l 105 688 l 336 688 l 336 926 l 478 926 l 478 688 l 709 688 l 709 546 m 709 115 l 105 115 l 105 251 l 709 251 l 709 115 z "},"≤":{"ha":814,"x_min":68,"x_max":732,"o":"m 68 -14 l 68 122 l 732 122 l 732 -14 l 68 -14 m 732 342 l 732 186 l 68 444 l 68 573 l 732 838 l 732 682 l 264 509 l 732 342 z "},"≥":{"ha":814,"x_min":81,"x_max":746,"o":"m 81 186 l 81 342 l 549 509 l 81 682 l 81 838 l 746 573 l 746 444 l 81 186 m 81 -14 l 81 122 l 746 122 l 746 -14 l 81 -14 z "},"¥":{"ha":841,"x_min":3,"x_max":838,"o":"m 376 380 l 176 722 q 99 852 137 789 q 3 990 60 914 l 229 990 l 517 444 l 376 380 m 465 380 l 334 444 l 619 990 l 838 990 q 769 889 798 933 q 718 806 741 845 q 668 722 694 766 l 465 380 m 324 471 l 517 471 l 517 295 q 519 118 517 195 q 528 0 520 41 l 314 0 q 323 118 321 41 q 324 295 324 195 l 324 471 m 95 240 l 95 382 l 746 382 l 746 240 l 95 240 m 95 454 l 95 597 l 746 597 l 746 454 l 95 454 z "},"µ":{"ha":844,"x_min":85,"x_max":787,"o":"m 787 0 l 607 0 q 586 56 597 22 q 570 125 575 90 q 480 19 528 56 q 392 -17 431 -17 q 337 -11 363 -17 q 288 17 312 -5 l 288 -102 q 292 -236 288 -183 q 305 -332 296 -289 l 98 -332 l 98 475 q 96 585 98 539 q 85 692 94 631 l 288 692 q 288 560 288 633 q 288 420 288 487 q 288 315 288 353 q 314 181 288 223 q 407 140 339 140 q 462 163 433 140 q 517 219 492 186 q 553 283 542 252 l 553 475 q 552 553 553 519 q 548 618 551 586 q 539 692 545 650 l 743 692 q 743 562 743 635 q 743 420 743 489 q 743 305 743 351 q 754 132 743 207 q 787 0 766 57 z "},"∂":{"ha":761,"x_min":41,"x_max":720,"o":"m 170 793 l 139 936 q 219 971 170 955 q 322 987 269 987 q 522 949 444 987 q 643 849 600 911 q 703 713 686 787 q 720 570 720 640 q 695 361 720 465 q 618 172 669 258 q 490 35 567 86 q 309 -17 412 -17 q 164 26 224 -17 q 72 139 104 69 q 41 288 41 209 q 70 429 41 370 q 143 528 98 489 q 237 585 188 566 q 326 604 286 604 q 445 588 389 604 q 553 529 500 572 q 556 565 555 547 q 557 600 557 583 q 531 716 557 661 q 454 806 505 771 q 326 841 402 841 q 251 830 285 841 q 170 793 216 819 m 539 401 q 469 448 516 424 q 356 471 422 471 q 275 445 309 471 q 223 376 241 419 q 205 285 205 334 q 219 219 205 254 q 260 158 233 183 q 329 133 288 133 q 464 209 410 133 q 539 401 517 286 z "},"∑":{"ha":848,"x_min":44,"x_max":790,"o":"m 520 506 l 268 156 l 495 156 q 672 159 595 156 q 790 170 749 163 l 790 0 l 44 0 l 44 109 l 314 505 l 64 871 l 64 990 l 749 990 l 749 821 q 635 832 705 829 q 454 834 565 834 l 296 834 l 520 506 z "},"∏":{"ha":1007,"x_min":102,"x_max":888,"o":"m 685 838 l 305 838 l 305 0 l 102 0 q 111 116 109 41 q 112 292 112 191 l 112 695 q 111 872 112 795 q 102 990 109 949 l 888 990 q 880 872 881 949 q 878 695 878 795 l 878 292 q 880 116 878 191 q 888 0 881 41 l 685 0 l 685 838 z "},"π":{"ha":951,"x_min":37,"x_max":903,"o":"m 903 556 l 764 556 l 764 254 q 768 149 764 193 q 779 71 771 105 q 802 0 787 36 l 605 0 q 586 66 592 29 q 578 151 581 103 q 575 260 576 195 q 574 397 574 326 l 574 556 l 367 556 l 367 0 l 176 0 l 176 556 l 37 556 l 37 692 l 903 692 l 903 556 z "},"∫":{"ha":719,"x_min":10,"x_max":709,"o":"m 709 1048 l 641 892 q 611 918 632 907 q 570 930 591 930 q 509 910 531 930 q 481 868 487 890 q 464 749 471 827 q 453 572 457 671 q 445 369 448 473 q 437 168 441 264 q 427 -2 433 71 q 414 -109 422 -75 q 352 -235 394 -189 q 259 -300 310 -281 q 163 -319 209 -319 q 75 -306 113 -319 q 10 -275 38 -294 l 64 -122 q 95 -145 75 -138 q 136 -153 114 -153 q 190 -139 161 -153 q 231 -75 219 -126 q 242 30 237 -43 q 251 199 247 102 q 258 401 254 296 q 266 605 262 507 q 277 777 271 703 q 292 885 283 851 q 388 1042 318 985 q 539 1099 457 1099 q 632 1086 588 1099 q 709 1048 677 1074 z "},"ª":{"ha":549,"x_min":48,"x_max":522,"o":"m 520 467 l 403 467 q 391 503 397 478 q 382 554 386 527 q 379 596 379 581 l 379 642 q 331 556 361 600 q 262 485 300 513 q 181 456 224 456 q 86 506 125 456 q 48 648 48 555 q 76 782 48 718 q 162 886 104 846 q 312 926 220 926 q 407 920 359 926 q 492 907 455 915 l 492 702 q 500 561 492 618 q 520 467 507 504 m 366 803 l 366 819 q 339 824 357 821 q 294 827 321 827 q 221 801 248 827 q 183 734 194 775 q 172 648 172 694 q 186 585 172 609 q 220 562 201 562 q 270 591 245 562 q 317 663 296 621 q 352 744 339 705 q 366 803 366 783 m 54 306 l 54 408 l 522 408 l 522 306 l 54 306 z "},"º":{"ha":543,"x_min":45,"x_max":506,"o":"m 45 684 q 77 812 45 760 q 163 892 110 865 q 280 920 217 920 q 443 859 380 920 q 506 684 506 798 q 473 557 506 609 q 388 477 441 505 q 271 450 334 450 q 108 511 172 450 q 45 684 45 571 m 176 684 q 202 586 176 622 q 276 549 227 549 q 348 586 321 549 q 375 684 375 622 q 350 784 375 749 q 276 820 324 820 q 203 784 230 820 q 176 684 176 749 m 46 306 l 46 408 l 504 408 l 504 306 l 46 306 z "},"Ω":{"ha":1101,"x_min":41,"x_max":1043,"o":"m 660 0 l 660 153 q 768 153 710 153 q 881 154 826 153 q 980 157 937 155 q 1043 163 1023 159 l 1043 0 l 660 0 m 767 111 l 660 153 q 742 251 703 194 q 806 378 781 309 q 831 526 831 448 q 757 753 831 665 q 546 841 684 841 q 391 798 456 841 q 292 682 326 754 q 257 522 257 610 q 305 314 257 409 q 424 153 353 219 l 317 111 q 233 176 277 135 q 150 271 189 217 q 88 390 112 326 q 64 526 64 454 q 130 788 64 680 q 307 951 196 895 q 553 1007 418 1007 q 789 955 682 1007 q 960 800 897 902 q 1024 549 1024 698 q 1000 401 1024 469 q 936 279 975 334 q 852 182 897 224 q 767 111 808 140 m 424 153 l 424 0 l 41 0 l 41 163 q 104 157 61 159 q 202 154 147 155 q 316 153 258 153 q 424 153 374 153 z "},"æ":{"ha":1206,"x_min":68,"x_max":1141,"o":"m 1127 208 l 1141 51 q 1000 -2 1068 14 q 852 -17 932 -17 q 693 18 768 -17 q 573 122 619 52 q 557 106 567 115 q 543 92 548 97 q 302 -17 422 -17 q 181 13 234 -17 q 98 90 128 42 q 68 193 68 138 q 92 296 68 245 q 175 383 116 347 q 339 428 234 419 q 401 432 363 430 q 474 436 439 435 q 522 438 509 438 l 522 481 q 479 536 522 519 q 359 553 436 553 q 252 532 306 553 q 139 469 199 511 q 140 515 140 484 q 142 581 141 546 q 146 644 144 616 q 267 686 203 667 q 417 705 331 705 q 544 683 488 705 q 638 621 600 660 q 734 683 680 661 q 852 705 789 705 q 993 676 938 705 q 1080 597 1048 646 q 1125 486 1112 547 q 1138 361 1138 425 l 1138 305 l 700 305 q 750 178 707 217 q 869 139 793 139 q 1000 155 936 139 q 1127 208 1064 170 m 515 312 q 473 310 499 311 q 421 306 447 308 q 380 302 395 304 q 283 273 309 295 q 258 217 258 251 q 284 162 258 184 q 351 139 310 139 q 428 154 390 139 q 509 223 466 170 q 517 232 513 228 q 524 241 521 237 q 515 312 516 279 m 704 427 l 965 427 q 934 531 965 498 q 843 563 903 563 q 750 531 785 563 q 704 427 715 500 z "},"ø":{"ha":787,"x_min":61,"x_max":726,"o":"m 61 344 q 107 541 61 460 q 231 664 154 622 q 400 705 309 705 q 570 664 496 705 q 684 541 643 622 q 726 344 726 460 q 679 147 726 227 q 555 25 633 66 q 387 -17 478 -17 q 218 25 291 -17 q 103 147 144 66 q 61 344 61 227 m 248 344 q 286 191 248 247 q 393 136 323 136 q 499 191 459 136 q 539 344 539 247 q 501 497 539 441 q 393 553 463 553 q 288 497 328 553 q 248 344 248 441 m 541 751 l 683 751 l 250 -52 l 108 -52 l 541 751 z "},"¿":{"ha":739,"x_min":95,"x_max":610,"o":"m 271 397 l 451 397 q 425 207 451 290 q 370 71 399 123 q 315 -10 342 25 q 288 -71 288 -45 q 312 -122 288 -101 q 385 -142 336 -142 q 489 -119 436 -142 q 580 -56 541 -96 l 610 -218 q 549 -260 588 -239 q 463 -295 511 -281 q 366 -309 416 -309 q 165 -246 235 -309 q 95 -92 95 -184 q 107 -30 95 -56 q 141 24 120 -3 q 185 87 161 52 q 253 237 235 164 q 271 397 271 310 m 478 634 q 445 549 478 583 q 359 515 411 515 q 274 549 308 515 q 241 634 241 583 q 274 720 241 687 q 359 753 308 753 q 445 720 411 753 q 478 634 478 687 z "},"¡":{"ha":529,"x_min":136,"x_max":373,"o":"m 166 397 l 339 397 q 342 197 341 298 q 348 -23 343 95 q 366 -288 353 -141 l 139 -288 q 157 -23 152 -141 q 163 197 161 95 q 166 397 164 298 m 136 634 q 169 720 136 687 q 254 753 203 753 q 340 720 307 753 q 373 634 373 687 q 340 549 373 583 q 254 515 307 515 q 169 549 203 515 q 136 634 136 583 z "},"¬":{"ha":814,"x_min":64,"x_max":732,"o":"m 732 231 l 590 231 l 590 420 l 64 420 l 64 563 l 732 563 l 732 231 z "},"√":{"ha":814,"x_min":0,"x_max":899,"o":"m 899 1017 l 814 1017 l 492 0 l 407 0 l 115 531 l 44 490 l 0 576 l 177 677 l 441 197 l 729 1112 l 899 1112 l 899 1017 z "},"ƒ":{"ha":543,"x_min":-109,"x_max":587,"o":"m 20 546 l 20 682 l 519 682 l 519 546 l 20 546 m 587 1051 l 548 897 q 495 929 526 917 q 439 941 465 941 q 368 905 391 941 q 346 786 346 869 q 346 710 346 768 q 346 570 346 652 q 346 400 346 489 q 346 230 346 311 q 346 89 346 148 q 346 10 346 30 q 276 -234 346 -149 q 58 -319 206 -319 q -38 -299 11 -319 q -109 -264 -87 -280 l -66 -106 q -14 -137 -45 -121 q 53 -153 16 -153 q 135 -118 114 -153 q 156 -27 156 -83 q 156 40 156 -10 q 156 163 156 91 q 156 317 156 235 q 156 480 156 399 q 156 630 156 562 q 156 742 156 698 q 156 793 156 786 q 227 1023 156 947 q 424 1099 298 1099 q 509 1085 462 1099 q 587 1051 557 1071 z "},"≈":{"ha":732,"x_min":67,"x_max":665,"o":"m 665 431 l 665 305 q 588 248 635 269 q 494 226 541 226 q 426 238 463 226 q 353 266 389 250 q 283 293 316 281 q 226 305 250 305 q 67 214 144 305 l 67 339 q 142 397 93 375 q 238 418 192 418 q 307 407 270 418 q 380 379 343 395 q 449 351 416 363 q 507 339 482 339 q 665 431 588 339 m 665 669 l 665 543 q 588 486 635 507 q 494 464 541 464 q 426 476 463 464 q 353 504 389 488 q 283 531 316 519 q 226 543 250 543 q 67 452 144 543 l 67 577 q 142 635 93 613 q 238 656 192 656 q 307 645 270 656 q 380 617 343 633 q 449 589 416 601 q 507 577 482 577 q 665 669 588 577 z "},"∆":{"ha":973,"x_min":41,"x_max":919,"o":"m 387 990 l 573 990 l 919 98 l 919 0 l 41 0 l 41 98 l 387 990 m 478 844 l 213 142 l 746 142 l 478 844 z "},"«":{"ha":886,"x_min":47,"x_max":852,"o":"m 509 0 l 342 0 l 47 346 l 342 692 l 509 692 l 258 346 l 509 0 m 852 0 l 686 0 l 391 346 l 686 692 l 852 692 l 601 346 l 852 0 z "},"»":{"ha":886,"x_min":34,"x_max":838,"o":"m 543 0 l 377 0 l 628 346 l 377 692 l 543 692 l 838 346 l 543 0 m 200 0 l 34 0 l 285 346 l 34 692 l 200 692 l 495 346 l 200 0 z "},"…":{"ha":1126,"x_min":75,"x_max":1017,"o":"m 75 102 q 108 187 75 154 q 193 220 142 220 q 279 187 245 220 q 312 102 312 154 q 279 16 312 49 q 193 -17 245 -17 q 108 16 142 -17 q 75 102 75 49 m 427 102 q 461 187 427 154 q 546 220 494 220 q 631 187 598 220 q 665 102 665 154 q 631 16 665 49 q 546 -17 598 -17 q 461 16 494 -17 q 427 102 427 49 m 780 102 q 813 187 780 154 q 899 220 847 220 q 984 187 951 220 q 1017 102 1017 154 q 984 16 1017 49 q 899 -17 951 -17 q 813 16 847 -17 q 780 102 780 49 z "}," ":{"ha":373,"x_min":0,"x_max":0,"o":""},"À":{"ha":1007,"x_min":35,"x_max":955,"o":"m 237 0 l 35 0 q 73 93 54 41 q 123 241 92 144 l 374 990 l 616 990 l 867 241 q 918 93 899 146 q 955 0 937 41 l 756 0 l 681 241 l 312 241 l 237 0 m 635 387 l 495 833 l 357 387 l 635 387 m 212 1377 l 449 1377 l 646 1105 l 483 1105 l 212 1377 z "},"Ã":{"ha":1007,"x_min":35,"x_max":955,"o":"m 237 0 l 35 0 q 73 93 54 41 q 123 241 92 144 l 374 990 l 616 990 l 867 241 q 918 93 899 146 q 955 0 937 41 l 756 0 l 681 241 l 312 241 l 237 0 m 635 387 l 495 833 l 357 387 l 635 387 m 327 1099 l 222 1099 q 241 1199 222 1153 q 295 1274 261 1245 q 374 1302 330 1302 q 442 1292 408 1302 q 517 1266 477 1281 q 580 1243 557 1251 q 627 1234 603 1234 q 663 1254 651 1234 q 680 1295 675 1274 l 785 1295 q 741 1149 785 1207 q 628 1092 697 1092 q 568 1101 597 1092 q 503 1125 539 1110 q 379 1160 421 1160 q 342 1140 354 1160 q 327 1099 330 1120 z "},"Õ":{"ha":1017,"x_min":61,"x_max":939,"o":"m 746 485 q 715 675 746 595 q 629 798 684 755 q 502 841 574 841 q 375 800 431 841 q 287 684 319 759 q 254 505 254 608 q 286 316 254 396 q 373 193 317 236 q 502 149 429 149 q 625 189 570 149 q 713 304 680 229 q 746 485 746 380 m 939 502 q 903 283 939 380 q 804 120 867 187 q 662 18 742 54 q 495 -17 582 -17 q 279 42 378 -17 q 121 213 180 100 q 61 488 61 326 q 97 706 61 610 q 197 869 134 802 q 340 972 260 937 q 509 1007 420 1007 q 723 948 625 1007 q 880 777 821 890 q 939 502 939 665 m 332 1099 l 227 1099 q 247 1199 227 1153 q 301 1274 267 1245 q 380 1302 335 1302 q 448 1292 413 1302 q 522 1266 482 1281 q 585 1243 562 1251 q 633 1234 608 1234 q 669 1254 656 1234 q 685 1295 681 1274 l 790 1295 q 746 1149 790 1207 q 633 1092 703 1092 q 573 1101 602 1092 q 509 1125 545 1110 q 385 1160 427 1160 q 348 1140 359 1160 q 332 1099 336 1120 z "},"Œ":{"ha":1350,"x_min":64,"x_max":1272,"o":"m 1272 0 l 687 0 l 687 69 q 589 6 646 30 q 475 -17 532 -17 q 271 42 364 -17 q 121 213 178 100 q 64 488 64 326 q 99 706 64 610 q 193 869 134 802 q 328 972 252 937 q 488 1007 404 1007 q 595 986 542 1007 q 687 931 648 965 l 687 990 l 1251 990 l 1251 834 l 890 834 l 890 593 l 1200 593 l 1200 441 l 890 441 l 890 156 l 998 156 q 1163 158 1095 156 q 1272 166 1232 159 l 1272 0 m 702 485 q 640 746 702 651 q 481 841 578 841 q 366 800 417 841 q 287 684 315 759 q 258 505 258 608 q 286 316 258 396 q 365 193 315 236 q 481 149 416 149 q 593 189 543 149 q 672 304 643 229 q 702 485 702 380 z "},"œ":{"ha":1227,"x_min":61,"x_max":1163,"o":"m 1163 51 q 1022 -2 1090 14 q 874 -17 954 -17 q 740 8 804 -17 q 629 81 676 33 q 520 8 583 33 q 387 -17 457 -17 q 218 25 291 -17 q 103 147 144 66 q 61 344 61 227 q 107 541 61 460 q 231 664 154 622 q 400 705 309 705 q 634 612 545 705 q 738 681 677 656 q 874 705 799 705 q 1015 676 960 705 q 1102 597 1070 646 q 1147 486 1134 547 q 1160 361 1160 425 q 1160 331 1160 348 q 1159 305 1160 315 l 722 305 q 772 178 729 217 q 891 139 814 139 q 1022 155 958 139 q 1149 208 1086 170 l 1163 51 m 251 344 q 287 191 251 247 q 393 136 323 136 q 497 191 459 136 q 536 344 536 247 q 499 497 536 441 q 393 553 463 553 q 289 497 328 553 q 251 344 251 441 m 726 427 l 987 427 q 956 531 987 498 q 865 563 925 563 q 772 531 806 563 q 726 427 737 500 z "},"–":{"ha":749,"x_min":71,"x_max":678,"o":"m 71 359 l 71 495 l 678 495 l 678 359 l 71 359 z "},"—":{"ha":1211,"x_min":71,"x_max":1139,"o":"m 71 359 l 71 495 l 1139 495 l 1139 359 l 71 359 z "},"“":{"ha":892,"x_min":139,"x_max":766,"o":"m 766 875 l 766 787 q 731 713 766 749 q 637 678 695 678 q 546 718 580 678 q 512 821 512 758 q 533 940 512 882 q 590 1049 555 999 q 668 1136 626 1100 l 766 1088 q 685 975 713 1031 q 658 875 658 918 l 766 875 m 393 875 l 393 787 q 358 713 393 749 q 264 678 322 678 q 173 718 207 678 q 139 821 139 758 q 160 940 139 882 q 217 1049 182 999 q 295 1136 253 1100 l 393 1088 q 312 975 340 1031 q 285 875 285 918 l 393 875 z "},"”":{"ha":861,"x_min":170,"x_max":797,"o":"m 170 939 l 170 1027 q 205 1101 170 1065 q 298 1136 241 1136 q 390 1096 357 1136 q 424 994 424 1057 q 402 874 424 933 q 346 765 381 816 q 268 678 310 715 l 170 726 q 251 840 223 783 q 278 939 278 897 l 170 939 m 543 939 l 543 1027 q 578 1101 543 1065 q 671 1136 614 1136 q 763 1096 730 1136 q 797 994 797 1057 q 775 874 797 933 q 719 765 754 816 q 641 678 683 715 l 543 726 q 624 840 596 783 q 651 939 651 897 l 543 939 z "},"‘":{"ha":519,"x_min":139,"x_max":393,"o":"m 393 875 l 393 787 q 358 713 393 749 q 264 678 322 678 q 173 718 207 678 q 139 821 139 758 q 160 940 139 882 q 217 1049 182 999 q 295 1136 253 1100 l 393 1088 q 312 975 340 1031 q 285 875 285 918 l 393 875 z "},"’":{"ha":526,"x_min":170,"x_max":424,"o":"m 170 939 l 170 1027 q 205 1101 170 1065 q 298 1136 241 1136 q 390 1096 357 1136 q 424 994 424 1057 q 402 874 424 933 q 346 765 381 816 q 268 678 310 715 l 170 726 q 251 840 223 783 q 278 939 278 897 l 170 939 z "},"÷":{"ha":814,"x_min":105,"x_max":709,"o":"m 105 427 l 105 563 l 709 563 l 709 427 l 105 427 m 288 773 q 322 859 288 825 q 407 892 355 892 q 492 859 459 892 q 526 773 526 825 q 492 687 526 720 q 407 654 459 654 q 322 687 355 654 q 288 773 288 720 m 288 224 q 322 309 288 276 q 407 342 355 342 q 492 309 459 342 q 526 224 526 276 q 492 138 526 171 q 407 105 459 105 q 322 138 355 105 q 288 224 288 171 z "},"◊":{"ha":709,"x_min":24,"x_max":675,"o":"m 675 559 l 390 0 l 305 0 l 24 559 l 305 1085 l 390 1085 l 675 559 m 566 559 l 349 987 l 129 559 l 349 98 l 566 559 z "},"ÿ":{"ha":746,"x_min":-7,"x_max":739,"o":"m 408 142 l 318 -56 l 122 451 q 78 555 104 498 q 14 692 53 612 l 226 692 l 408 142 m 641 451 l 478 0 q 382 -200 431 -131 q 281 -294 334 -269 q 166 -319 228 -319 q -7 -261 71 -319 l 41 -113 q 98 -148 62 -131 q 166 -164 133 -164 q 209 -153 187 -164 q 253 -108 230 -141 q 302 -12 276 -75 q 328 50 312 13 q 360 125 344 87 q 387 195 377 164 q 442 387 416 293 q 491 561 469 481 q 527 692 513 640 l 739 692 q 681 556 704 613 q 641 451 658 498 m 431 939 q 464 1025 431 991 q 549 1058 498 1058 q 635 1025 602 1058 q 668 939 668 991 q 635 853 668 886 q 549 821 602 821 q 464 853 498 821 q 431 939 431 886 m 98 939 q 132 1025 98 991 q 217 1058 165 1058 q 302 1025 269 1058 q 336 939 336 991 q 302 853 336 886 q 217 821 269 821 q 132 853 165 821 q 98 939 98 886 z "},"Ÿ":{"ha":925,"x_min":17,"x_max":895,"o":"m 390 380 l 190 722 q 112 852 151 789 q 17 990 74 914 l 242 990 l 530 458 l 390 380 m 522 380 l 391 458 l 676 990 l 895 990 q 826 889 854 933 q 774 806 798 845 q 725 722 751 766 l 522 380 m 359 471 l 553 471 l 553 295 q 554 118 553 195 q 563 0 555 41 l 349 0 q 358 118 357 41 q 359 295 359 195 l 359 471 m 503 1231 q 537 1316 503 1283 q 622 1350 570 1350 q 707 1316 674 1350 q 741 1231 741 1283 q 707 1145 741 1178 q 622 1112 674 1112 q 537 1145 570 1112 q 503 1231 503 1178 m 171 1231 q 204 1316 171 1283 q 290 1350 238 1350 q 375 1316 342 1350 q 408 1231 408 1283 q 375 1145 408 1178 q 290 1112 342 1112 q 204 1145 238 1112 q 171 1231 171 1178 z "},"⁄":{"ha":868,"x_min":7,"x_max":861,"o":"m 705 1085 l 861 1085 l 163 -166 l 7 -166 l 705 1085 z "},"¤":{"ha":841,"x_min":26,"x_max":814,"o":"m 814 285 l 734 203 l 590 347 q 512 303 553 317 q 423 290 471 290 q 331 302 372 290 q 251 347 290 315 l 108 203 l 26 284 l 170 427 q 130 505 142 465 q 117 593 117 544 q 130 685 117 641 q 172 765 142 728 l 26 911 l 108 991 l 254 846 q 333 886 291 873 q 423 898 374 898 q 587 844 517 898 l 734 991 l 814 910 l 671 766 q 724 595 724 690 q 712 506 724 546 q 672 428 700 466 l 814 285 m 614 595 q 589 693 614 649 q 521 762 564 736 q 423 788 478 788 q 282 733 338 788 q 227 593 227 679 q 283 454 227 509 q 423 399 339 399 q 522 425 479 399 q 589 495 564 451 q 614 595 614 540 z "},"‹":{"ha":543,"x_min":47,"x_max":509,"o":"m 509 0 l 342 0 l 47 346 l 342 692 l 509 692 l 258 346 l 509 0 z "},"›":{"ha":543,"x_min":34,"x_max":495,"o":"m 200 0 l 34 0 l 285 346 l 34 692 l 200 692 l 495 346 l 200 0 z "},"ﬁ":{"ha":941,"x_min":20,"x_max":836,"o":"m 156 0 q 156 198 156 94 q 156 402 156 302 q 156 586 156 503 q 156 725 156 670 q 156 793 156 781 q 227 1022 156 946 q 424 1099 298 1099 q 509 1085 462 1099 q 587 1051 557 1071 l 541 903 q 492 931 521 921 q 439 941 463 941 q 368 905 391 941 q 346 786 346 869 l 346 335 q 351 145 346 237 q 366 0 355 54 l 156 0 m 20 682 l 819 682 q 819 574 819 631 q 819 464 819 517 q 819 373 819 412 q 819 322 819 335 q 820 217 819 279 q 825 96 822 155 q 832 0 828 37 l 629 0 l 629 546 l 20 546 l 20 682 m 612 932 q 645 1011 612 979 q 724 1044 677 1044 q 803 1011 770 1044 q 836 932 836 979 q 803 852 836 884 q 724 820 770 820 q 645 852 677 820 q 612 932 612 884 z "},"ﬂ":{"ha":941,"x_min":20,"x_max":832,"o":"m 20 546 l 20 682 l 156 682 l 156 793 q 240 1022 156 946 q 471 1099 324 1099 q 550 1088 507 1099 q 629 1061 594 1077 l 819 1061 l 819 322 q 820 217 819 279 q 825 96 822 155 q 832 0 828 37 l 629 0 l 629 895 q 558 928 597 916 q 487 941 519 941 q 379 905 413 941 q 346 786 346 869 l 346 682 l 519 682 l 519 546 l 346 546 l 346 335 q 351 145 346 237 q 366 0 355 54 l 156 0 l 156 546 l 20 546 z "},"‡":{"ha":694,"x_min":20,"x_max":675,"o":"m 437 -159 l 258 -159 q 267 0 264 -87 q 271 171 270 87 q 271 319 271 255 l 271 546 q 271 694 271 610 q 267 865 270 779 q 258 1024 264 952 l 437 1024 q 428 865 431 952 q 425 694 425 779 q 424 546 424 610 l 424 319 q 425 171 424 255 q 428 0 425 87 q 437 -159 431 -87 m 675 749 l 675 590 q 548 595 603 593 q 445 596 492 596 q 349 597 398 597 q 202 596 276 597 q 20 590 129 595 l 20 749 q 202 744 129 745 q 349 743 276 743 q 459 743 414 743 q 554 745 505 743 q 675 749 603 747 m 675 251 l 675 92 q 548 96 603 95 q 445 98 492 98 q 349 98 398 98 q 202 97 276 98 q 20 92 129 96 l 20 251 q 202 245 129 246 q 349 244 276 244 q 459 244 414 244 q 554 247 505 245 q 675 251 603 248 z "},"·":{"ha":509,"x_min":136,"x_max":373,"o":"m 136 481 q 169 567 136 534 q 254 600 203 600 q 340 567 307 600 q 373 481 373 534 q 340 396 373 429 q 254 363 307 363 q 169 396 203 363 q 136 481 136 429 z "},"‚":{"ha":536,"x_min":180,"x_max":434,"o":"m 180 34 l 180 122 q 215 195 180 160 q 309 231 251 231 q 400 191 367 231 q 434 88 434 151 q 413 -31 434 28 q 356 -140 391 -90 q 278 -227 320 -191 l 180 -180 q 261 -66 233 -123 q 288 34 288 -9 l 180 34 z "},"„":{"ha":905,"x_min":139,"x_max":766,"o":"m 139 34 l 139 122 q 175 195 139 160 q 268 231 210 231 q 360 191 326 231 q 393 88 393 151 q 372 -31 393 28 q 315 -140 351 -90 q 237 -227 279 -191 l 139 -180 q 220 -66 193 -123 q 248 34 248 -9 l 139 34 m 512 34 l 512 122 q 548 195 512 160 q 641 231 583 231 q 733 191 699 231 q 766 88 766 151 q 745 -31 766 28 q 688 -140 724 -90 q 610 -227 652 -191 l 512 -180 q 593 -66 566 -123 q 621 34 621 -9 l 512 34 z "},"‰":{"ha":1619,"x_min":61,"x_max":1558,"o":"m 503 739 q 473 578 503 639 q 393 491 444 518 q 279 465 342 465 q 123 526 184 465 q 61 731 61 588 q 91 887 61 827 q 172 976 121 947 q 285 1004 222 1004 q 441 941 379 1004 q 503 739 503 878 m 354 730 q 337 871 354 829 q 281 912 319 912 q 228 872 246 912 q 210 740 210 831 q 228 598 210 640 q 281 556 245 556 q 336 597 317 556 q 354 730 354 638 m 755 1004 l 909 1004 l 380 -17 l 225 -17 l 755 1004 m 1069 257 q 1040 97 1069 157 q 959 10 1010 37 q 845 -17 908 -17 q 689 45 751 -17 q 627 250 627 106 q 657 406 627 345 q 738 494 687 466 q 851 522 789 522 q 1007 459 945 522 q 1069 257 1069 396 m 920 248 q 903 389 920 348 q 848 431 886 431 q 794 390 812 431 q 777 258 777 350 q 794 117 777 159 q 848 75 811 75 q 902 116 884 75 q 920 248 920 157 m 1558 257 q 1528 97 1558 157 q 1447 10 1498 37 q 1333 -17 1396 -17 q 1177 45 1239 -17 q 1116 250 1116 106 q 1145 406 1116 345 q 1226 494 1175 466 q 1339 522 1277 522 q 1496 459 1434 522 q 1558 257 1558 396 m 1409 248 q 1391 389 1409 348 q 1336 431 1374 431 q 1283 390 1301 431 q 1265 258 1265 350 q 1282 117 1265 159 q 1336 75 1299 75 q 1390 116 1372 75 q 1409 248 1409 157 z "},"Â":{"ha":1007,"x_min":35,"x_max":955,"o":"m 237 0 l 35 0 q 73 93 54 41 q 123 241 92 144 l 374 990 l 616 990 l 867 241 q 918 93 899 146 q 955 0 937 41 l 756 0 l 681 241 l 312 241 l 237 0 m 635 387 l 495 833 l 357 387 l 635 387 m 795 1105 l 632 1105 l 496 1261 l 361 1105 l 198 1105 l 395 1377 l 598 1377 l 795 1105 z "},"Ê":{"ha":822,"x_min":102,"x_max":747,"o":"m 305 593 l 676 593 l 676 441 l 305 441 l 305 156 l 480 156 q 643 158 577 156 q 747 166 708 159 l 747 0 l 102 0 q 111 118 109 41 q 112 295 112 195 l 112 695 q 111 872 112 795 q 102 990 109 949 l 727 990 l 727 834 l 305 834 l 305 593 m 712 1105 l 549 1105 l 414 1261 l 278 1105 l 115 1105 l 312 1377 l 515 1377 l 712 1105 z "},"Á":{"ha":1007,"x_min":35,"x_max":955,"o":"m 237 0 l 35 0 q 73 93 54 41 q 123 241 92 144 l 374 990 l 616 990 l 867 241 q 918 93 899 146 q 955 0 937 41 l 756 0 l 681 241 l 312 241 l 237 0 m 635 387 l 495 833 l 357 387 l 635 387 m 544 1377 l 781 1377 l 510 1105 l 347 1105 l 544 1377 z "},"Ë":{"ha":822,"x_min":102,"x_max":747,"o":"m 305 593 l 676 593 l 676 441 l 305 441 l 305 156 l 480 156 q 643 158 577 156 q 747 166 708 159 l 747 0 l 102 0 q 111 118 109 41 q 112 295 112 195 l 112 695 q 111 872 112 795 q 102 990 109 949 l 727 990 l 727 834 l 305 834 l 305 593 m 461 1231 q 495 1316 461 1283 q 580 1350 528 1350 q 665 1316 632 1350 q 699 1231 699 1283 q 665 1145 699 1178 q 580 1112 632 1112 q 495 1145 528 1112 q 461 1231 461 1178 m 129 1231 q 162 1316 129 1283 q 248 1350 196 1350 q 333 1316 300 1350 q 366 1231 366 1283 q 333 1145 366 1178 q 248 1112 300 1112 q 162 1145 196 1112 q 129 1231 129 1178 z "},"È":{"ha":822,"x_min":102,"x_max":747,"o":"m 305 593 l 676 593 l 676 441 l 305 441 l 305 156 l 480 156 q 643 158 577 156 q 747 166 708 159 l 747 0 l 102 0 q 111 118 109 41 q 112 295 112 195 l 112 695 q 111 872 112 795 q 102 990 109 949 l 727 990 l 727 834 l 305 834 l 305 593 m 129 1377 l 366 1377 l 563 1105 l 400 1105 l 129 1377 z "},"Í":{"ha":709,"x_min":88,"x_max":637,"o":"m 88 990 l 607 990 l 607 851 l 444 851 l 444 139 l 607 139 l 607 0 l 88 0 l 88 139 l 251 139 l 251 851 l 88 851 l 88 990 m 400 1377 l 637 1377 l 366 1105 l 203 1105 l 400 1377 z "},"Î":{"ha":709,"x_min":54,"x_max":651,"o":"m 88 990 l 607 990 l 607 851 l 444 851 l 444 139 l 607 139 l 607 0 l 88 0 l 88 139 l 251 139 l 251 851 l 88 851 l 88 990 m 651 1105 l 488 1105 l 353 1261 l 217 1105 l 54 1105 l 251 1377 l 454 1377 l 651 1105 z "},"Ï":{"ha":709,"x_min":68,"x_max":637,"o":"m 88 990 l 607 990 l 607 851 l 444 851 l 444 139 l 607 139 l 607 0 l 88 0 l 88 139 l 251 139 l 251 851 l 88 851 l 88 990 m 400 1231 q 434 1316 400 1283 q 519 1350 467 1350 q 604 1316 571 1350 q 637 1231 637 1283 q 604 1145 637 1178 q 519 1112 571 1112 q 434 1145 467 1112 q 400 1231 400 1178 m 68 1231 q 101 1316 68 1283 q 186 1350 135 1350 q 272 1316 239 1350 q 305 1231 305 1283 q 272 1145 305 1178 q 186 1112 239 1112 q 101 1145 135 1112 q 68 1231 68 1178 z "},"Ì":{"ha":709,"x_min":68,"x_max":607,"o":"m 88 990 l 607 990 l 607 851 l 444 851 l 444 139 l 607 139 l 607 0 l 88 0 l 88 139 l 251 139 l 251 851 l 88 851 l 88 990 m 68 1377 l 305 1377 l 502 1105 l 339 1105 l 68 1377 z "},"Ó":{"ha":1017,"x_min":61,"x_max":939,"o":"m 746 485 q 715 675 746 595 q 629 798 684 755 q 502 841 574 841 q 375 800 431 841 q 287 684 319 759 q 254 505 254 608 q 286 316 254 396 q 373 193 317 236 q 502 149 429 149 q 625 189 570 149 q 713 304 680 229 q 746 485 746 380 m 939 502 q 903 283 939 380 q 804 120 867 187 q 662 18 742 54 q 495 -17 582 -17 q 279 42 378 -17 q 121 213 180 100 q 61 488 61 326 q 97 706 61 610 q 197 869 134 802 q 340 972 260 937 q 509 1007 420 1007 q 723 948 625 1007 q 880 777 821 890 q 939 502 939 665 m 549 1377 l 787 1377 l 515 1105 l 353 1105 l 549 1377 z "},"Ô":{"ha":1017,"x_min":61,"x_max":939,"o":"m 746 485 q 715 675 746 595 q 629 798 684 755 q 502 841 574 841 q 375 800 431 841 q 287 684 319 759 q 254 505 254 608 q 286 316 254 396 q 373 193 317 236 q 502 149 429 149 q 625 189 570 149 q 713 304 680 229 q 746 485 746 380 m 939 502 q 903 283 939 380 q 804 120 867 187 q 662 18 742 54 q 495 -17 582 -17 q 279 42 378 -17 q 121 213 180 100 q 61 488 61 326 q 97 706 61 610 q 197 869 134 802 q 340 972 260 937 q 509 1007 420 1007 q 723 948 625 1007 q 880 777 821 890 q 939 502 939 665 m 800 1105 l 637 1105 l 502 1261 l 366 1105 l 203 1105 l 400 1377 l 604 1377 l 800 1105 z "},"◌":{"ha":750,"x_min":64,"x_max":686,"o":"m 300 568 q 292 545 300 555 q 270 535 283 535 q 247 544 257 535 q 236 568 236 553 q 246 590 236 580 q 270 600 256 600 q 292 591 283 600 q 300 568 300 581 m 514 54 q 505 31 514 41 q 481 21 495 21 q 459 31 469 21 q 449 54 449 40 q 459 76 449 66 q 481 86 469 86 q 505 77 495 86 q 514 54 514 67 m 210 508 q 178 475 210 475 q 155 485 165 475 q 146 507 146 494 q 156 530 146 520 q 178 540 165 540 q 201 531 191 540 q 210 508 210 522 m 604 114 q 595 92 604 101 q 572 82 586 82 q 549 92 558 82 q 539 114 539 101 q 549 137 539 127 q 572 146 559 146 q 595 137 585 146 q 604 114 604 129 m 151 416 q 140 394 151 403 q 117 385 130 385 q 94 395 103 385 q 85 417 85 405 q 95 440 85 431 q 117 450 105 450 q 141 439 131 450 q 151 416 151 429 m 665 204 q 655 181 665 191 q 632 172 645 172 q 608 182 617 172 q 600 204 600 192 q 610 228 600 220 q 632 236 620 236 q 655 227 645 236 q 665 204 665 218 m 130 311 q 119 288 130 298 q 97 278 109 278 q 74 288 83 278 q 64 311 64 298 q 74 333 64 324 q 97 342 83 342 q 120 333 110 342 q 130 311 130 324 m 686 311 q 676 288 686 298 q 654 279 667 279 q 630 288 640 279 q 621 310 621 298 q 631 333 621 323 q 654 343 642 343 q 676 334 667 343 q 686 311 686 324 m 151 205 q 141 182 151 192 q 118 172 132 172 q 95 181 105 172 q 85 205 85 191 q 95 227 85 217 q 118 236 104 236 q 141 227 132 236 q 151 205 151 218 m 665 417 q 655 395 665 405 q 631 385 646 385 q 610 394 619 385 q 600 416 600 404 q 609 439 600 429 q 631 450 618 450 q 654 440 644 450 q 665 417 665 431 m 210 114 q 201 91 210 101 q 178 81 192 81 q 156 91 165 81 q 146 114 146 101 q 156 136 146 125 q 178 146 165 146 q 201 137 193 146 q 210 114 210 127 m 604 507 q 594 485 604 494 q 572 475 585 475 q 549 485 559 475 q 540 507 540 495 q 549 530 540 520 q 572 540 557 540 q 594 530 585 540 q 604 507 604 521 m 301 53 q 291 30 301 39 q 269 21 281 21 q 246 31 256 21 q 236 53 236 41 q 246 75 236 65 q 269 85 256 85 q 292 75 282 85 q 301 53 301 65 m 514 567 q 504 544 514 553 q 481 535 494 535 q 459 546 468 535 q 450 568 450 556 q 459 590 450 581 q 481 600 469 600 q 505 590 495 600 q 514 567 514 580 m 408 32 q 398 9 408 19 q 375 0 389 0 q 353 9 362 0 q 343 32 343 19 q 353 55 343 45 q 375 64 362 64 q 398 55 389 64 q 408 32 408 45 m 408 589 q 398 566 408 576 q 375 557 389 557 q 353 566 362 557 q 343 589 343 576 q 353 612 343 602 q 375 621 362 621 q 398 612 389 621 q 408 589 408 602 z "},"Ò":{"ha":1017,"x_min":61,"x_max":939,"o":"m 746 485 q 715 675 746 595 q 629 798 684 755 q 502 841 574 841 q 375 800 431 841 q 287 684 319 759 q 254 505 254 608 q 286 316 254 396 q 373 193 317 236 q 502 149 429 149 q 625 189 570 149 q 713 304 680 229 q 746 485 746 380 m 939 502 q 903 283 939 380 q 804 120 867 187 q 662 18 742 54 q 495 -17 582 -17 q 279 42 378 -17 q 121 213 180 100 q 61 488 61 326 q 97 706 61 610 q 197 869 134 802 q 340 972 260 937 q 509 1007 420 1007 q 723 948 625 1007 q 880 777 821 890 q 939 502 939 665 m 217 1377 l 454 1377 l 651 1105 l 488 1105 l 217 1377 z "},"Ú":{"ha":1010,"x_min":102,"x_max":892,"o":"m 688 990 l 892 990 q 883 875 885 949 q 882 695 882 800 l 882 349 q 785 83 882 184 q 498 -17 689 -17 q 209 83 306 -17 q 112 349 112 184 l 112 695 q 111 872 112 795 q 102 990 109 949 l 305 990 l 305 380 q 322 252 305 307 q 381 168 339 198 q 498 138 423 138 q 613 168 572 138 q 671 252 654 198 q 688 380 688 307 l 688 990 m 544 1377 l 781 1377 l 510 1105 l 347 1105 l 544 1377 z "},"Û":{"ha":1010,"x_min":102,"x_max":892,"o":"m 688 990 l 892 990 q 883 875 885 949 q 882 695 882 800 l 882 349 q 785 83 882 184 q 498 -17 689 -17 q 209 83 306 -17 q 112 349 112 184 l 112 695 q 111 872 112 795 q 102 990 109 949 l 305 990 l 305 380 q 322 252 305 307 q 381 168 339 198 q 498 138 423 138 q 613 168 572 138 q 671 252 654 198 q 688 380 688 307 l 688 990 m 795 1105 l 632 1105 l 496 1261 l 361 1105 l 198 1105 l 395 1377 l 598 1377 l 795 1105 z "},"Ù":{"ha":1010,"x_min":102,"x_max":892,"o":"m 688 990 l 892 990 q 883 875 885 949 q 882 695 882 800 l 882 349 q 785 83 882 184 q 498 -17 689 -17 q 209 83 306 -17 q 112 349 112 184 l 112 695 q 111 872 112 795 q 102 990 109 949 l 305 990 l 305 380 q 322 252 305 307 q 381 168 339 198 q 498 138 423 138 q 613 168 572 138 q 671 252 654 198 q 688 380 688 307 l 688 990 m 212 1377 l 449 1377 l 646 1105 l 483 1105 l 212 1377 z "},"ı":{"ha":437,"x_min":112,"x_max":326,"o":"m 112 692 l 312 692 q 312 583 312 641 q 312 472 312 526 q 312 378 312 418 q 312 322 312 338 q 314 217 312 279 q 318 96 315 155 q 326 0 321 37 l 122 0 q 122 115 122 49 q 122 246 122 180 q 122 359 122 311 q 120 548 122 458 q 112 692 119 638 z "},"ˆ":{"ha":597,"x_min":0,"x_max":597,"o":"m 597 814 l 434 814 l 298 970 l 163 814 l 0 814 l 197 1085 l 400 1085 l 597 814 z "},"˜":{"ha":563,"x_min":0,"x_max":563,"o":"m 105 807 l 0 807 q 20 907 0 861 q 74 982 39 954 q 153 1010 108 1010 q 220 1000 186 1010 q 295 975 255 989 q 358 951 335 960 q 406 943 381 943 q 441 963 429 943 q 458 1004 454 983 l 563 1004 q 519 858 563 916 q 406 800 475 800 q 346 809 375 800 q 281 833 317 819 q 157 868 199 868 q 120 848 132 868 q 105 807 109 829 z "},"¯":{"ha":563,"x_min":0,"x_max":563,"o":"m 0 841 l 0 977 l 563 977 l 563 841 l 0 841 z "},"˘":{"ha":549,"x_min":0,"x_max":549,"o":"m 549 1051 q 515 921 549 985 q 419 815 481 857 q 275 773 357 773 q 130 815 192 773 q 34 921 68 857 q 0 1051 0 985 l 122 1051 q 176 949 132 989 q 275 909 219 909 q 373 949 331 909 q 427 1051 416 989 l 549 1051 z "},"˙":{"ha":237,"x_min":0,"x_max":237,"o":"m 0 939 q 34 1025 0 991 q 119 1058 67 1058 q 204 1025 171 1058 q 237 939 237 991 q 204 853 237 886 q 119 821 171 821 q 34 853 67 821 q 0 939 0 886 z "},"˚":{"ha":332,"x_min":0,"x_max":332,"o":"m 234 949 q 215 997 234 980 q 166 1014 197 1014 q 117 997 136 1014 q 98 949 98 980 q 117 902 98 919 q 166 885 136 885 q 215 902 197 885 q 234 949 234 919 m 0 949 q 47 1066 0 1021 q 166 1112 95 1112 q 285 1066 237 1112 q 332 949 332 1021 q 285 832 332 878 q 166 787 237 787 q 47 832 95 787 q 0 949 0 878 z "},"¸":{"ha":285,"x_min":0,"x_max":285,"o":"m 41 34 l 139 34 l 139 -71 q 153 -69 146 -70 q 172 -68 161 -68 q 254 -100 223 -68 q 285 -183 285 -133 q 258 -263 285 -229 q 190 -314 231 -296 q 105 -332 149 -332 q 50 -325 79 -332 q 0 -305 21 -317 l 7 -217 q 88 -241 37 -241 q 144 -226 119 -241 q 170 -183 170 -211 q 152 -147 170 -161 q 109 -132 134 -132 q 71 -136 90 -132 q 41 -146 52 -140 l 41 34 z "},"˝":{"ha":624,"x_min":0,"x_max":624,"o":"m 142 1085 l 346 1085 l 142 814 l 0 814 l 142 1085 m 420 1085 l 624 1085 l 420 814 l 278 814 l 420 1085 z "},"˛":{"ha":329,"x_min":0,"x_max":329,"o":"m 109 0 l 224 0 q 145 -61 172 -33 q 119 -125 119 -90 q 138 -176 119 -159 q 190 -193 157 -193 q 228 -187 205 -193 q 274 -169 251 -180 q 309 -142 296 -157 l 329 -237 q 257 -282 300 -267 q 176 -298 214 -298 q 88 -279 128 -298 q 24 -226 48 -259 q 0 -153 0 -193 q 28 -62 0 -100 q 109 0 56 -25 z "},"ˇ":{"ha":597,"x_min":0,"x_max":597,"o":"m 434 1085 l 597 1085 l 400 814 l 197 814 l 0 1085 l 163 1085 l 298 929 l 434 1085 z "},"а":{"ha":852,"x_min":68,"x_max":794,"o":"m 794 0 l 614 0 q 595 54 604 16 q 582 133 587 92 q 576 199 576 174 l 576 237 q 504 120 548 179 q 401 22 459 62 q 271 -17 342 -17 q 127 59 186 -17 q 68 278 68 134 q 92 435 68 359 q 165 572 115 511 q 291 669 214 633 q 473 705 368 705 q 620 697 547 705 q 750 675 692 688 l 750 359 q 762 144 750 231 q 794 0 774 57 m 556 495 l 556 540 q 515 548 542 543 q 444 553 488 553 q 332 514 373 553 q 275 412 292 475 q 258 278 258 349 q 280 181 258 218 q 332 144 302 144 q 394 173 363 144 q 455 245 426 201 q 507 338 484 290 q 543 430 530 387 q 556 495 556 472 z "},"ₐ":{"ha":593,"x_min":48,"x_max":557,"o":"m 557 -203 l 431 -203 q 417 -169 423 -193 q 408 -117 412 -144 q 404 -75 404 -91 l 404 -49 q 355 -125 387 -87 q 282 -189 324 -163 q 191 -214 240 -214 q 90 -165 131 -214 q 48 -22 48 -116 q 78 111 48 47 q 171 215 108 174 q 332 255 233 255 q 434 249 383 255 q 526 235 485 243 l 526 31 q 534 -110 526 -53 q 557 -203 543 -166 m 390 119 l 390 147 q 361 153 380 150 q 311 156 342 156 q 233 131 262 156 q 193 64 205 105 q 181 -22 181 23 q 197 -86 181 -62 q 233 -110 212 -110 q 285 -82 258 -110 q 336 -15 313 -54 q 375 62 360 25 q 390 119 390 100 z "},"ᵃ":{"ha":593,"x_min":48,"x_max":557,"o":"m 557 461 l 431 461 q 417 496 423 471 q 408 547 412 521 q 404 590 404 574 l 404 616 q 355 539 387 578 q 282 476 324 501 q 191 450 240 450 q 90 499 131 450 q 48 642 48 549 q 78 775 48 712 q 171 879 108 839 q 332 920 233 920 q 434 914 383 920 q 526 900 485 908 l 526 695 q 534 555 526 612 q 557 461 543 498 m 390 783 l 390 812 q 361 818 380 814 q 311 821 342 821 q 233 795 262 821 q 193 729 205 770 q 181 642 181 688 q 197 579 181 603 q 233 555 212 555 q 285 583 258 555 q 336 650 313 610 q 375 727 360 690 q 390 783 390 764 z "},"ͣ":{"ha":0,"x_min":-647,"x_max":-138,"o":"m -138 841 l -264 841 q -278 876 -272 851 q -287 927 -283 901 q -291 970 -291 954 l -291 996 q -340 919 -309 958 q -413 856 -371 881 q -505 830 -455 830 q -606 879 -564 830 q -647 1022 -647 928 q -617 1155 -647 1092 q -525 1259 -587 1219 q -363 1299 -462 1299 q -261 1294 -312 1299 q -170 1280 -210 1288 l -170 1075 q -161 935 -170 991 q -138 841 -153 878 m -305 1163 l -305 1192 q -334 1197 -315 1194 q -383 1200 -353 1200 q -462 1175 -433 1200 q -502 1108 -490 1149 q -514 1022 -514 1067 q -498 959 -514 983 q -462 935 -483 935 q -410 962 -437 935 q -359 1030 -382 990 q -320 1107 -335 1069 q -305 1163 -305 1144 z "},"ӑ":{"ha":852,"x_min":68,"x_max":794,"o":"m 794 0 l 614 0 q 595 54 604 16 q 582 133 587 92 q 576 199 576 174 l 576 237 q 504 120 548 179 q 401 22 459 62 q 271 -17 342 -17 q 127 59 186 -17 q 68 278 68 134 q 92 435 68 359 q 165 572 115 511 q 291 669 214 633 q 473 705 368 705 q 620 697 547 705 q 750 675 692 688 l 750 359 q 762 144 750 231 q 794 0 774 57 m 556 495 l 556 540 q 515 548 542 543 q 444 553 488 553 q 332 514 373 553 q 275 412 292 475 q 258 278 258 349 q 280 181 258 218 q 332 144 302 144 q 394 173 363 144 q 455 245 426 201 q 507 338 484 290 q 543 430 530 387 q 556 495 556 472 m 688 997 q 621 830 688 893 q 441 766 554 766 q 260 830 326 766 q 193 997 193 893 l 346 997 q 373 915 346 942 q 441 888 400 888 q 509 918 482 888 q 536 997 536 947 l 688 997 z "},"ӓ":{"ha":852,"x_min":68,"x_max":794,"o":"m 794 0 l 614 0 q 595 54 604 16 q 582 133 587 92 q 576 199 576 174 l 576 237 q 504 120 548 179 q 401 22 459 62 q 271 -17 342 -17 q 127 59 186 -17 q 68 278 68 134 q 92 435 68 359 q 165 572 115 511 q 291 669 214 633 q 473 705 368 705 q 620 697 547 705 q 750 675 692 688 l 750 359 q 762 144 750 231 q 794 0 774 57 m 556 495 l 556 540 q 515 548 542 543 q 444 553 488 553 q 332 514 373 553 q 275 412 292 475 q 258 278 258 349 q 280 181 258 218 q 332 144 302 144 q 394 173 363 144 q 455 245 426 201 q 507 338 484 290 q 543 430 530 387 q 556 495 556 472 m 488 939 q 522 1025 488 991 q 607 1058 555 1058 q 692 1025 659 1058 q 726 939 726 991 q 692 853 726 886 q 607 821 659 821 q 522 853 555 821 q 488 939 488 886 m 156 939 q 190 1025 156 991 q 275 1058 223 1058 q 360 1025 327 1058 q 393 939 393 991 q 360 853 393 886 q 275 821 327 821 q 190 853 223 821 q 156 939 156 886 z "},"ᶏ":{"ha":817,"x_min":68,"x_max":1002,"o":"m 973 -161 l 1002 -271 q 941 -304 983 -287 q 854 -322 900 -322 q 717 -271 768 -322 q 666 -120 666 -220 l 666 0 l 622 0 l 622 112 l 802 112 l 802 -97 q 825 -178 802 -155 q 878 -201 849 -201 q 932 -187 905 -201 q 973 -161 958 -172 m 712 515 l 712 251 q 725 117 712 178 q 760 0 739 57 l 576 0 q 560 39 570 14 q 543 92 550 63 q 424 9 486 35 q 302 -17 361 -17 q 181 13 234 -17 q 98 90 128 42 q 68 193 68 138 q 92 297 68 245 q 175 387 116 349 q 339 435 235 425 q 401 441 363 438 q 474 446 439 444 q 522 448 509 448 l 522 481 q 479 536 522 519 q 359 553 436 553 q 252 532 306 553 q 139 469 199 511 q 140 515 140 484 q 142 581 141 546 q 146 644 144 616 q 268 686 204 667 q 417 705 331 705 q 572 680 506 705 q 675 612 639 655 q 712 515 712 570 m 522 241 l 522 322 q 481 320 509 322 q 426 315 454 317 q 380 310 397 312 q 284 277 310 302 q 258 217 258 251 q 284 162 258 184 q 351 139 310 139 q 433 157 393 139 q 522 241 473 175 z "},"ꜳ":{"ha":1244,"x_min":61,"x_max":1186,"o":"m 1139 515 l 1139 251 q 1152 117 1139 178 q 1186 0 1165 57 l 1003 0 q 987 39 997 14 q 969 92 977 63 q 850 9 912 35 q 728 -17 788 -17 q 610 11 663 -17 q 528 84 558 39 q 413 7 473 31 q 295 -17 353 -17 q 174 13 227 -17 q 91 90 121 42 q 61 193 61 138 q 85 297 61 245 q 169 387 109 349 q 332 435 228 425 q 394 441 356 438 q 467 446 432 444 q 515 448 502 448 l 515 481 q 472 536 515 519 q 353 553 429 553 q 245 532 299 553 q 132 469 192 511 q 134 515 133 484 q 136 581 134 546 q 139 644 137 616 q 261 686 197 667 q 410 705 324 705 q 527 686 473 705 q 605 643 581 666 q 707 684 645 663 q 844 705 770 705 q 999 680 932 705 q 1102 612 1065 655 q 1139 515 1139 570 m 515 241 l 515 322 q 475 320 502 322 q 419 315 448 317 q 373 310 391 312 q 273 277 303 302 q 243 217 243 251 q 273 162 243 184 q 345 139 303 139 q 427 157 387 139 q 515 241 467 175 m 949 241 l 949 322 q 908 320 935 322 q 852 315 881 317 q 806 310 824 312 q 707 277 736 302 q 677 217 677 251 q 707 162 677 184 q 778 139 736 139 q 860 157 820 139 q 949 241 900 175 m 685 515 l 685 417 q 723 427 703 422 q 766 433 743 431 q 827 439 789 436 q 900 445 865 442 q 949 448 935 448 l 949 481 q 906 536 949 519 q 786 553 863 553 q 684 534 736 553 q 685 525 684 529 q 685 515 685 520 z "},"ꜵ":{"ha":1241,"x_min":61,"x_max":1180,"o":"m 515 448 l 515 481 q 472 536 515 519 q 353 553 429 553 q 245 532 299 553 q 132 469 192 511 q 134 515 133 484 q 136 581 134 546 q 139 644 137 616 q 261 686 197 667 q 410 705 324 705 q 554 675 492 705 q 638 606 615 646 q 729 677 671 648 q 854 705 787 705 q 1024 664 951 705 q 1139 541 1097 622 q 1180 344 1180 460 q 1134 147 1180 227 q 1010 25 1087 66 q 841 -17 932 -17 q 688 21 755 -17 q 582 134 621 60 q 450 25 514 68 q 295 -17 386 -17 q 174 13 227 -17 q 91 90 121 42 q 61 193 61 138 q 85 297 61 245 q 169 387 109 349 q 332 435 228 425 q 394 441 356 438 q 467 446 432 444 q 515 448 502 448 m 705 344 q 742 191 705 247 q 848 136 778 136 q 952 191 913 136 q 990 344 990 247 q 954 497 990 441 q 848 553 918 553 q 744 497 782 553 q 705 344 705 441 m 515 241 l 515 322 q 475 320 502 322 q 419 315 448 317 q 373 310 391 312 q 277 277 303 302 q 251 217 251 251 q 277 162 251 184 q 345 139 303 139 q 427 157 387 139 q 515 241 467 175 z "},"ꜷ":{"ha":1237,"x_min":61,"x_max":1176,"o":"m 1176 0 l 996 0 q 976 56 987 22 q 959 125 964 90 q 842 19 903 56 q 715 -17 781 -17 q 543 97 590 -17 q 425 13 488 43 q 295 -17 361 -17 q 174 13 227 -17 q 91 90 121 42 q 61 193 61 138 q 85 297 61 245 q 169 387 109 349 q 332 435 228 425 q 394 441 356 438 q 467 446 432 444 q 515 448 502 448 l 515 485 q 470 537 513 521 q 353 553 427 553 q 245 532 299 553 q 132 469 192 511 q 134 515 133 484 q 136 581 134 546 q 139 644 137 616 q 261 686 197 667 q 410 705 324 705 q 566 680 499 705 q 669 612 632 655 q 705 515 705 570 l 705 281 q 725 173 705 207 q 787 140 745 140 q 846 163 814 140 q 903 219 877 186 q 942 283 930 252 l 942 475 q 941 553 942 519 q 938 618 941 586 q 928 692 935 650 l 1132 692 l 1132 305 q 1143 132 1132 207 q 1176 0 1155 57 m 515 241 l 515 322 q 475 320 502 322 q 419 315 448 317 q 373 310 391 312 q 277 277 303 302 q 251 217 251 251 q 277 162 251 184 q 345 139 303 139 q 427 157 387 139 q 515 241 467 175 z "},"ꜹ":{"ha":1116,"x_min":61,"x_max":1109,"o":"m 515 448 l 515 481 q 472 536 515 519 q 353 553 429 553 q 245 532 299 553 q 132 469 192 511 q 134 515 133 484 q 136 581 134 546 q 139 644 137 616 q 261 686 197 667 q 410 705 324 705 q 565 680 499 705 q 668 612 631 655 q 705 515 705 570 l 705 251 q 719 149 705 178 q 755 102 734 121 l 675 0 q 611 16 641 0 q 561 54 581 33 q 536 92 541 76 q 417 9 479 35 q 295 -17 355 -17 q 174 13 227 -17 q 91 90 121 42 q 61 193 61 138 q 85 297 61 245 q 169 387 109 349 q 332 435 228 425 q 394 441 356 438 q 467 446 432 444 q 515 448 502 448 m 515 241 l 515 322 q 475 320 502 322 q 419 315 448 317 q 373 310 391 312 q 277 277 303 302 q 251 217 251 251 q 277 162 251 184 q 345 139 303 139 q 427 157 387 139 q 515 241 467 175 m 900 692 l 1109 692 q 1070 607 1090 653 q 1033 520 1050 562 q 1004 451 1015 478 l 817 0 l 675 0 l 900 692 z "},"ꜻ":{"ha":1156,"x_min":61,"x_max":1109,"o":"m 900 692 l 1109 692 q 1071 610 1090 654 q 1035 526 1052 566 q 1006 457 1018 485 l 1108 457 l 1108 322 l 950 322 q 906 214 929 271 q 862 109 882 158 q 830 30 842 60 q 817 0 817 0 l 675 0 q 611 16 641 0 q 561 54 581 33 q 536 92 541 76 q 417 9 479 35 q 295 -17 355 -17 q 174 13 227 -17 q 91 90 121 42 q 61 193 61 138 q 85 297 61 245 q 169 387 109 349 q 332 435 228 425 q 394 441 356 438 q 467 446 432 444 q 515 448 502 448 l 515 481 q 472 536 515 519 q 353 553 429 553 q 245 532 299 553 q 132 469 192 511 q 134 515 133 484 q 136 581 134 546 q 139 644 137 616 q 261 686 197 667 q 410 705 324 705 q 565 680 499 705 q 668 612 631 655 q 705 515 705 570 l 705 457 l 823 457 l 900 692 m 515 241 l 515 322 q 475 320 502 322 q 419 315 448 317 q 373 310 391 312 q 277 277 303 302 q 251 217 251 251 q 277 162 251 184 q 345 139 303 139 q 427 157 387 139 q 515 241 467 175 m 780 322 l 705 322 l 705 251 q 709 185 705 211 q 722 143 714 160 l 780 322 z "},"ꜽ":{"ha":1120,"x_min":61,"x_max":1114,"o":"m 1015 451 l 859 0 q 764 -200 814 -132 q 658 -294 713 -269 q 541 -319 602 -319 q 368 -261 446 -319 l 415 -113 q 472 -148 437 -131 q 541 -164 507 -164 q 606 -133 570 -164 q 683 -16 642 -102 q 615 3 647 -16 q 563 48 584 22 q 536 92 542 73 q 417 9 479 35 q 295 -17 355 -17 q 174 13 227 -17 q 91 90 121 42 q 61 193 61 138 q 85 297 61 245 q 169 387 109 349 q 332 435 228 425 q 394 441 356 438 q 467 446 432 444 q 515 448 502 448 l 515 481 q 472 536 515 519 q 353 553 429 553 q 245 532 299 553 q 132 469 192 511 q 134 515 133 484 q 136 581 134 546 q 139 644 137 616 q 261 686 197 667 q 410 705 324 705 q 565 680 499 705 q 668 612 631 655 q 705 515 705 570 l 705 251 q 713 164 705 195 q 734 115 721 134 q 772 237 751 164 q 817 389 794 311 q 858 536 839 468 q 889 648 878 605 q 901 692 901 692 l 1114 692 q 1055 556 1078 613 q 1015 451 1031 498 m 515 241 l 515 322 q 475 320 502 322 q 419 315 448 317 q 373 310 391 312 q 277 277 303 302 q 251 217 251 251 q 277 162 251 184 q 345 139 303 139 q 427 157 387 139 q 515 241 467 175 z "},"ɐ":{"ha":810,"x_min":58,"x_max":749,"o":"m 105 173 l 105 437 q 92 571 105 511 q 58 688 79 631 l 241 688 q 257 650 247 674 q 275 597 268 625 q 394 680 332 654 q 515 705 456 705 q 636 676 583 705 q 719 598 689 646 q 749 495 749 551 q 725 391 749 444 q 642 301 701 339 q 478 253 583 263 q 417 248 455 251 q 344 243 378 245 q 295 241 309 241 l 295 207 q 338 152 295 169 q 458 135 382 135 q 565 157 512 135 q 678 220 618 178 q 677 174 678 205 q 675 107 676 142 q 671 44 673 72 q 550 2 614 22 q 400 -17 486 -17 q 245 8 311 -17 q 142 76 178 33 q 105 173 105 119 m 295 448 l 295 366 q 336 369 309 367 q 392 374 363 371 q 437 378 420 376 q 534 412 508 386 q 559 471 559 438 q 534 527 559 504 q 466 549 508 549 q 384 532 425 549 q 295 448 344 514 z "},"ᵄ":{"ha":581,"x_min":45,"x_max":530,"o":"m 79 574 l 79 745 q 70 832 79 793 q 45 909 60 871 l 173 909 q 185 883 178 899 q 197 849 192 867 q 280 903 237 886 q 366 920 324 920 q 483 878 437 920 q 530 783 530 837 q 513 715 530 749 q 454 657 496 682 q 339 625 413 632 q 296 622 323 624 q 245 619 270 621 q 212 618 221 618 l 212 595 q 242 560 212 571 q 325 549 272 549 q 400 563 363 549 q 479 604 438 577 q 478 553 479 589 q 475 490 477 517 q 390 463 434 475 q 285 450 345 450 q 135 486 191 450 q 79 574 79 521 m 212 752 l 212 699 q 259 702 226 699 q 311 707 293 705 q 378 729 360 712 q 397 768 397 746 q 378 804 397 789 q 331 819 360 819 q 274 807 302 819 q 212 752 245 795 z "},"ɑ":{"ha":852,"x_min":68,"x_max":794,"o":"m 794 0 l 614 0 q 595 54 604 16 q 582 133 587 92 q 576 199 576 174 l 576 237 q 507 120 551 179 q 402 22 462 62 q 271 -17 342 -17 q 127 59 186 -17 q 68 278 68 134 q 92 435 68 359 q 165 572 115 511 q 291 669 214 633 q 473 705 368 705 q 620 697 547 705 q 750 675 692 688 l 750 359 q 762 144 750 231 q 794 0 774 57 m 556 495 l 556 540 q 515 548 542 543 q 444 553 488 553 q 332 514 373 553 q 275 412 292 475 q 258 278 258 349 q 280 181 258 218 q 332 144 302 144 q 392 173 361 144 q 452 245 422 201 q 505 338 481 290 q 542 430 528 387 q 556 495 556 472 z "},"ꬰ":{"ha":909,"x_min":14,"x_max":895,"o":"m 842 0 l 661 0 q 643 54 652 16 q 629 133 634 92 q 624 199 624 174 l 624 237 q 554 120 599 179 q 450 22 509 62 q 319 -17 390 -17 q 174 59 233 -17 q 115 278 115 134 q 139 435 115 359 q 212 572 163 511 q 338 669 262 633 q 520 705 415 705 q 667 697 594 705 q 798 675 740 688 l 798 359 q 810 144 798 231 q 842 0 822 57 m 604 495 l 604 540 q 562 548 589 543 q 492 553 535 553 q 380 514 420 553 q 322 412 339 475 q 305 278 305 349 q 327 181 305 218 q 380 144 349 144 q 439 173 408 144 q 499 245 470 201 q 552 338 528 290 q 590 430 576 387 q 604 495 604 472 m 14 431 l 895 431 l 895 298 l 14 298 l 14 431 z "},"á":{"ha":852,"x_min":68,"x_max":794,"o":"m 794 0 l 614 0 q 595 54 604 16 q 582 133 587 92 q 576 199 576 174 l 576 237 q 507 120 551 179 q 402 22 462 62 q 271 -17 342 -17 q 127 59 186 -17 q 68 278 68 134 q 92 435 68 359 q 165 572 115 511 q 291 669 214 633 q 473 705 368 705 q 620 697 547 705 q 750 675 692 688 l 750 359 q 762 144 750 231 q 794 0 774 57 m 556 495 l 556 540 q 515 548 542 543 q 444 553 488 553 q 332 514 373 553 q 275 412 292 475 q 258 278 258 349 q 280 181 258 218 q 332 144 302 144 q 392 173 361 144 q 452 245 422 201 q 505 338 481 290 q 542 430 528 387 q 556 495 556 472 m 488 1085 l 726 1085 l 454 814 l 292 814 l 488 1085 z "},"à":{"ha":852,"x_min":68,"x_max":794,"o":"m 794 0 l 614 0 q 595 54 604 16 q 582 133 587 92 q 576 199 576 174 l 576 237 q 507 120 551 179 q 402 22 462 62 q 271 -17 342 -17 q 127 59 186 -17 q 68 278 68 134 q 92 435 68 359 q 165 572 115 511 q 291 669 214 633 q 473 705 368 705 q 620 697 547 705 q 750 675 692 688 l 750 359 q 762 144 750 231 q 794 0 774 57 m 556 495 l 556 540 q 515 548 542 543 q 444 553 488 553 q 332 514 373 553 q 275 412 292 475 q 258 278 258 349 q 280 181 258 218 q 332 144 302 144 q 392 173 361 144 q 452 245 422 201 q 505 338 481 290 q 542 430 528 387 q 556 495 556 472 m 156 1085 l 393 1085 l 590 814 l 427 814 l 156 1085 z "},"ȁ":{"ha":852,"x_min":68,"x_max":794,"o":"m 794 0 l 614 0 q 595 54 604 16 q 582 133 587 92 q 576 199 576 174 l 576 237 q 507 120 551 179 q 402 22 462 62 q 271 -17 342 -17 q 127 59 186 -17 q 68 278 68 134 q 92 435 68 359 q 165 572 115 511 q 291 669 214 633 q 473 705 368 705 q 620 697 547 705 q 750 675 692 688 l 750 359 q 762 144 750 231 q 794 0 774 57 m 556 495 l 556 540 q 515 548 542 543 q 444 553 488 553 q 332 514 373 553 q 275 412 292 475 q 258 278 258 349 q 280 181 258 218 q 332 144 302 144 q 392 173 361 144 q 452 245 422 201 q 505 338 481 290 q 542 430 528 387 q 556 495 556 472 m 373 1085 l 583 1085 l 726 814 l 576 814 l 373 1085 m 88 1085 l 298 1085 l 441 814 l 292 814 l 88 1085 z "},"â":{"ha":852,"x_min":68,"x_max":794,"o":"m 794 0 l 614 0 q 595 54 604 16 q 582 133 587 92 q 576 199 576 174 l 576 237 q 507 120 551 179 q 402 22 462 62 q 271 -17 342 -17 q 127 59 186 -17 q 68 278 68 134 q 92 435 68 359 q 165 572 115 511 q 291 669 214 633 q 473 705 368 705 q 620 697 547 705 q 750 675 692 688 l 750 359 q 762 144 750 231 q 794 0 774 57 m 556 495 l 556 540 q 515 548 542 543 q 444 553 488 553 q 332 514 373 553 q 275 412 292 475 q 258 278 258 349 q 280 181 258 218 q 332 144 302 144 q 392 173 361 144 q 452 245 422 201 q 505 338 481 290 q 542 430 528 387 q 556 495 556 472 m 739 814 l 576 814 l 441 970 l 305 814 l 142 814 l 339 1085 l 543 1085 l 739 814 z "},"ậ":{"ha":852,"x_min":68,"x_max":794,"o":"m 794 0 l 614 0 q 595 54 604 16 q 582 133 587 92 q 576 199 576 174 l 576 237 q 507 120 551 179 q 402 22 462 62 q 271 -17 342 -17 q 127 59 186 -17 q 68 278 68 134 q 92 435 68 359 q 165 572 115 511 q 291 669 214 633 q 473 705 368 705 q 620 697 547 705 q 750 675 692 688 l 750 359 q 762 144 750 231 q 794 0 774 57 m 556 495 l 556 540 q 515 548 542 543 q 444 553 488 553 q 332 514 373 553 q 275 412 292 475 q 258 278 258 349 q 280 181 258 218 q 332 144 302 144 q 392 173 361 144 q 452 245 422 201 q 505 338 481 290 q 542 430 528 387 q 556 495 556 472 m 322 -210 q 357 -126 322 -161 q 441 -92 392 -92 q 525 -126 490 -92 q 559 -210 559 -161 q 525 -295 559 -260 q 441 -329 490 -329 q 357 -295 392 -329 q 322 -210 322 -260 m 739 814 l 576 814 l 441 970 l 305 814 l 142 814 l 339 1085 l 543 1085 l 739 814 z "},"ấ":{"ha":852,"x_min":68,"x_max":794,"o":"m 794 0 l 614 0 q 595 54 604 16 q 582 133 587 92 q 576 199 576 174 l 576 237 q 507 120 551 179 q 402 22 462 62 q 271 -17 342 -17 q 127 59 186 -17 q 68 278 68 134 q 92 435 68 359 q 165 572 115 511 q 291 669 214 633 q 473 705 368 705 q 620 697 547 705 q 750 675 692 688 l 750 359 q 762 144 750 231 q 794 0 774 57 m 556 495 l 556 540 q 515 548 542 543 q 444 553 488 553 q 332 514 373 553 q 275 412 292 475 q 258 278 258 349 q 280 181 258 218 q 332 144 302 144 q 392 173 361 144 q 452 245 422 201 q 505 338 481 290 q 542 430 528 387 q 556 495 556 472 m 739 814 l 576 814 l 441 970 l 305 814 l 142 814 l 339 1085 l 543 1085 l 739 814 m 483 1448 l 720 1448 l 449 1177 l 286 1177 l 483 1448 z "},"ầ":{"ha":852,"x_min":68,"x_max":794,"o":"m 794 0 l 614 0 q 595 54 604 16 q 582 133 587 92 q 576 199 576 174 l 576 237 q 507 120 551 179 q 402 22 462 62 q 271 -17 342 -17 q 127 59 186 -17 q 68 278 68 134 q 92 435 68 359 q 165 572 115 511 q 291 669 214 633 q 473 705 368 705 q 620 697 547 705 q 750 675 692 688 l 750 359 q 762 144 750 231 q 794 0 774 57 m 556 495 l 556 540 q 515 548 542 543 q 444 553 488 553 q 332 514 373 553 q 275 412 292 475 q 258 278 258 349 q 280 181 258 218 q 332 144 302 144 q 392 173 361 144 q 452 245 422 201 q 505 338 481 290 q 542 430 528 387 q 556 495 556 472 m 739 814 l 576 814 l 441 970 l 305 814 l 142 814 l 339 1085 l 543 1085 l 739 814 m 151 1448 l 388 1448 l 585 1177 l 422 1177 l 151 1448 z "},"ẫ":{"ha":852,"x_min":68,"x_max":794,"o":"m 794 0 l 614 0 q 595 54 604 16 q 582 133 587 92 q 576 199 576 174 l 576 237 q 507 120 551 179 q 402 22 462 62 q 271 -17 342 -17 q 127 59 186 -17 q 68 278 68 134 q 92 435 68 359 q 165 572 115 511 q 291 669 214 633 q 473 705 368 705 q 620 697 547 705 q 750 675 692 688 l 750 359 q 762 144 750 231 q 794 0 774 57 m 556 495 l 556 540 q 515 548 542 543 q 444 553 488 553 q 332 514 373 553 q 275 412 292 475 q 258 278 258 349 q 280 181 258 218 q 332 144 302 144 q 392 173 361 144 q 452 245 422 201 q 505 338 481 290 q 542 430 528 387 q 556 495 556 472 m 739 814 l 576 814 l 441 970 l 305 814 l 142 814 l 339 1085 l 543 1085 l 739 814 m 266 1170 l 161 1170 q 180 1270 161 1224 q 234 1345 200 1316 q 313 1373 269 1373 q 381 1363 347 1373 q 456 1337 416 1352 q 519 1314 496 1322 q 566 1305 542 1305 q 602 1325 590 1305 q 618 1367 614 1345 l 724 1367 q 680 1221 724 1278 q 567 1163 636 1163 q 507 1172 536 1163 q 442 1196 478 1181 q 318 1231 360 1231 q 281 1211 293 1231 q 266 1170 269 1192 z "},"ẩ":{"ha":852,"x_min":68,"x_max":794,"o":"m 794 0 l 614 0 q 595 54 604 16 q 582 133 587 92 q 576 199 576 174 l 576 237 q 507 120 551 179 q 402 22 462 62 q 271 -17 342 -17 q 127 59 186 -17 q 68 278 68 134 q 92 435 68 359 q 165 572 115 511 q 291 669 214 633 q 473 705 368 705 q 620 697 547 705 q 750 675 692 688 l 750 359 q 762 144 750 231 q 794 0 774 57 m 556 495 l 556 540 q 515 548 542 543 q 444 553 488 553 q 332 514 373 553 q 275 412 292 475 q 258 278 258 349 q 280 181 258 218 q 332 144 302 144 q 392 173 361 144 q 452 245 422 201 q 505 338 481 290 q 542 430 528 387 q 556 495 556 472 m 739 814 l 576 814 l 441 970 l 305 814 l 142 814 l 339 1085 l 543 1085 l 739 814 m 485 1126 l 380 1126 q 385 1200 380 1169 q 404 1255 390 1232 q 447 1313 423 1288 q 471 1360 471 1338 q 414 1400 471 1400 q 312 1360 352 1400 l 295 1444 q 350 1478 317 1464 q 424 1492 383 1492 q 537 1460 492 1492 q 583 1370 583 1428 q 567 1315 583 1339 q 530 1272 550 1291 q 502 1238 511 1254 q 487 1192 490 1216 q 485 1126 485 1168 z "},"ȃ":{"ha":852,"x_min":68,"x_max":794,"o":"m 794 0 l 614 0 q 595 54 604 16 q 582 133 587 92 q 576 199 576 174 l 576 237 q 507 120 551 179 q 402 22 462 62 q 271 -17 342 -17 q 127 59 186 -17 q 68 278 68 134 q 92 435 68 359 q 165 572 115 511 q 291 669 214 633 q 473 705 368 705 q 620 697 547 705 q 750 675 692 688 l 750 359 q 762 144 750 231 q 794 0 774 57 m 556 495 l 556 540 q 515 548 542 543 q 444 553 488 553 q 332 514 373 553 q 275 412 292 475 q 258 278 258 349 q 280 181 258 218 q 332 144 302 144 q 392 173 361 144 q 452 245 422 201 q 505 338 481 290 q 542 430 528 387 q 556 495 556 472 m 715 773 l 593 773 q 539 875 582 835 q 441 916 497 916 q 342 875 385 916 q 288 773 298 835 l 166 773 q 200 903 166 839 q 296 1009 234 967 q 441 1051 358 1051 q 585 1009 524 1051 q 681 903 647 967 q 715 773 715 839 z "},"ă":{"ha":852,"x_min":68,"x_max":794,"o":"m 794 0 l 614 0 q 595 54 604 16 q 582 133 587 92 q 576 199 576 174 l 576 237 q 507 120 551 179 q 402 22 462 62 q 271 -17 342 -17 q 127 59 186 -17 q 68 278 68 134 q 92 435 68 359 q 165 572 115 511 q 291 669 214 633 q 473 705 368 705 q 620 697 547 705 q 750 675 692 688 l 750 359 q 762 144 750 231 q 794 0 774 57 m 556 495 l 556 540 q 515 548 542 543 q 444 553 488 553 q 332 514 373 553 q 275 412 292 475 q 258 278 258 349 q 280 181 258 218 q 332 144 302 144 q 392 173 361 144 q 452 245 422 201 q 505 338 481 290 q 542 430 528 387 q 556 495 556 472 m 593 1051 l 715 1051 q 681 921 715 985 q 585 815 647 857 q 441 773 524 773 q 296 815 358 773 q 200 921 234 857 q 166 1051 166 985 l 288 1051 q 342 949 298 989 q 441 909 385 909 q 539 949 497 909 q 593 1051 582 989 z "},"ặ":{"ha":852,"x_min":68,"x_max":794,"o":"m 794 0 l 614 0 q 595 54 604 16 q 582 133 587 92 q 576 199 576 174 l 576 237 q 507 120 551 179 q 402 22 462 62 q 271 -17 342 -17 q 127 59 186 -17 q 68 278 68 134 q 92 435 68 359 q 165 572 115 511 q 291 669 214 633 q 473 705 368 705 q 620 697 547 705 q 750 675 692 688 l 750 359 q 762 144 750 231 q 794 0 774 57 m 556 495 l 556 540 q 515 548 542 543 q 444 553 488 553 q 332 514 373 553 q 275 412 292 475 q 258 278 258 349 q 280 181 258 218 q 332 144 302 144 q 392 173 361 144 q 452 245 422 201 q 505 338 481 290 q 542 430 528 387 q 556 495 556 472 m 322 -210 q 357 -126 322 -161 q 441 -92 392 -92 q 525 -126 490 -92 q 559 -210 559 -161 q 525 -295 559 -260 q 441 -329 490 -329 q 357 -295 392 -329 q 322 -210 322 -260 m 593 1051 l 715 1051 q 681 921 715 985 q 585 815 647 857 q 441 773 524 773 q 296 815 358 773 q 200 921 234 857 q 166 1051 166 985 l 288 1051 q 342 949 298 989 q 441 909 385 909 q 539 949 497 909 q 593 1051 582 989 z "},"ắ":{"ha":852,"x_min":68,"x_max":794,"o":"m 794 0 l 614 0 q 595 54 604 16 q 582 133 587 92 q 576 199 576 174 l 576 237 q 507 120 551 179 q 402 22 462 62 q 271 -17 342 -17 q 127 59 186 -17 q 68 278 68 134 q 92 435 68 359 q 165 572 115 511 q 291 669 214 633 q 473 705 368 705 q 620 697 547 705 q 750 675 692 688 l 750 359 q 762 144 750 231 q 794 0 774 57 m 556 495 l 556 540 q 515 548 542 543 q 444 553 488 553 q 332 514 373 553 q 275 412 292 475 q 258 278 258 349 q 280 181 258 218 q 332 144 302 144 q 392 173 361 144 q 452 245 422 201 q 505 338 481 290 q 542 430 528 387 q 556 495 556 472 m 593 1051 l 715 1051 q 681 921 715 985 q 585 815 647 857 q 441 773 524 773 q 296 815 358 773 q 200 921 234 857 q 166 1051 166 985 l 288 1051 q 342 949 298 989 q 441 909 385 909 q 539 949 497 909 q 593 1051 582 989 m 488 1448 l 726 1448 l 454 1177 l 292 1177 l 488 1448 z "},"ằ":{"ha":852,"x_min":68,"x_max":794,"o":"m 794 0 l 614 0 q 595 54 604 16 q 582 133 587 92 q 576 199 576 174 l 576 237 q 507 120 551 179 q 402 22 462 62 q 271 -17 342 -17 q 127 59 186 -17 q 68 278 68 134 q 92 435 68 359 q 165 572 115 511 q 291 669 214 633 q 473 705 368 705 q 620 697 547 705 q 750 675 692 688 l 750 359 q 762 144 750 231 q 794 0 774 57 m 556 495 l 556 540 q 515 548 542 543 q 444 553 488 553 q 332 514 373 553 q 275 412 292 475 q 258 278 258 349 q 280 181 258 218 q 332 144 302 144 q 392 173 361 144 q 452 245 422 201 q 505 338 481 290 q 542 430 528 387 q 556 495 556 472 m 593 1051 l 715 1051 q 681 921 715 985 q 585 815 647 857 q 441 773 524 773 q 296 815 358 773 q 200 921 234 857 q 166 1051 166 985 l 288 1051 q 342 949 298 989 q 441 909 385 909 q 539 949 497 909 q 593 1051 582 989 m 156 1448 l 393 1448 l 590 1177 l 427 1177 l 156 1448 z "},"ẵ":{"ha":852,"x_min":68,"x_max":794,"o":"m 794 0 l 614 0 q 595 54 604 16 q 582 133 587 92 q 576 199 576 174 l 576 237 q 507 120 551 179 q 402 22 462 62 q 271 -17 342 -17 q 127 59 186 -17 q 68 278 68 134 q 92 435 68 359 q 165 572 115 511 q 291 669 214 633 q 473 705 368 705 q 620 697 547 705 q 750 675 692 688 l 750 359 q 762 144 750 231 q 794 0 774 57 m 556 495 l 556 540 q 515 548 542 543 q 444 553 488 553 q 332 514 373 553 q 275 412 292 475 q 258 278 258 349 q 280 181 258 218 q 332 144 302 144 q 392 173 361 144 q 452 245 422 201 q 505 338 481 290 q 542 430 528 387 q 556 495 556 472 m 593 1051 l 715 1051 q 681 921 715 985 q 585 815 647 857 q 441 773 524 773 q 296 815 358 773 q 200 921 234 857 q 166 1051 166 985 l 288 1051 q 342 949 298 989 q 441 909 385 909 q 539 949 497 909 q 593 1051 582 989 m 271 1170 l 166 1170 q 186 1270 166 1224 q 240 1345 205 1316 q 319 1373 274 1373 q 387 1363 352 1373 q 461 1337 421 1352 q 524 1314 501 1322 q 572 1305 547 1305 q 608 1325 595 1305 q 624 1367 620 1345 l 729 1367 q 685 1221 729 1278 q 572 1163 642 1163 q 512 1172 541 1163 q 448 1196 484 1181 q 323 1231 366 1231 q 287 1211 298 1231 q 271 1170 275 1192 z "},"ẳ":{"ha":852,"x_min":68,"x_max":794,"o":"m 794 0 l 614 0 q 595 54 604 16 q 582 133 587 92 q 576 199 576 174 l 576 237 q 507 120 551 179 q 402 22 462 62 q 271 -17 342 -17 q 127 59 186 -17 q 68 278 68 134 q 92 435 68 359 q 165 572 115 511 q 291 669 214 633 q 473 705 368 705 q 620 697 547 705 q 750 675 692 688 l 750 359 q 762 144 750 231 q 794 0 774 57 m 556 495 l 556 540 q 515 548 542 543 q 444 553 488 553 q 332 514 373 553 q 275 412 292 475 q 258 278 258 349 q 280 181 258 218 q 332 144 302 144 q 392 173 361 144 q 452 245 422 201 q 505 338 481 290 q 542 430 528 387 q 556 495 556 472 m 593 1051 l 715 1051 q 681 921 715 985 q 585 815 647 857 q 441 773 524 773 q 296 815 358 773 q 200 921 234 857 q 166 1051 166 985 l 288 1051 q 342 949 298 989 q 441 909 385 909 q 539 949 497 909 q 593 1051 582 989 m 490 1126 l 385 1126 q 390 1200 385 1169 q 409 1255 395 1232 q 453 1313 429 1288 q 477 1360 477 1338 q 419 1400 477 1400 q 317 1360 357 1400 l 300 1444 q 355 1478 322 1464 q 429 1492 389 1492 q 543 1460 497 1492 q 589 1370 589 1428 q 572 1315 589 1339 q 536 1272 555 1291 q 507 1238 516 1254 q 493 1192 495 1216 q 490 1126 490 1168 z "},"ǎ":{"ha":852,"x_min":68,"x_max":794,"o":"m 794 0 l 614 0 q 595 54 604 16 q 582 133 587 92 q 576 199 576 174 l 576 237 q 507 120 551 179 q 402 22 462 62 q 271 -17 342 -17 q 127 59 186 -17 q 68 278 68 134 q 92 435 68 359 q 165 572 115 511 q 291 669 214 633 q 473 705 368 705 q 620 697 547 705 q 750 675 692 688 l 750 359 q 762 144 750 231 q 794 0 774 57 m 556 495 l 556 540 q 515 548 542 543 q 444 553 488 553 q 332 514 373 553 q 275 412 292 475 q 258 278 258 349 q 280 181 258 218 q 332 144 302 144 q 392 173 361 144 q 452 245 422 201 q 505 338 481 290 q 542 430 528 387 q 556 495 556 472 m 582 1085 l 745 1085 l 548 814 l 345 814 l 148 1085 l 311 1085 l 446 929 l 582 1085 z "},"ã":{"ha":852,"x_min":68,"x_max":794,"o":"m 794 0 l 614 0 q 595 54 604 16 q 582 133 587 92 q 576 199 576 174 l 576 237 q 507 120 551 179 q 402 22 462 62 q 271 -17 342 -17 q 127 59 186 -17 q 68 278 68 134 q 92 435 68 359 q 165 572 115 511 q 291 669 214 633 q 473 705 368 705 q 620 697 547 705 q 750 675 692 688 l 750 359 q 762 144 750 231 q 794 0 774 57 m 556 495 l 556 540 q 515 548 542 543 q 444 553 488 553 q 332 514 373 553 q 275 412 292 475 q 258 278 258 349 q 280 181 258 218 q 332 144 302 144 q 392 173 361 144 q 452 245 422 201 q 505 338 481 290 q 542 430 528 387 q 556 495 556 472 m 271 807 l 166 807 q 186 907 166 861 q 240 982 205 954 q 319 1010 274 1010 q 387 1000 352 1010 q 461 975 421 989 q 524 951 501 960 q 572 943 547 943 q 608 963 595 943 q 624 1004 620 983 l 729 1004 q 685 858 729 916 q 572 800 642 800 q 512 809 541 800 q 448 833 484 819 q 323 868 366 868 q 287 848 298 868 q 271 807 275 829 z "},"ā":{"ha":852,"x_min":68,"x_max":794,"o":"m 794 0 l 614 0 q 595 54 604 16 q 582 133 587 92 q 576 199 576 174 l 576 237 q 507 120 551 179 q 402 22 462 62 q 271 -17 342 -17 q 127 59 186 -17 q 68 278 68 134 q 92 435 68 359 q 165 572 115 511 q 291 669 214 633 q 473 705 368 705 q 620 697 547 705 q 750 675 692 688 l 750 359 q 762 144 750 231 q 794 0 774 57 m 556 495 l 556 540 q 515 548 542 543 q 444 553 488 553 q 332 514 373 553 q 275 412 292 475 q 258 278 258 349 q 280 181 258 218 q 332 144 302 144 q 392 173 361 144 q 452 245 422 201 q 505 338 481 290 q 542 430 528 387 q 556 495 556 472 m 159 827 l 159 963 l 722 963 l 722 827 l 159 827 z "},"ä":{"ha":852,"x_min":68,"x_max":794,"o":"m 794 0 l 614 0 q 595 54 604 16 q 582 133 587 92 q 576 199 576 174 l 576 237 q 507 120 551 179 q 402 22 462 62 q 271 -17 342 -17 q 127 59 186 -17 q 68 278 68 134 q 92 435 68 359 q 165 572 115 511 q 291 669 214 633 q 473 705 368 705 q 620 697 547 705 q 750 675 692 688 l 750 359 q 762 144 750 231 q 794 0 774 57 m 556 495 l 556 540 q 515 548 542 543 q 444 553 488 553 q 332 514 373 553 q 275 412 292 475 q 258 278 258 349 q 280 181 258 218 q 332 144 302 144 q 392 173 361 144 q 452 245 422 201 q 505 338 481 290 q 542 430 528 387 q 556 495 556 472 m 488 939 q 522 1025 488 991 q 607 1058 555 1058 q 692 1025 659 1058 q 726 939 726 991 q 692 853 726 886 q 607 821 659 821 q 522 853 555 821 q 488 939 488 886 m 156 939 q 190 1025 156 991 q 275 1058 223 1058 q 360 1025 327 1058 q 393 939 393 991 q 360 853 393 886 q 275 821 327 821 q 190 853 223 821 q 156 939 156 886 z "},"ǟ":{"ha":852,"x_min":68,"x_max":794,"o":"m 794 0 l 614 0 q 595 54 604 16 q 582 133 587 92 q 576 199 576 174 l 576 237 q 507 120 551 179 q 402 22 462 62 q 271 -17 342 -17 q 127 59 186 -17 q 68 278 68 134 q 92 435 68 359 q 165 572 115 511 q 291 669 214 633 q 473 705 368 705 q 620 697 547 705 q 750 675 692 688 l 750 359 q 762 144 750 231 q 794 0 774 57 m 556 495 l 556 540 q 515 548 542 543 q 444 553 488 553 q 332 514 373 553 q 275 412 292 475 q 258 278 258 349 q 280 181 258 218 q 332 144 302 144 q 392 173 361 144 q 452 245 422 201 q 505 338 481 290 q 542 430 528 387 q 556 495 556 472 m 488 939 q 522 1025 488 991 q 607 1058 555 1058 q 692 1025 659 1058 q 726 939 726 991 q 692 853 726 886 q 607 821 659 821 q 522 853 555 821 q 488 939 488 886 m 156 939 q 190 1025 156 991 q 275 1058 223 1058 q 360 1025 327 1058 q 393 939 393 991 q 360 853 393 886 q 275 821 327 821 q 190 853 223 821 q 156 939 156 886 m 159 1156 l 159 1292 l 722 1292 l 722 1156 l 159 1156 z "},"ȧ":{"ha":852,"x_min":68,"x_max":794,"o":"m 794 0 l 614 0 q 595 54 604 16 q 582 133 587 92 q 576 199 576 174 l 576 237 q 507 120 551 179 q 402 22 462 62 q 271 -17 342 -17 q 127 59 186 -17 q 68 278 68 134 q 92 435 68 359 q 165 572 115 511 q 291 669 214 633 q 473 705 368 705 q 620 697 547 705 q 750 675 692 688 l 750 359 q 762 144 750 231 q 794 0 774 57 m 556 495 l 556 540 q 515 548 542 543 q 444 553 488 553 q 332 514 373 553 q 275 412 292 475 q 258 278 258 349 q 280 181 258 218 q 332 144 302 144 q 392 173 361 144 q 452 245 422 201 q 505 338 481 290 q 542 430 528 387 q 556 495 556 472 m 332 939 q 366 1025 332 991 q 451 1058 399 1058 q 536 1025 503 1058 q 570 939 570 991 q 536 853 570 886 q 451 821 503 821 q 366 853 399 821 q 332 939 332 886 z "},"ǡ":{"ha":852,"x_min":68,"x_max":794,"o":"m 794 0 l 614 0 q 595 54 604 16 q 582 133 587 92 q 576 199 576 174 l 576 237 q 507 120 551 179 q 402 22 462 62 q 271 -17 342 -17 q 127 59 186 -17 q 68 278 68 134 q 92 435 68 359 q 165 572 115 511 q 291 669 214 633 q 473 705 368 705 q 620 697 547 705 q 750 675 692 688 l 750 359 q 762 144 750 231 q 794 0 774 57 m 556 495 l 556 540 q 515 548 542 543 q 444 553 488 553 q 332 514 373 553 q 275 412 292 475 q 258 278 258 349 q 280 181 258 218 q 332 144 302 144 q 392 173 361 144 q 452 245 422 201 q 505 338 481 290 q 542 430 528 387 q 556 495 556 472 m 332 939 q 366 1025 332 991 q 451 1058 399 1058 q 536 1025 503 1058 q 570 939 570 991 q 536 853 570 886 q 451 821 503 821 q 366 853 399 821 q 332 939 332 886 m 159 1136 l 159 1272 l 722 1272 l 722 1136 l 159 1136 z "},"å":{"ha":852,"x_min":68,"x_max":794,"o":"m 794 0 l 614 0 q 595 54 604 16 q 582 133 587 92 q 576 199 576 174 l 576 237 q 507 120 551 179 q 402 22 462 62 q 271 -17 342 -17 q 127 59 186 -17 q 68 278 68 134 q 92 435 68 359 q 165 572 115 511 q 291 669 214 633 q 473 705 368 705 q 620 697 547 705 q 750 675 692 688 l 750 359 q 762 144 750 231 q 794 0 774 57 m 556 495 l 556 540 q 515 548 542 543 q 444 553 488 553 q 332 514 373 553 q 275 412 292 475 q 258 278 258 349 q 280 181 258 218 q 332 144 302 144 q 392 173 361 144 q 452 245 422 201 q 505 338 481 290 q 542 430 528 387 q 556 495 556 472 m 509 949 q 490 997 509 980 q 441 1014 471 1014 q 392 997 410 1014 q 373 949 373 980 q 392 902 373 919 q 441 885 410 885 q 490 902 471 885 q 509 949 509 919 m 275 949 q 322 1066 275 1021 q 441 1112 370 1112 q 559 1066 512 1112 q 607 949 607 1021 q 559 832 607 878 q 441 787 512 787 q 322 832 370 787 q 275 949 275 878 z "},"ǻ":{"ha":852,"x_min":68,"x_max":794,"o":"m 794 0 l 614 0 q 595 54 604 16 q 582 133 587 92 q 576 199 576 174 l 576 237 q 507 120 551 179 q 402 22 462 62 q 271 -17 342 -17 q 127 59 186 -17 q 68 278 68 134 q 92 435 68 359 q 165 572 115 511 q 291 669 214 633 q 473 705 368 705 q 620 697 547 705 q 750 675 692 688 l 750 359 q 762 144 750 231 q 794 0 774 57 m 556 495 l 556 540 q 515 548 542 543 q 444 553 488 553 q 332 514 373 553 q 275 412 292 475 q 258 278 258 349 q 280 181 258 218 q 332 144 302 144 q 392 173 361 144 q 452 245 422 201 q 505 338 481 290 q 542 430 528 387 q 556 495 556 472 m 509 949 q 490 997 509 980 q 441 1014 471 1014 q 392 997 410 1014 q 373 949 373 980 q 392 902 373 919 q 441 885 410 885 q 490 902 471 885 q 509 949 509 919 m 275 949 q 322 1066 275 1021 q 441 1112 370 1112 q 559 1066 512 1112 q 607 949 607 1021 q 559 832 607 878 q 441 787 512 787 q 322 832 370 787 q 275 949 275 878 m 488 1448 l 726 1448 l 454 1177 l 292 1177 l 488 1448 z "},"ẚ":{"ha":852,"x_min":68,"x_max":794,"o":"m 794 0 l 614 0 q 595 54 604 16 q 582 133 587 92 q 576 199 576 174 l 576 237 q 507 120 551 179 q 402 22 462 62 q 271 -17 342 -17 q 127 59 186 -17 q 68 278 68 134 q 92 435 68 359 q 165 572 115 511 q 291 669 214 633 q 473 705 368 705 q 620 697 547 705 q 750 675 692 688 l 750 359 q 762 144 750 231 q 794 0 774 57 m 556 495 l 556 540 q 515 548 542 543 q 444 553 488 553 q 332 514 373 553 q 275 412 292 475 q 258 278 258 349 q 280 181 258 218 q 332 144 302 144 q 392 173 361 144 q 452 245 422 201 q 505 338 481 290 q 542 430 528 387 q 556 495 556 472 m 536 932 q 491 828 536 873 q 376 783 446 783 l 376 858 q 430 878 406 858 q 454 932 454 899 q 430 985 454 966 q 376 1004 406 1004 l 376 1078 q 491 1035 446 1078 q 536 932 536 991 z "},"ả":{"ha":852,"x_min":68,"x_max":794,"o":"m 794 0 l 614 0 q 595 54 604 16 q 582 133 587 92 q 576 199 576 174 l 576 237 q 507 120 551 179 q 402 22 462 62 q 271 -17 342 -17 q 127 59 186 -17 q 68 278 68 134 q 92 435 68 359 q 165 572 115 511 q 291 669 214 633 q 473 705 368 705 q 620 697 547 705 q 750 675 692 688 l 750 359 q 762 144 750 231 q 794 0 774 57 m 556 495 l 556 540 q 515 548 542 543 q 444 553 488 553 q 332 514 373 553 q 275 412 292 475 q 258 278 258 349 q 280 181 258 218 q 332 144 302 144 q 392 173 361 144 q 452 245 422 201 q 505 338 481 290 q 542 430 528 387 q 556 495 556 472 m 490 763 l 385 763 q 390 838 385 806 q 409 892 395 869 q 453 950 429 925 q 477 997 477 975 q 419 1038 477 1038 q 317 997 357 1038 l 300 1082 q 355 1115 322 1101 q 429 1129 389 1129 q 543 1097 497 1129 q 589 1007 589 1065 q 572 952 589 976 q 536 909 555 928 q 507 875 516 891 q 493 829 495 853 q 490 763 490 805 z "},"ạ":{"ha":852,"x_min":68,"x_max":794,"o":"m 794 0 l 614 0 q 595 54 604 16 q 582 133 587 92 q 576 199 576 174 l 576 237 q 507 120 551 179 q 402 22 462 62 q 271 -17 342 -17 q 127 59 186 -17 q 68 278 68 134 q 92 435 68 359 q 165 572 115 511 q 291 669 214 633 q 473 705 368 705 q 620 697 547 705 q 750 675 692 688 l 750 359 q 762 144 750 231 q 794 0 774 57 m 556 495 l 556 540 q 515 548 542 543 q 444 553 488 553 q 332 514 373 553 q 275 412 292 475 q 258 278 258 349 q 280 181 258 218 q 332 144 302 144 q 392 173 361 144 q 452 245 422 201 q 505 338 481 290 q 542 430 528 387 q 556 495 556 472 m 322 -210 q 357 -126 322 -161 q 441 -92 392 -92 q 525 -126 490 -92 q 559 -210 559 -161 q 525 -295 559 -260 q 441 -329 490 -329 q 357 -295 392 -329 q 322 -210 322 -260 z "},"ḁ":{"ha":852,"x_min":68,"x_max":794,"o":"m 794 0 l 614 0 q 595 54 604 16 q 582 133 587 92 q 576 199 576 174 l 576 237 q 507 120 551 179 q 402 22 462 62 q 271 -17 342 -17 q 127 59 186 -17 q 68 278 68 134 q 92 435 68 359 q 165 572 115 511 q 291 669 214 633 q 473 705 368 705 q 620 697 547 705 q 750 675 692 688 l 750 359 q 762 144 750 231 q 794 0 774 57 m 556 495 l 556 540 q 515 548 542 543 q 444 553 488 553 q 332 514 373 553 q 275 412 292 475 q 258 278 258 349 q 280 181 258 218 q 332 144 302 144 q 392 173 361 144 q 452 245 422 201 q 505 338 481 290 q 542 430 528 387 q 556 495 556 472 m 509 -237 q 490 -190 509 -207 q 441 -173 471 -173 q 392 -190 410 -173 q 373 -237 373 -207 q 392 -285 373 -268 q 441 -302 410 -302 q 490 -285 471 -302 q 509 -237 509 -268 m 275 -237 q 322 -120 275 -166 q 441 -75 370 -75 q 559 -120 512 -75 q 607 -237 607 -166 q 559 -354 607 -309 q 441 -400 512 -400 q 322 -354 370 -400 q 275 -237 275 -309 z "},"ą":{"ha":852,"x_min":68,"x_max":861,"o":"m 794 0 l 614 0 q 595 54 604 16 q 582 133 587 92 q 576 199 576 174 l 576 237 q 507 120 551 179 q 402 22 462 62 q 271 -17 342 -17 q 127 59 186 -17 q 68 278 68 134 q 92 435 68 359 q 165 572 115 511 q 291 669 214 633 q 473 705 368 705 q 620 697 547 705 q 750 675 692 688 l 750 359 q 762 144 750 231 q 794 0 774 57 m 556 495 l 556 540 q 515 548 542 543 q 444 553 488 553 q 332 514 373 553 q 275 412 292 475 q 258 278 258 349 q 280 181 258 218 q 332 144 302 144 q 392 173 361 144 q 452 245 422 201 q 505 338 481 290 q 542 430 528 387 q 556 495 556 472 m 641 0 l 756 0 q 677 -61 704 -33 q 651 -125 651 -90 q 670 -176 651 -159 q 722 -193 690 -193 q 760 -187 737 -193 q 806 -169 783 -180 q 841 -142 829 -157 l 861 -237 q 789 -282 832 -267 q 709 -298 747 -298 q 621 -279 661 -298 q 556 -226 581 -259 q 532 -153 532 -193 q 560 -62 532 -100 q 641 0 588 -25 z "},"ⱥ":{"ha":852,"x_min":68,"x_max":794,"o":"m 794 0 l 614 0 q 595 54 604 16 q 582 133 587 92 q 576 199 576 174 l 576 237 q 504 120 548 179 q 401 22 459 62 q 271 -17 342 -17 q 127 59 186 -17 q 68 278 68 134 q 92 435 68 359 q 165 572 115 511 q 291 669 214 633 q 473 705 368 705 q 620 697 547 705 q 750 675 692 688 l 750 359 q 762 144 750 231 q 794 0 774 57 m 556 495 l 556 540 q 515 548 542 543 q 444 553 488 553 q 331 514 373 553 q 270 412 288 475 q 251 278 251 349 q 276 181 251 218 q 332 144 302 144 q 394 173 363 144 q 455 245 426 201 q 507 338 484 290 q 543 430 530 387 q 556 495 556 472 m 498 766 l 641 766 l 248 -78 l 105 -78 l 498 766 z "},"ᵅ":{"ha":593,"x_min":48,"x_max":557,"o":"m 557 461 l 431 461 q 417 496 423 471 q 408 547 412 521 q 404 590 404 574 l 404 616 q 355 539 387 578 q 282 476 324 501 q 191 450 240 450 q 90 499 131 450 q 48 642 48 549 q 78 775 48 712 q 171 879 108 839 q 332 920 233 920 q 434 914 383 920 q 526 900 485 908 l 526 695 q 534 555 526 612 q 557 461 543 498 m 390 783 l 390 812 q 361 818 380 814 q 311 821 342 821 q 233 795 262 821 q 193 729 205 770 q 181 642 181 688 q 197 579 181 603 q 233 555 212 555 q 285 583 258 555 q 336 650 313 610 q 375 727 360 690 q 390 783 390 764 z "},"ᶐ":{"ha":852,"x_min":68,"x_max":1043,"o":"m 750 675 l 750 359 q 762 144 750 231 q 794 0 774 57 l 614 0 q 595 54 604 16 q 582 133 587 92 q 576 199 576 174 l 576 237 q 504 120 548 179 q 401 22 459 62 q 271 -17 342 -17 q 127 59 186 -17 q 68 278 68 134 q 92 435 68 359 q 165 572 115 511 q 291 669 214 633 q 473 705 368 705 q 620 697 547 705 q 750 675 692 688 m 556 495 l 556 540 q 515 548 542 543 q 444 553 488 553 q 332 514 373 553 q 275 412 292 475 q 258 278 258 349 q 280 181 258 218 q 332 144 302 144 q 394 173 363 144 q 455 245 426 201 q 507 338 484 290 q 543 430 530 387 q 556 495 556 472 m 1014 -161 l 1043 -271 q 982 -304 1023 -287 q 895 -322 941 -322 q 758 -271 809 -322 q 707 -120 707 -220 l 707 0 l 663 0 l 663 112 l 842 112 l 842 -97 q 866 -178 842 -155 q 919 -201 890 -201 q 972 -187 946 -201 q 1014 -161 999 -172 z "},"ꭤ":{"ha":852,"x_min":68,"x_max":794,"o":"m 614 686 l 794 686 q 762 542 774 629 q 750 327 750 455 l 750 12 q 620 -10 692 -1 q 473 -19 547 -19 q 291 17 368 -19 q 165 114 214 53 q 92 251 115 175 q 68 408 68 328 q 97 570 68 505 q 173 669 125 635 q 278 703 221 703 q 407 664 349 703 q 508 566 465 625 q 576 449 551 507 l 576 488 q 582 554 576 513 q 595 633 587 595 q 614 686 604 671 m 556 146 l 556 191 q 543 257 556 214 q 507 348 530 299 q 455 441 484 397 q 394 513 426 485 q 332 542 363 542 q 280 505 302 542 q 258 408 258 468 q 275 275 258 338 q 332 172 292 212 q 444 133 373 133 q 515 138 488 133 q 556 146 542 143 z "},"ɒ":{"ha":852,"x_min":64,"x_max":791,"o":"m 64 688 l 245 688 q 263 635 255 673 q 277 556 272 597 q 282 490 282 515 l 282 451 q 355 568 311 509 q 458 666 399 627 q 587 705 517 705 q 732 630 673 705 q 791 410 791 554 q 767 253 791 330 q 694 116 743 177 q 568 19 644 55 q 386 -17 491 -17 q 239 -8 312 -17 q 109 14 167 1 l 109 329 q 96 544 109 457 q 64 688 84 631 m 302 193 l 302 149 q 344 140 317 145 q 414 135 371 135 q 527 174 486 135 q 584 277 567 214 q 601 410 601 340 q 579 507 601 470 q 526 544 557 544 q 464 515 496 544 q 404 443 433 487 q 352 350 375 399 q 316 259 329 301 q 302 193 302 216 z "},"ᶛ":{"ha":593,"x_min":49,"x_max":557,"o":"m 49 909 l 175 909 q 188 873 182 898 q 197 822 193 849 q 201 779 201 795 l 201 754 q 252 830 221 792 q 324 894 283 869 q 414 920 365 920 q 515 870 474 920 q 557 728 557 821 q 527 594 557 658 q 434 490 497 530 q 273 450 372 450 q 171 456 222 450 q 79 470 120 461 l 79 675 q 71 815 79 758 q 49 909 62 871 m 215 587 l 215 557 q 244 552 225 555 q 294 549 263 549 q 372 574 344 549 q 412 641 400 600 q 424 728 424 682 q 409 790 424 766 q 372 814 393 814 q 318 787 345 814 q 267 720 290 759 q 229 643 243 680 q 215 587 215 606 z "},"ӕ":{"ha":1206,"x_min":68,"x_max":1141,"o":"m 1127 208 l 1141 51 q 1000 -2 1068 14 q 852 -17 932 -17 q 693 18 768 -17 q 573 122 619 52 q 557 106 567 115 q 543 92 548 97 q 302 -17 422 -17 q 181 13 234 -17 q 98 90 128 42 q 68 193 68 138 q 92 296 68 245 q 175 383 116 347 q 339 428 234 419 q 401 432 363 430 q 474 436 439 435 q 522 438 509 438 l 522 481 q 479 536 522 519 q 359 553 436 553 q 252 532 306 553 q 139 469 199 511 q 140 515 140 484 q 142 581 141 546 q 146 644 144 616 q 267 686 203 667 q 417 705 331 705 q 544 683 488 705 q 638 621 600 660 q 734 683 680 661 q 852 705 789 705 q 993 676 938 705 q 1080 597 1048 646 q 1125 486 1112 547 q 1138 361 1138 425 l 1138 305 l 700 305 q 750 178 707 217 q 869 139 793 139 q 1000 155 936 139 q 1127 208 1064 170 m 515 312 q 473 310 499 311 q 421 306 447 308 q 380 302 395 304 q 283 273 309 295 q 258 217 258 251 q 284 162 258 184 q 351 139 310 139 q 428 154 390 139 q 509 223 466 170 q 517 232 513 228 q 524 241 521 237 q 515 312 516 279 m 704 427 l 965 427 q 934 531 965 498 q 843 563 903 563 q 750 531 785 563 q 704 427 715 500 z "},"ǽ":{"ha":1206,"x_min":68,"x_max":1141,"o":"m 1127 208 l 1141 51 q 1000 -2 1068 14 q 852 -17 932 -17 q 693 18 768 -17 q 573 122 619 52 q 557 106 567 115 q 543 92 548 97 q 302 -17 422 -17 q 181 13 234 -17 q 98 90 128 42 q 68 193 68 138 q 92 296 68 245 q 175 383 116 347 q 339 428 234 419 q 401 432 363 430 q 474 436 439 435 q 522 438 509 438 l 522 481 q 479 536 522 519 q 359 553 436 553 q 252 532 306 553 q 139 469 199 511 q 140 515 140 484 q 142 581 141 546 q 146 644 144 616 q 267 686 203 667 q 417 705 331 705 q 544 683 488 705 q 638 621 600 660 q 734 683 680 661 q 852 705 789 705 q 993 676 938 705 q 1080 597 1048 646 q 1125 486 1112 547 q 1138 361 1138 425 l 1138 305 l 700 305 q 750 178 707 217 q 869 139 793 139 q 1000 155 936 139 q 1127 208 1064 170 m 515 312 q 473 310 499 311 q 421 306 447 308 q 380 302 395 304 q 283 273 309 295 q 258 217 258 251 q 284 162 258 184 q 351 139 310 139 q 428 154 390 139 q 509 223 466 170 q 517 232 513 228 q 524 241 521 237 q 515 312 516 279 m 704 427 l 965 427 q 934 531 965 498 q 843 563 903 563 q 750 531 785 563 q 704 427 715 500 m 686 1085 l 923 1085 l 652 814 l 489 814 l 686 1085 z "},"ǣ":{"ha":1206,"x_min":68,"x_max":1141,"o":"m 1127 208 l 1141 51 q 1000 -2 1068 14 q 852 -17 932 -17 q 693 18 768 -17 q 573 122 619 52 q 557 106 567 115 q 543 92 548 97 q 302 -17 422 -17 q 181 13 234 -17 q 98 90 128 42 q 68 193 68 138 q 92 296 68 245 q 175 383 116 347 q 339 428 234 419 q 401 432 363 430 q 474 436 439 435 q 522 438 509 438 l 522 481 q 479 536 522 519 q 359 553 436 553 q 252 532 306 553 q 139 469 199 511 q 140 515 140 484 q 142 581 141 546 q 146 644 144 616 q 267 686 203 667 q 417 705 331 705 q 544 683 488 705 q 638 621 600 660 q 734 683 680 661 q 852 705 789 705 q 993 676 938 705 q 1080 597 1048 646 q 1125 486 1112 547 q 1138 361 1138 425 l 1138 305 l 700 305 q 750 178 707 217 q 869 139 793 139 q 1000 155 936 139 q 1127 208 1064 170 m 515 312 q 473 310 499 311 q 421 306 447 308 q 380 302 395 304 q 283 273 309 295 q 258 217 258 251 q 284 162 258 184 q 351 139 310 139 q 428 154 390 139 q 509 223 466 170 q 517 232 513 228 q 524 241 521 237 q 515 312 516 279 m 704 427 l 965 427 q 934 531 965 498 q 843 563 903 563 q 750 531 785 563 q 704 427 715 500 m 357 827 l 357 963 l 920 963 l 920 827 l 357 827 z "},"ᴂ":{"ha":1199,"x_min":68,"x_max":1138,"o":"m 68 383 l 506 383 q 458 510 499 471 q 345 549 418 549 q 220 534 281 549 q 99 481 159 519 l 85 637 q 221 690 155 675 q 363 705 288 705 q 517 671 446 705 q 633 566 588 636 q 648 583 639 574 q 663 597 658 592 q 904 705 783 705 q 1025 676 972 705 q 1108 601 1078 648 q 1138 498 1138 553 q 1114 397 1138 448 q 1031 312 1090 347 q 867 267 972 276 q 805 263 844 265 q 732 259 767 261 q 684 257 698 258 l 684 211 q 731 153 684 171 q 861 135 778 135 q 978 157 920 135 q 1101 220 1036 178 q 1100 175 1101 205 q 1097 112 1099 146 q 1093 51 1096 79 q 964 4 1031 25 q 804 -17 896 -17 q 668 6 728 -17 q 568 68 608 28 q 472 5 526 28 q 353 -17 418 -17 q 178 35 240 -17 q 92 177 116 87 q 68 383 68 267 m 691 383 q 733 386 707 384 q 785 389 759 387 q 826 392 810 391 q 922 421 897 399 q 948 475 948 442 q 922 528 948 506 q 854 549 897 549 q 778 535 816 549 q 696 469 741 521 q 689 460 693 464 q 682 451 686 456 q 691 383 690 414 m 502 261 l 241 261 q 272 158 241 190 q 363 125 303 125 q 456 157 421 125 q 502 261 490 189 z "},"ᵆ":{"ha":833,"x_min":45,"x_max":794,"o":"m 45 710 l 351 710 q 318 793 347 768 q 239 819 290 819 q 151 808 194 819 q 66 774 109 798 l 57 876 q 152 910 106 900 q 252 920 198 920 q 359 897 309 920 q 440 829 409 875 q 451 840 444 834 q 462 849 458 846 q 630 920 545 920 q 748 879 701 920 q 794 785 794 838 q 777 720 794 752 q 719 664 760 687 q 604 635 677 641 q 561 632 587 633 q 510 630 534 631 q 476 628 486 629 l 476 598 q 509 561 476 572 q 600 549 542 549 q 682 563 641 549 q 768 604 722 577 q 766 555 768 589 q 762 494 765 522 q 672 464 720 477 q 560 450 625 450 q 465 465 507 450 q 395 505 423 479 q 327 465 365 479 q 245 450 290 450 q 122 484 165 450 q 62 576 79 517 q 45 710 45 635 m 481 710 q 528 713 497 711 q 576 716 559 715 q 643 735 625 721 q 661 770 661 749 q 643 804 661 790 q 595 819 625 819 q 542 809 568 819 q 485 766 515 800 q 480 760 482 763 q 475 754 477 758 q 481 710 480 730 m 349 631 l 165 631 q 252 543 165 543 q 316 563 292 543 q 349 631 340 584 z "},"α":{"ha":872,"x_min":68,"x_max":842,"o":"m 68 298 q 91 452 68 379 q 158 583 115 526 q 261 672 201 640 q 394 705 321 705 q 532 674 474 705 q 630 563 591 642 q 692 340 669 484 q 726 214 706 256 q 774 158 745 172 q 842 144 802 144 l 842 -10 q 734 0 780 -10 q 654 44 688 11 q 595 146 621 78 q 551 329 570 214 q 511 465 536 416 q 456 533 487 513 q 391 553 425 553 q 297 490 337 553 q 258 319 258 426 q 286 195 258 245 q 360 144 314 144 q 486 209 425 144 q 597 396 548 273 q 673 692 647 518 l 832 692 q 707 301 784 459 q 535 63 630 144 q 340 -17 441 -17 q 208 16 271 -17 q 107 118 146 49 q 68 298 68 188 z "},"А":{"ha":1007,"x_min":35,"x_max":955,"o":"m 756 0 l 681 241 l 312 241 l 237 0 l 35 0 q 73 93 54 41 q 123 241 92 144 l 374 990 l 616 990 l 867 241 q 918 93 899 146 q 955 0 937 41 l 756 0 m 495 833 l 357 387 l 635 387 l 495 833 z "},"ᴬ":{"ha":682,"x_min":18,"x_max":662,"o":"m 159 461 l 18 461 q 44 522 31 488 q 79 618 57 555 l 255 1105 l 425 1105 l 600 618 q 636 522 623 556 q 662 461 649 488 l 523 461 l 470 618 l 212 618 l 159 461 m 437 713 l 340 1002 l 243 713 l 437 713 z "},"ᴀ":{"ha":838,"x_min":17,"x_max":824,"o":"m 17 0 q 49 65 33 29 q 93 168 66 101 l 307 692 l 534 692 l 749 168 q 793 65 777 102 q 824 0 809 28 l 644 0 l 583 155 l 260 155 l 200 0 l 17 0 m 310 283 l 532 283 l 420 568 l 310 283 z "},"Ȁ":{"ha":1007,"x_min":35,"x_max":955,"o":"m 237 0 l 35 0 q 73 93 54 41 q 123 241 92 144 l 374 990 l 616 990 l 867 241 q 918 93 899 146 q 955 0 937 41 l 756 0 l 681 241 l 312 241 l 237 0 m 635 387 l 495 833 l 357 387 l 635 387 m 429 1377 l 639 1377 l 781 1105 l 632 1105 l 429 1377 m 144 1377 l 354 1377 l 496 1105 l 347 1105 l 144 1377 z "},"Ấ":{"ha":1007,"x_min":35,"x_max":955,"o":"m 237 0 l 35 0 q 73 93 54 41 q 123 241 92 144 l 374 990 l 616 990 l 867 241 q 918 93 899 146 q 955 0 937 41 l 756 0 l 681 241 l 312 241 l 237 0 m 635 387 l 495 833 l 357 387 l 635 387 m 795 1105 l 632 1105 l 496 1261 l 361 1105 l 198 1105 l 395 1377 l 598 1377 l 795 1105 m 538 1740 l 776 1740 l 505 1468 l 342 1468 l 538 1740 z "},"Ầ":{"ha":1007,"x_min":35,"x_max":955,"o":"m 237 0 l 35 0 q 73 93 54 41 q 123 241 92 144 l 374 990 l 616 990 l 867 241 q 918 93 899 146 q 955 0 937 41 l 756 0 l 681 241 l 312 241 l 237 0 m 635 387 l 495 833 l 357 387 l 635 387 m 795 1105 l 632 1105 l 496 1261 l 361 1105 l 198 1105 l 395 1377 l 598 1377 l 795 1105 m 206 1740 l 444 1740 l 640 1468 l 477 1468 l 206 1740 z "},"Ẫ":{"ha":1007,"x_min":35,"x_max":955,"o":"m 237 0 l 35 0 q 73 93 54 41 q 123 241 92 144 l 374 990 l 616 990 l 867 241 q 918 93 899 146 q 955 0 937 41 l 756 0 l 681 241 l 312 241 l 237 0 m 635 387 l 495 833 l 357 387 l 635 387 m 795 1105 l 632 1105 l 496 1261 l 361 1105 l 198 1105 l 395 1377 l 598 1377 l 795 1105 m 321 1461 l 216 1461 q 236 1562 216 1516 q 290 1636 256 1608 q 369 1665 324 1665 q 437 1654 402 1665 q 511 1629 471 1644 q 574 1606 551 1614 q 622 1597 597 1597 q 658 1617 646 1597 q 674 1658 670 1637 l 779 1658 q 735 1512 779 1570 q 623 1455 692 1455 q 563 1464 591 1455 q 498 1488 534 1473 q 374 1522 416 1522 q 337 1503 349 1522 q 321 1461 325 1483 z "},"Ẩ":{"ha":1007,"x_min":35,"x_max":955,"o":"m 237 0 l 35 0 q 73 93 54 41 q 123 241 92 144 l 374 990 l 616 990 l 867 241 q 918 93 899 146 q 955 0 937 41 l 756 0 l 681 241 l 312 241 l 237 0 m 635 387 l 495 833 l 357 387 l 635 387 m 795 1105 l 632 1105 l 496 1261 l 361 1105 l 198 1105 l 395 1377 l 598 1377 l 795 1105 m 541 1417 l 435 1417 q 440 1492 435 1461 q 459 1546 446 1523 q 503 1605 479 1579 q 527 1651 527 1630 q 469 1692 527 1692 q 368 1651 408 1692 l 351 1736 q 406 1770 372 1756 q 479 1784 439 1784 q 593 1752 547 1784 q 639 1662 639 1720 q 622 1606 639 1630 q 586 1564 606 1582 q 557 1529 566 1546 q 543 1483 545 1508 q 541 1417 541 1459 z "},"Ậ":{"ha":1007,"x_min":35,"x_max":955,"o":"m 237 0 l 35 0 q 73 93 54 41 q 123 241 92 144 l 374 990 l 616 990 l 867 241 q 918 93 899 146 q 955 0 937 41 l 756 0 l 681 241 l 312 241 l 237 0 m 635 387 l 495 833 l 357 387 l 635 387 m 378 -210 q 413 -126 378 -161 q 496 -92 448 -92 q 581 -126 546 -92 q 615 -210 615 -161 q 581 -295 615 -260 q 496 -329 546 -329 q 413 -295 448 -329 q 378 -210 378 -260 m 795 1105 l 632 1105 l 496 1261 l 361 1105 l 198 1105 l 395 1377 l 598 1377 l 795 1105 z "},"Ȃ":{"ha":1007,"x_min":35,"x_max":955,"o":"m 237 0 l 35 0 q 73 93 54 41 q 123 241 92 144 l 374 990 l 616 990 l 867 241 q 918 93 899 146 q 955 0 937 41 l 756 0 l 681 241 l 312 241 l 237 0 m 635 387 l 495 833 l 357 387 l 635 387 m 771 1065 l 649 1065 q 595 1167 637 1126 q 496 1207 553 1207 q 397 1167 441 1207 q 344 1065 354 1126 l 222 1065 q 256 1195 222 1131 q 352 1301 290 1259 q 496 1343 414 1343 q 641 1301 579 1343 q 737 1195 703 1259 q 771 1065 771 1131 z "},"Ă":{"ha":1007,"x_min":35,"x_max":955,"o":"m 237 0 l 35 0 q 73 93 54 41 q 123 241 92 144 l 374 990 l 616 990 l 867 241 q 918 93 899 146 q 955 0 937 41 l 756 0 l 681 241 l 312 241 l 237 0 m 635 387 l 495 833 l 357 387 l 635 387 m 649 1343 l 771 1343 q 737 1213 771 1277 q 641 1107 703 1149 q 496 1065 579 1065 q 352 1107 414 1065 q 256 1213 290 1149 q 222 1343 222 1277 l 344 1343 q 397 1241 354 1281 q 496 1200 441 1200 q 595 1241 553 1200 q 649 1343 637 1281 z "},"Ắ":{"ha":1007,"x_min":35,"x_max":955,"o":"m 237 0 l 35 0 q 73 93 54 41 q 123 241 92 144 l 374 990 l 616 990 l 867 241 q 918 93 899 146 q 955 0 937 41 l 756 0 l 681 241 l 312 241 l 237 0 m 635 387 l 495 833 l 357 387 l 635 387 m 649 1343 l 771 1343 q 737 1213 771 1277 q 641 1107 703 1149 q 496 1065 579 1065 q 352 1107 414 1065 q 256 1213 290 1149 q 222 1343 222 1277 l 344 1343 q 397 1241 354 1281 q 496 1200 441 1200 q 595 1241 553 1200 q 649 1343 637 1281 m 544 1740 l 781 1740 l 510 1468 l 347 1468 l 544 1740 z "},"Ằ":{"ha":1007,"x_min":35,"x_max":955,"o":"m 237 0 l 35 0 q 73 93 54 41 q 123 241 92 144 l 374 990 l 616 990 l 867 241 q 918 93 899 146 q 955 0 937 41 l 756 0 l 681 241 l 312 241 l 237 0 m 635 387 l 495 833 l 357 387 l 635 387 m 649 1343 l 771 1343 q 737 1213 771 1277 q 641 1107 703 1149 q 496 1065 579 1065 q 352 1107 414 1065 q 256 1213 290 1149 q 222 1343 222 1277 l 344 1343 q 397 1241 354 1281 q 496 1200 441 1200 q 595 1241 553 1200 q 649 1343 637 1281 m 212 1740 l 449 1740 l 646 1468 l 483 1468 l 212 1740 z "},"Ẵ":{"ha":1007,"x_min":35,"x_max":955,"o":"m 237 0 l 35 0 q 73 93 54 41 q 123 241 92 144 l 374 990 l 616 990 l 867 241 q 918 93 899 146 q 955 0 937 41 l 756 0 l 681 241 l 312 241 l 237 0 m 635 387 l 495 833 l 357 387 l 635 387 m 649 1343 l 771 1343 q 737 1213 771 1277 q 641 1107 703 1149 q 496 1065 579 1065 q 352 1107 414 1065 q 256 1213 290 1149 q 222 1343 222 1277 l 344 1343 q 397 1241 354 1281 q 496 1200 441 1200 q 595 1241 553 1200 q 649 1343 637 1281 m 327 1461 l 222 1461 q 241 1562 222 1516 q 295 1636 261 1608 q 374 1665 330 1665 q 442 1654 408 1665 q 517 1629 477 1644 q 580 1606 557 1614 q 627 1597 603 1597 q 663 1617 651 1597 q 680 1658 675 1637 l 785 1658 q 741 1512 785 1570 q 628 1455 697 1455 q 568 1464 597 1455 q 503 1488 539 1473 q 379 1522 421 1522 q 342 1503 354 1522 q 327 1461 330 1483 z "},"Ẳ":{"ha":1007,"x_min":35,"x_max":955,"o":"m 237 0 l 35 0 q 73 93 54 41 q 123 241 92 144 l 374 990 l 616 990 l 867 241 q 918 93 899 146 q 955 0 937 41 l 756 0 l 681 241 l 312 241 l 237 0 m 635 387 l 495 833 l 357 387 l 635 387 m 649 1343 l 771 1343 q 737 1213 771 1277 q 641 1107 703 1149 q 496 1065 579 1065 q 352 1107 414 1065 q 256 1213 290 1149 q 222 1343 222 1277 l 344 1343 q 397 1241 354 1281 q 496 1200 441 1200 q 595 1241 553 1200 q 649 1343 637 1281 m 546 1417 l 441 1417 q 446 1492 441 1461 q 465 1546 451 1523 q 508 1605 484 1579 q 532 1651 532 1630 q 475 1692 532 1692 q 373 1651 413 1692 l 356 1736 q 411 1770 378 1756 q 485 1784 444 1784 q 598 1752 553 1784 q 644 1662 644 1720 q 628 1606 644 1630 q 591 1564 611 1582 q 563 1529 572 1546 q 548 1483 551 1508 q 546 1417 546 1459 z "},"Ặ":{"ha":1007,"x_min":35,"x_max":955,"o":"m 237 0 l 35 0 q 73 93 54 41 q 123 241 92 144 l 374 990 l 616 990 l 867 241 q 918 93 899 146 q 955 0 937 41 l 756 0 l 681 241 l 312 241 l 237 0 m 635 387 l 495 833 l 357 387 l 635 387 m 378 -210 q 413 -126 378 -161 q 496 -92 448 -92 q 581 -126 546 -92 q 615 -210 615 -161 q 581 -295 615 -260 q 496 -329 546 -329 q 413 -295 448 -329 q 378 -210 378 -260 m 649 1343 l 771 1343 q 737 1213 771 1277 q 641 1107 703 1149 q 496 1065 579 1065 q 352 1107 414 1065 q 256 1213 290 1149 q 222 1343 222 1277 l 344 1343 q 397 1241 354 1281 q 496 1200 441 1200 q 595 1241 553 1200 q 649 1343 637 1281 z "},"Ӑ":{"ha":1007,"x_min":35,"x_max":955,"o":"m 756 0 l 681 241 l 312 241 l 237 0 l 35 0 q 73 93 54 41 q 123 241 92 144 l 374 990 l 616 990 l 867 241 q 918 93 899 146 q 955 0 937 41 l 756 0 m 495 833 l 357 387 l 635 387 l 495 833 m 615 1343 l 781 1343 q 743 1214 781 1270 q 640 1127 705 1158 q 496 1095 576 1095 q 352 1127 417 1095 q 250 1214 288 1158 q 212 1343 212 1270 l 378 1343 q 409 1254 378 1288 q 496 1221 441 1221 q 584 1254 553 1221 q 615 1343 615 1288 z "},"Ǎ":{"ha":1007,"x_min":35,"x_max":955,"o":"m 237 0 l 35 0 q 73 93 54 41 q 123 241 92 144 l 374 990 l 616 990 l 867 241 q 918 93 899 146 q 955 0 937 41 l 756 0 l 681 241 l 312 241 l 237 0 m 635 387 l 495 833 l 357 387 l 635 387 m 637 1377 l 800 1377 l 604 1105 l 400 1105 l 203 1377 l 366 1377 l 502 1221 l 637 1377 z "},"Ā":{"ha":1007,"x_min":35,"x_max":955,"o":"m 237 0 l 35 0 q 73 93 54 41 q 123 241 92 144 l 374 990 l 616 990 l 867 241 q 918 93 899 146 q 955 0 937 41 l 756 0 l 681 241 l 312 241 l 237 0 m 635 387 l 495 833 l 357 387 l 635 387 m 215 1119 l 215 1255 l 778 1255 l 778 1119 l 215 1119 z "},"Ӓ":{"ha":1007,"x_min":35,"x_max":955,"o":"m 756 0 l 681 241 l 312 241 l 237 0 l 35 0 q 73 93 54 41 q 123 241 92 144 l 374 990 l 616 990 l 867 241 q 918 93 899 146 q 955 0 937 41 l 756 0 m 495 833 l 357 387 l 635 387 l 495 833 m 544 1231 q 577 1316 544 1283 q 663 1350 611 1350 q 748 1316 715 1350 q 781 1231 781 1283 q 748 1145 781 1178 q 663 1112 715 1112 q 577 1145 611 1112 q 544 1231 544 1178 m 212 1231 q 245 1316 212 1283 q 330 1350 279 1350 q 416 1316 382 1350 q 449 1231 449 1283 q 416 1145 449 1178 q 330 1112 382 1112 q 245 1145 279 1112 q 212 1231 212 1178 z "},"Ǟ":{"ha":1007,"x_min":35,"x_max":955,"o":"m 237 0 l 35 0 q 73 93 54 41 q 123 241 92 144 l 374 990 l 616 990 l 867 241 q 918 93 899 146 q 955 0 937 41 l 756 0 l 681 241 l 312 241 l 237 0 m 635 387 l 495 833 l 357 387 l 635 387 m 544 1231 q 577 1316 544 1283 q 663 1350 611 1350 q 748 1316 715 1350 q 781 1231 781 1283 q 748 1145 781 1178 q 663 1112 715 1112 q 577 1145 611 1112 q 544 1231 544 1178 m 212 1231 q 245 1316 212 1283 q 330 1350 279 1350 q 416 1316 382 1350 q 449 1231 449 1283 q 416 1145 449 1178 q 330 1112 382 1112 q 245 1145 279 1112 q 212 1231 212 1178 m 215 1448 l 215 1584 l 778 1584 l 778 1448 l 215 1448 z "},"Ȧ":{"ha":1007,"x_min":35,"x_max":955,"o":"m 237 0 l 35 0 q 73 93 54 41 q 123 241 92 144 l 374 990 l 616 990 l 867 241 q 918 93 899 146 q 955 0 937 41 l 756 0 l 681 241 l 312 241 l 237 0 m 635 387 l 495 833 l 357 387 l 635 387 m 388 1231 q 421 1316 388 1283 q 507 1350 455 1350 q 592 1316 559 1350 q 625 1231 625 1283 q 592 1145 625 1178 q 507 1112 559 1112 q 421 1145 455 1112 q 388 1231 388 1178 z "},"Ǡ":{"ha":1007,"x_min":35,"x_max":955,"o":"m 237 0 l 35 0 q 73 93 54 41 q 123 241 92 144 l 374 990 l 616 990 l 867 241 q 918 93 899 146 q 955 0 937 41 l 756 0 l 681 241 l 312 241 l 237 0 m 635 387 l 495 833 l 357 387 l 635 387 m 388 1231 q 421 1316 388 1283 q 507 1350 455 1350 q 592 1316 559 1350 q 625 1231 625 1283 q 592 1145 625 1178 q 507 1112 559 1112 q 421 1145 455 1112 q 388 1231 388 1178 m 215 1428 l 215 1563 l 778 1563 l 778 1428 l 215 1428 z "},"Ǻ":{"ha":1007,"x_min":35,"x_max":955,"o":"m 237 0 l 35 0 q 73 93 54 41 q 123 241 92 144 l 374 990 l 616 990 l 867 241 q 918 93 899 146 q 955 0 937 41 l 756 0 l 681 241 l 312 241 l 237 0 m 635 387 l 495 833 l 357 387 l 635 387 m 564 1241 q 546 1289 564 1272 q 496 1305 527 1305 q 447 1289 466 1305 q 429 1241 429 1272 q 447 1194 429 1211 q 496 1177 466 1177 q 546 1194 527 1177 q 564 1241 564 1211 m 330 1241 q 378 1358 330 1312 q 496 1404 425 1404 q 615 1358 568 1404 q 663 1241 663 1312 q 615 1124 663 1170 q 496 1078 568 1078 q 378 1124 425 1078 q 330 1241 330 1170 m 544 1740 l 781 1740 l 510 1468 l 347 1468 l 544 1740 z "},"Ả":{"ha":1007,"x_min":35,"x_max":955,"o":"m 237 0 l 35 0 q 73 93 54 41 q 123 241 92 144 l 374 990 l 616 990 l 867 241 q 918 93 899 146 q 955 0 937 41 l 756 0 l 681 241 l 312 241 l 237 0 m 635 387 l 495 833 l 357 387 l 635 387 m 546 1055 l 441 1055 q 446 1129 441 1098 q 465 1183 451 1160 q 508 1242 484 1217 q 532 1289 532 1267 q 475 1329 532 1329 q 373 1289 413 1329 l 356 1373 q 411 1407 378 1393 q 485 1421 444 1421 q 598 1389 553 1421 q 644 1299 644 1357 q 628 1243 644 1267 q 591 1201 611 1219 q 563 1166 572 1183 q 548 1121 551 1145 q 546 1055 546 1097 z "},"Ạ":{"ha":1007,"x_min":35,"x_max":955,"o":"m 237 0 l 35 0 q 73 93 54 41 q 123 241 92 144 l 374 990 l 616 990 l 867 241 q 918 93 899 146 q 955 0 937 41 l 756 0 l 681 241 l 312 241 l 237 0 m 635 387 l 495 833 l 357 387 l 635 387 m 378 -210 q 413 -126 378 -161 q 496 -92 448 -92 q 581 -126 546 -92 q 615 -210 615 -161 q 581 -295 615 -260 q 496 -329 546 -329 q 413 -295 448 -329 q 378 -210 378 -260 z "},"Ḁ":{"ha":1007,"x_min":35,"x_max":955,"o":"m 237 0 l 35 0 q 73 93 54 41 q 123 241 92 144 l 374 990 l 616 990 l 867 241 q 918 93 899 146 q 955 0 937 41 l 756 0 l 681 241 l 312 241 l 237 0 m 635 387 l 495 833 l 357 387 l 635 387 m 564 -237 q 546 -190 564 -207 q 496 -173 527 -173 q 447 -190 466 -173 q 429 -237 429 -207 q 447 -285 429 -268 q 496 -302 466 -302 q 546 -285 527 -302 q 564 -237 564 -268 m 330 -237 q 378 -120 330 -166 q 496 -75 425 -75 q 615 -120 568 -75 q 663 -237 663 -166 q 615 -354 663 -309 q 496 -400 568 -400 q 378 -354 425 -400 q 330 -237 330 -309 z "},"Ą":{"ha":1007,"x_min":35,"x_max":1044,"o":"m 237 0 l 35 0 q 73 93 54 41 q 123 241 92 144 l 374 990 l 616 990 l 867 241 q 918 93 899 146 q 955 0 937 41 l 756 0 l 681 241 l 312 241 l 237 0 m 635 387 l 495 833 l 357 387 l 635 387 m 824 0 l 939 0 q 861 -61 887 -33 q 834 -125 834 -90 q 853 -176 834 -159 q 905 -193 873 -193 q 943 -187 920 -193 q 989 -169 966 -180 q 1024 -142 1012 -157 l 1044 -237 q 972 -282 1015 -267 q 892 -298 930 -298 q 804 -279 844 -298 q 740 -226 764 -259 q 715 -153 715 -193 q 743 -62 715 -100 q 824 0 771 -25 z "},"Ⱥ":{"ha":1007,"x_min":35,"x_max":955,"o":"m 756 0 l 681 241 l 312 241 l 237 0 l 35 0 q 73 93 54 41 q 123 241 92 144 l 374 990 l 616 990 l 867 241 q 918 93 899 146 q 955 0 937 41 l 756 0 m 495 833 l 357 387 l 642 387 l 495 833 m 702 1085 l 848 1085 l 394 -78 l 248 -78 l 702 1085 z "},"Ɐ":{"ha":967,"x_min":17,"x_max":937,"o":"m 216 990 l 291 749 l 660 749 l 734 990 l 937 990 q 899 897 918 949 q 848 749 880 846 l 597 0 l 356 0 l 105 749 q 54 897 73 844 q 17 990 35 949 l 216 990 m 337 604 l 477 157 l 615 604 l 337 604 z "},"Ꜵ":{"ha":1564,"x_min":20,"x_max":1486,"o":"m 359 990 l 601 990 l 674 771 q 837 946 734 884 q 1055 1007 939 1007 q 1269 948 1171 1007 q 1427 777 1367 890 q 1486 502 1486 665 q 1450 283 1486 380 q 1351 120 1413 187 q 1208 18 1289 54 q 1042 -17 1128 -17 q 813 49 918 -17 q 655 241 709 115 l 297 241 l 222 0 l 20 0 q 58 93 39 41 q 109 241 77 144 l 359 990 m 1293 485 q 1261 675 1293 595 q 1175 798 1230 755 q 1048 841 1120 841 q 921 800 977 841 q 833 684 865 759 q 801 505 801 608 q 832 316 801 396 q 920 193 864 236 q 1048 149 975 149 q 1172 189 1116 149 q 1260 304 1227 229 q 1293 485 1293 380 m 480 833 l 342 387 l 614 387 l 611 413 l 480 833 z "},"Ꜳ":{"ha":1695,"x_min":20,"x_max":1661,"o":"m 1462 0 l 1387 241 l 1018 241 l 943 0 l 741 0 l 666 241 l 297 241 l 222 0 l 20 0 q 58 93 39 41 q 109 241 77 144 l 359 990 l 601 990 l 840 254 l 1080 990 l 1322 990 l 1573 241 q 1624 93 1605 146 q 1661 0 1643 41 l 1462 0 m 1201 833 l 1063 387 l 1341 387 l 1201 833 m 480 833 l 342 387 l 620 387 l 480 833 z "},"Ꜷ":{"ha":1499,"x_min":20,"x_max":1380,"o":"m 1177 990 l 1380 990 q 1372 875 1373 949 q 1370 695 1370 800 l 1370 349 q 1279 83 1370 184 q 1010 -17 1189 -17 q 773 53 861 -17 q 659 241 685 122 l 297 241 l 222 0 l 20 0 q 58 93 39 41 q 109 241 77 144 l 359 990 l 601 990 l 852 241 q 909 163 870 187 q 1010 138 949 138 q 1142 204 1107 138 q 1177 380 1177 270 l 1177 990 m 620 387 l 480 833 l 342 387 l 620 387 z "},"Ꜹ":{"ha":1377,"x_min":20,"x_max":1346,"o":"m 1143 990 l 1346 990 q 1307 895 1328 949 q 1251 743 1286 842 l 987 0 l 741 0 l 666 241 l 297 241 l 222 0 l 20 0 q 58 93 39 41 q 109 241 77 144 l 359 990 l 601 990 l 875 184 l 1143 990 m 620 387 l 480 833 l 342 387 l 620 387 z "},"Ꜻ":{"ha":1377,"x_min":20,"x_max":1346,"o":"m 1143 990 l 1346 990 q 1307 895 1328 949 q 1251 743 1286 842 l 987 0 l 741 0 l 661 254 l 302 254 l 222 0 l 20 0 q 58 93 39 41 q 109 241 77 144 l 359 990 l 601 990 l 875 184 l 1143 990 m 616 400 l 480 833 l 347 400 l 616 400 m 764 414 l 1306 414 l 1306 268 l 764 268 l 764 414 z "},"Ꜽ":{"ha":1377,"x_min":20,"x_max":1346,"o":"m 1143 990 l 1346 990 q 1308 895 1328 949 q 1251 743 1287 841 l 980 0 q 877 -201 932 -132 q 760 -294 822 -269 q 631 -319 699 -319 q 439 -261 527 -319 l 492 -111 q 555 -145 516 -129 q 631 -162 593 -162 q 693 -140 661 -162 q 765 -42 726 -119 l 666 241 l 297 241 l 222 0 l 20 0 q 58 93 39 41 q 109 241 77 144 l 359 990 l 601 990 l 875 184 l 1143 990 m 620 387 l 480 833 l 342 387 l 620 387 z "},"₳":{"ha":841,"x_min":20,"x_max":821,"o":"m 622 0 l 420 833 l 222 0 l 20 0 q 55 97 38 41 q 95 241 71 153 l 300 990 l 541 990 l 746 241 q 787 97 770 153 q 821 0 804 41 l 622 0 m 35 251 l 35 370 l 808 370 l 808 251 l 35 251 m 35 451 l 35 570 l 808 570 l 808 451 l 35 451 z "},"Ɑ":{"ha":1051,"x_min":71,"x_max":936,"o":"m 936 0 l 732 0 q 716 51 724 18 q 705 123 709 84 q 697 199 700 162 q 695 260 695 235 l 695 332 q 636 207 671 269 q 557 94 602 144 q 461 13 513 43 q 348 -17 408 -17 q 207 30 270 -17 q 108 168 144 76 q 71 397 71 260 q 97 621 71 512 q 178 818 123 730 q 317 956 233 905 q 519 1007 402 1007 q 709 993 618 1007 q 878 949 800 979 l 878 512 q 895 205 878 329 q 936 0 911 81 m 678 789 l 678 824 q 611 836 651 830 q 530 841 572 841 q 384 784 442 841 q 298 632 326 727 q 269 424 269 537 q 283 287 269 349 q 322 190 298 226 q 376 154 347 154 q 445 191 410 154 q 513 289 479 228 q 577 422 547 350 q 630 567 607 495 q 665 697 652 638 q 678 789 678 757 z "},"Ɒ":{"ha":1051,"x_min":115,"x_max":980,"o":"m 115 990 l 319 990 q 335 939 328 972 q 347 867 342 906 q 354 791 351 828 q 356 730 356 755 l 356 658 q 415 784 380 722 q 494 896 450 846 q 590 977 538 947 q 703 1007 643 1007 q 844 961 781 1007 q 943 822 907 914 q 980 593 980 730 q 954 369 980 478 q 873 173 928 260 q 734 34 819 85 q 532 -17 649 -17 q 342 -3 433 -17 q 173 41 251 12 l 173 478 q 156 785 173 661 q 115 990 140 909 m 373 201 l 373 165 q 437 158 394 161 q 543 154 481 154 q 652 190 607 154 q 726 287 698 227 q 768 419 755 347 q 782 566 782 492 q 768 703 782 642 q 729 800 753 764 q 675 836 705 836 q 607 799 642 836 q 538 701 572 762 q 474 568 504 640 q 421 424 444 495 q 386 293 399 352 q 373 201 373 234 z "},"Ӕ":{"ha":1242,"x_min":7,"x_max":1163,"o":"m 790 156 l 897 156 q 1059 158 994 156 q 1163 166 1124 159 l 1163 0 l 587 0 q 595 97 593 35 q 597 241 597 159 l 321 241 l 209 0 l 7 0 q 41 59 24 28 q 80 134 58 90 q 133 241 102 177 l 499 990 l 1143 990 l 1143 834 l 790 834 l 790 593 l 1092 593 l 1092 441 l 790 441 l 790 156 m 597 387 l 597 834 l 389 387 l 597 387 z "},"ᴭ":{"ha":892,"x_min":37,"x_max":846,"o":"m 585 563 l 659 563 q 773 564 728 563 q 846 569 819 564 l 846 461 l 443 461 q 448 525 447 484 q 450 618 450 565 l 256 618 l 178 461 l 37 461 q 73 522 54 488 q 125 618 92 555 l 381 1105 l 832 1105 l 832 1004 l 585 1004 l 585 847 l 796 847 l 796 748 l 585 748 l 585 563 m 450 713 l 450 1004 l 304 713 l 450 713 z "},"ᴁ":{"ha":1085,"x_min":17,"x_max":1000,"o":"m 941 295 l 725 295 l 725 136 l 813 136 q 901 136 867 136 q 956 138 934 136 q 1000 142 979 139 l 1000 0 l 534 0 l 534 155 l 298 155 l 212 0 l 17 0 q 60 65 38 29 q 122 168 83 100 l 426 692 l 984 692 l 984 556 l 725 556 l 725 424 l 941 424 l 941 295 m 534 569 l 368 283 l 534 283 l 534 569 z "},"Ǽ":{"ha":1242,"x_min":7,"x_max":1163,"o":"m 790 156 l 897 156 q 1059 158 994 156 q 1163 166 1124 159 l 1163 0 l 587 0 q 595 97 593 35 q 597 241 597 159 l 321 241 l 209 0 l 7 0 q 41 59 24 28 q 80 134 58 90 q 133 241 102 177 l 499 990 l 1143 990 l 1143 834 l 790 834 l 790 593 l 1092 593 l 1092 441 l 790 441 l 790 156 m 597 387 l 597 834 l 389 387 l 597 387 m 732 1377 l 970 1377 l 699 1105 l 536 1105 l 732 1377 z "},"Ǣ":{"ha":1242,"x_min":7,"x_max":1163,"o":"m 790 156 l 897 156 q 1059 158 994 156 q 1163 166 1124 159 l 1163 0 l 587 0 q 595 97 593 35 q 597 241 597 159 l 321 241 l 209 0 l 7 0 q 41 59 24 28 q 80 134 58 90 q 133 241 102 177 l 499 990 l 1143 990 l 1143 834 l 790 834 l 790 593 l 1092 593 l 1092 441 l 790 441 l 790 156 m 597 387 l 597 834 l 389 387 l 597 387 m 404 1119 l 404 1255 l 966 1255 l 966 1119 l 404 1119 z "},"ᵇ":{"ha":574,"x_min":60,"x_max":538,"o":"m 60 1166 l 201 1166 q 201 1066 201 1119 q 201 964 201 1013 q 201 880 201 915 q 201 833 201 844 q 276 895 233 870 q 378 920 320 920 q 493 858 448 920 q 538 699 538 795 q 476 518 538 586 q 312 450 415 450 q 182 464 243 450 q 68 490 121 477 q 68 724 68 607 q 68 960 68 842 q 67 1030 68 991 q 65 1105 67 1069 q 60 1166 64 1142 m 201 719 l 201 567 q 247 550 228 555 q 291 545 267 545 q 376 584 342 545 q 410 684 410 622 q 388 778 410 743 q 328 812 367 812 q 256 786 291 812 q 201 719 220 760 z "},"ḃ":{"ha":824,"x_min":81,"x_max":763,"o":"m 81 1085 l 281 1085 q 281 1052 281 1085 q 281 966 281 1019 q 281 851 281 913 q 281 732 281 790 q 281 631 281 674 q 281 573 281 588 q 390 667 328 629 q 535 705 452 705 q 653 662 602 705 q 734 542 705 618 q 763 366 763 465 q 723 164 763 250 q 611 31 684 78 q 441 -17 539 -17 q 255 4 342 -17 q 92 44 168 24 q 92 126 92 72 q 92 251 92 180 q 92 397 92 321 q 92 546 92 473 q 92 676 92 618 q 92 766 92 734 q 91 875 92 815 q 89 991 91 935 q 81 1085 87 1047 m 281 397 l 281 163 q 349 137 321 144 q 410 129 376 129 q 532 188 484 129 q 580 342 580 247 q 550 486 580 433 q 463 539 519 539 q 360 499 411 539 q 281 397 310 460 m 387 919 q 421 1004 387 971 q 506 1038 454 1038 q 591 1004 558 1038 q 625 919 625 971 q 591 833 625 866 q 506 800 558 800 q 421 833 454 800 q 387 919 387 866 z "},"ḇ":{"ha":824,"x_min":81,"x_max":763,"o":"m 81 1085 l 281 1085 q 281 930 281 1013 q 281 773 281 848 q 281 644 281 698 q 281 573 281 589 q 390 667 328 629 q 535 705 452 705 q 653 662 602 705 q 734 542 705 618 q 763 366 763 465 q 723 164 763 250 q 611 31 684 78 q 441 -17 539 -17 q 255 4 342 -17 q 92 44 168 24 q 92 405 92 224 q 92 766 92 586 q 91 875 92 815 q 89 991 91 935 q 81 1085 87 1047 m 281 397 l 281 163 q 349 137 321 144 q 410 129 376 129 q 532 188 484 129 q 580 342 580 247 q 550 486 580 433 q 463 539 519 539 q 360 499 411 539 q 281 397 310 460 m 132 -251 l 132 -115 l 695 -115 l 695 -251 l 132 -251 z "},"ḅ":{"ha":824,"x_min":81,"x_max":763,"o":"m 81 1085 l 281 1085 q 281 930 281 1013 q 281 773 281 848 q 281 644 281 698 q 281 573 281 589 q 390 667 328 629 q 535 705 452 705 q 653 662 602 705 q 734 542 705 618 q 763 366 763 465 q 723 164 763 250 q 611 31 684 78 q 441 -17 539 -17 q 255 4 342 -17 q 92 44 168 24 q 92 405 92 224 q 92 766 92 586 q 91 875 92 815 q 89 991 91 935 q 81 1085 87 1047 m 281 397 l 281 163 q 349 137 321 144 q 410 129 376 129 q 532 188 484 129 q 580 342 580 247 q 550 486 580 433 q 463 539 519 539 q 360 499 411 539 q 281 397 310 460 m 295 -210 q 330 -126 295 -161 q 414 -92 365 -92 q 498 -126 463 -92 q 532 -210 532 -161 q 498 -295 532 -260 q 414 -329 463 -329 q 330 -295 365 -329 q 295 -210 295 -260 z "},"ᶀ":{"ha":824,"x_min":81,"x_max":763,"o":"m 81 1085 l 281 1085 q 281 1052 281 1085 q 281 966 281 1019 q 281 851 281 913 q 281 732 281 790 q 281 631 281 674 q 281 573 281 588 q 390 667 328 629 q 535 705 452 705 q 653 662 602 705 q 734 542 705 618 q 763 366 763 465 q 723 164 763 250 q 611 31 684 78 q 441 -17 539 -17 q 255 4 342 -17 q 92 44 168 24 l 92 766 q 91 875 92 815 q 89 991 91 935 q 81 1085 87 1047 m 281 397 l 281 163 q 349 137 321 144 q 410 129 376 129 q 532 188 484 129 q 580 342 580 247 q 550 486 580 433 q 463 539 519 539 q 360 499 411 539 q 281 397 310 460 m 383 -288 l 400 -170 q 444 -192 422 -184 q 495 -200 467 -200 q 545 -177 524 -200 q 566 -115 566 -153 l 566 35 l 702 213 l 702 -136 q 649 -269 702 -218 q 519 -319 595 -319 q 444 -311 484 -319 q 383 -288 405 -302 z "},"ƀ":{"ha":834,"x_min":-7,"x_max":773,"o":"m 92 1085 l 292 1085 q 292 1052 292 1085 q 292 966 292 1019 q 292 851 292 913 q 292 732 292 790 q 292 631 292 674 q 292 573 292 588 q 400 667 338 629 q 545 705 463 705 q 664 662 612 705 q 744 542 715 618 q 773 366 773 465 q 733 164 773 250 q 622 31 694 78 q 451 -17 549 -17 q 266 4 353 -17 q 102 44 178 24 l 102 766 q 101 875 102 815 q 99 991 101 935 q 92 1085 97 1047 m 292 397 l 292 163 q 359 137 331 144 q 420 129 387 129 q 542 188 494 129 q 590 342 590 247 q 560 486 590 433 q 473 539 530 539 q 371 499 421 539 q 292 397 320 460 m -7 928 l 528 928 l 528 793 l -7 793 l -7 928 z "},"ᵬ":{"ha":929,"x_min":14,"x_max":868,"o":"m 186 1085 l 387 1085 q 387 1052 387 1085 q 387 966 387 1019 q 387 851 387 913 q 387 732 387 790 q 387 631 387 674 q 387 573 387 588 q 495 667 433 629 q 640 705 557 705 q 759 662 707 705 q 839 542 810 618 q 868 366 868 465 q 828 164 868 250 q 716 31 789 78 q 546 -17 644 -17 q 360 4 448 -17 q 197 44 273 24 l 197 766 q 196 875 197 815 q 194 991 196 935 q 186 1085 192 1047 m 387 397 l 387 163 q 454 137 426 144 q 515 129 481 129 q 637 188 589 129 q 685 342 685 247 q 655 486 685 433 q 568 539 625 539 q 466 499 516 539 q 387 397 415 460 m 119 756 l 14 756 q 33 857 14 810 q 87 931 53 903 q 166 960 121 960 q 244 949 199 960 q 329 924 289 939 q 399 900 369 909 q 453 892 429 892 q 489 912 477 892 q 505 953 501 932 l 610 953 q 567 807 610 865 q 454 749 523 749 q 387 759 422 749 q 315 783 351 768 q 233 809 273 800 q 171 817 193 817 q 134 798 146 817 q 119 756 122 778 z "},"ɓ":{"ha":814,"x_min":81,"x_max":753,"o":"m 651 1046 l 588 892 q 510 923 547 913 q 431 932 474 932 q 310 882 349 932 q 271 760 271 831 l 271 573 q 380 667 317 629 q 525 705 442 705 q 643 662 592 705 q 724 542 694 618 q 753 366 753 465 q 713 164 753 250 q 601 31 673 78 q 431 -17 529 -17 q 245 11 332 -17 q 81 64 158 39 l 81 746 q 120 929 81 850 q 238 1054 159 1008 q 441 1099 318 1099 q 542 1087 489 1099 q 651 1046 594 1075 m 271 397 l 271 163 q 338 137 311 144 q 400 129 366 129 q 522 188 474 129 q 570 342 570 247 q 539 486 570 433 q 453 539 509 539 q 350 499 401 539 q 271 397 300 460 z "},"":{"ha":895,"x_min":-78,"x_max":834,"o":"m 163 44 l 163 814 q 139 910 163 880 q 78 941 116 941 q 20 930 49 941 q -34 895 -8 919 l -78 1051 q 0 1085 -46 1072 q 85 1099 45 1099 q 281 1028 210 1099 q 353 821 353 958 l 353 573 q 461 667 399 629 q 606 705 524 705 q 725 662 673 705 q 805 542 776 618 q 834 366 834 465 q 794 164 834 250 q 683 31 755 78 q 512 -17 610 -17 q 327 4 414 -17 q 163 44 239 24 m 353 397 l 353 163 q 420 137 392 144 q 481 129 448 129 q 603 188 555 129 q 651 342 651 247 q 621 486 651 433 q 534 539 591 539 q 432 499 482 539 q 353 397 381 460 z "},"ꞗ":{"ha":878,"x_min":-37,"x_max":817,"o":"m 135 1085 l 335 1085 q 335 1053 335 1085 q 335 970 335 1021 q 335 859 335 918 q 335 742 335 799 q 335 644 335 686 q 335 587 335 602 q 444 669 381 633 q 589 705 506 705 q 707 662 656 705 q 787 542 758 618 q 817 366 817 465 q 777 164 817 250 q 665 31 737 78 q 494 -17 593 -17 q 309 4 396 -17 q 145 44 222 24 l 145 766 q 145 875 145 815 q 142 991 144 935 q 135 1085 140 1047 m 335 410 l 335 163 q 402 137 374 144 q 464 129 430 129 q 586 188 538 129 q 633 342 633 247 q 603 486 633 433 q 517 539 573 539 q 414 501 465 539 q 335 410 363 463 m 321 590 l 307 417 q 163 217 212 329 q 113 7 113 106 q 154 -106 113 -62 q 258 -151 195 -151 q 425 -113 352 -151 l 445 -276 q 347 -308 399 -297 q 244 -319 295 -319 q 98 -282 162 -319 q -1 -178 35 -245 q -37 -16 -37 -110 q 8 190 -37 83 q 135 401 54 298 q 321 590 216 504 z "},"ƅ":{"ha":991,"x_min":20,"x_max":934,"o":"m 452 163 q 519 137 492 144 q 581 129 547 129 q 703 188 655 129 q 751 342 751 247 q 721 486 751 433 q 634 539 690 539 q 531 499 582 539 q 452 397 481 460 l 452 163 m 452 1085 l 452 573 q 561 667 498 629 q 706 705 623 705 q 824 662 773 705 q 905 542 876 618 q 934 366 934 465 q 893 164 934 250 q 776 31 852 78 q 591 -17 700 -17 q 438 0 513 -17 q 262 44 363 16 l 262 836 l 280 823 l 180 702 l 20 702 q 82 789 45 736 q 156 899 118 842 q 225 1007 194 957 q 271 1085 256 1057 l 452 1085 z "},"ƃ":{"ha":824,"x_min":81,"x_max":763,"o":"m 81 1085 l 281 1085 q 281 1052 281 1085 q 281 966 281 1019 q 281 851 281 913 q 281 732 281 790 q 281 631 281 674 q 281 573 281 588 q 390 667 328 629 q 535 705 452 705 q 653 662 602 705 q 734 542 705 618 q 763 366 763 465 q 723 164 763 250 q 611 31 684 78 q 441 -17 539 -17 q 255 4 342 -17 q 92 44 168 24 l 92 766 q 91 875 92 815 q 89 991 91 935 q 81 1085 87 1047 m 281 397 l 281 163 q 349 137 321 144 q 410 129 376 129 q 532 188 484 129 q 580 342 580 247 q 550 486 580 433 q 463 539 519 539 q 360 499 411 539 q 281 397 310 460 m 186 939 l 186 1085 l 665 1085 l 665 926 q 589 937 628 935 q 508 939 549 939 l 186 939 z "},"б":{"ha":793,"x_min":61,"x_max":732,"o":"m 712 1044 l 682 875 q 570 849 622 854 q 470 836 517 844 q 377 800 422 829 q 297 703 323 767 q 263 558 271 638 q 254 397 254 478 q 293 205 254 274 q 397 136 331 136 q 501 191 463 136 q 538 326 538 245 q 505 467 538 412 q 404 522 472 522 q 277 464 335 522 q 176 319 219 406 l 136 461 q 212 563 167 513 q 316 643 258 612 q 444 675 375 675 q 599 627 534 675 q 698 505 663 580 q 732 346 732 430 q 692 167 732 250 q 575 34 651 84 q 390 -17 498 -17 q 211 37 284 -17 q 99 189 137 92 q 61 414 61 286 q 82 623 61 523 q 156 806 103 722 q 302 949 208 890 q 399 992 349 979 q 502 1011 450 1006 q 607 1022 554 1017 q 712 1044 660 1028 z "},"ь":{"ha":810,"x_min":85,"x_max":756,"o":"m 95 217 l 95 475 q 93 604 95 545 q 85 692 90 663 l 285 692 l 285 458 l 468 458 q 629 427 565 458 q 724 347 692 397 q 756 237 756 297 q 688 59 756 124 q 478 -7 620 -7 q 387 -6 442 -7 q 273 -5 332 -6 q 163 -3 214 -4 q 85 0 113 -2 q 93 88 90 28 q 95 217 95 147 m 285 309 l 285 146 q 359 143 319 144 q 437 142 398 142 q 566 227 566 142 q 536 284 566 259 q 427 309 505 309 l 285 309 z "},"ҍ":{"ha":810,"x_min":7,"x_max":756,"o":"m 95 217 l 95 807 l 285 807 l 285 458 l 468 458 q 629 427 565 458 q 724 347 692 397 q 756 237 756 297 q 688 59 756 124 q 478 -7 620 -7 q 387 -6 442 -7 q 273 -5 332 -6 q 163 -3 214 -4 q 85 0 113 -2 q 93 88 90 28 q 95 217 95 147 m 285 302 l 285 153 q 359 150 319 151 q 437 149 398 149 q 535 168 504 149 q 566 227 566 186 q 536 280 566 259 q 427 302 505 302 l 285 302 m 7 559 l 7 695 l 478 695 l 478 559 l 7 559 z "},"ъ":{"ha":949,"x_min":14,"x_max":895,"o":"m 234 217 l 234 553 l 14 553 l 14 692 l 424 692 l 424 458 l 607 458 q 768 427 704 458 q 863 347 831 397 q 895 237 895 297 q 827 59 895 124 q 617 -7 759 -7 q 526 -6 581 -7 q 412 -5 471 -6 q 302 -3 353 -4 q 224 0 252 -2 q 232 88 229 28 q 234 217 234 147 m 424 309 l 424 146 q 498 143 458 144 q 576 142 537 142 q 705 227 705 142 q 675 284 705 259 q 566 309 644 309 l 424 309 z "},"ѣ":{"ha":851,"x_min":14,"x_max":783,"o":"m 122 217 l 122 801 q 120 930 122 871 q 112 1017 117 989 l 312 1017 l 312 458 l 495 458 q 656 427 592 458 q 751 347 720 397 q 783 237 783 297 q 715 59 783 124 q 505 -7 647 -7 q 414 -6 469 -7 q 300 -5 359 -6 q 191 -3 241 -4 q 112 0 140 -2 q 120 88 117 28 q 122 217 122 147 m 312 309 l 312 146 q 386 143 347 144 q 465 142 425 142 q 593 227 593 142 q 563 284 593 259 q 454 309 532 309 l 312 309 m 14 559 l 14 695 l 553 695 l 553 559 l 14 559 z "},"ы":{"ha":1160,"x_min":85,"x_max":1061,"o":"m 95 217 l 95 475 q 93 604 95 545 q 85 692 90 663 l 285 692 l 285 458 l 468 458 q 629 427 565 458 q 724 347 692 397 q 756 237 756 297 q 688 59 756 124 q 478 -7 620 -7 q 387 -6 442 -7 q 273 -5 332 -6 q 163 -3 214 -4 q 85 0 113 -2 q 93 88 90 28 q 95 217 95 147 m 285 309 l 285 146 q 359 143 319 144 q 437 142 398 142 q 566 227 566 142 q 536 284 566 259 q 427 309 505 309 l 285 309 m 848 692 l 1048 692 q 1048 660 1048 692 q 1048 578 1048 627 q 1048 476 1048 529 q 1048 381 1048 424 q 1048 322 1048 339 q 1049 217 1048 279 q 1054 96 1051 155 q 1061 0 1057 37 l 858 0 q 858 37 858 0 q 858 131 858 74 q 858 249 858 187 q 858 359 858 310 q 856 548 858 458 q 848 692 854 638 z "},"ӹ":{"ha":1160,"x_min":85,"x_max":1061,"o":"m 95 217 l 95 475 q 93 604 95 545 q 85 692 90 663 l 285 692 l 285 458 l 468 458 q 629 427 565 458 q 724 347 692 397 q 756 237 756 297 q 688 59 756 124 q 478 -7 620 -7 q 387 -6 442 -7 q 273 -5 332 -6 q 163 -3 214 -4 q 85 0 113 -2 q 93 88 90 28 q 95 217 95 147 m 285 309 l 285 146 q 359 143 319 144 q 437 142 398 142 q 566 227 566 142 q 536 284 566 259 q 427 309 505 309 l 285 309 m 848 692 l 1048 692 q 1048 660 1048 692 q 1048 578 1048 627 q 1048 476 1048 529 q 1048 381 1048 424 q 1048 322 1048 339 q 1049 217 1048 279 q 1054 96 1051 155 q 1061 0 1057 37 l 858 0 q 858 37 858 0 q 858 131 858 74 q 858 249 858 187 q 858 359 858 310 q 856 548 858 458 q 848 692 854 638 m 621 939 q 654 1025 621 991 q 739 1058 688 1058 q 825 1025 791 1058 q 858 939 858 991 q 825 853 858 886 q 739 821 791 821 q 654 853 688 821 q 621 939 621 886 m 288 939 q 322 1025 288 991 q 407 1058 355 1058 q 492 1025 459 1058 q 526 939 526 991 q 492 853 526 886 q 407 821 459 821 q 322 853 355 821 q 288 939 288 886 z "},"в":{"ha":824,"x_min":85,"x_max":763,"o":"m 285 556 l 285 414 l 414 414 q 527 435 500 414 q 553 492 553 456 q 525 541 553 522 q 417 559 498 559 q 371 559 399 559 q 319 557 344 558 q 285 556 295 557 m 95 217 l 95 475 q 93 607 95 545 q 85 699 90 670 q 145 701 100 700 q 247 703 190 702 q 355 705 303 704 q 437 705 408 705 q 659 660 575 705 q 743 522 743 615 q 701 424 743 463 q 610 366 659 385 q 682 338 647 357 q 740 288 717 320 q 763 203 763 256 q 686 51 763 113 q 437 -10 610 -10 q 349 -9 401 -10 q 243 -7 297 -8 q 145 -4 189 -5 q 85 0 102 -2 q 93 88 90 28 q 95 217 95 147 m 285 285 l 285 139 q 341 137 298 138 q 424 136 385 136 q 542 157 511 136 q 573 215 573 178 q 544 266 573 246 q 427 285 515 285 l 285 285 z "},"В":{"ha":987,"x_min":102,"x_max":892,"o":"m 305 846 l 305 593 l 437 593 q 595 630 534 593 q 656 730 656 667 q 603 820 656 791 q 455 850 550 850 q 401 849 432 850 q 345 848 371 848 q 305 846 318 847 m 892 292 q 847 140 892 208 q 711 33 803 72 q 475 -7 618 -7 q 351 -6 416 -7 q 230 -3 286 -5 q 137 -1 173 -2 q 102 0 102 0 q 111 124 109 41 q 112 309 112 208 l 112 678 q 111 864 112 778 q 102 990 109 949 q 194 994 135 992 q 323 996 253 996 q 458 997 393 997 q 663 974 577 997 q 795 897 749 951 q 841 753 841 844 q 794 619 841 670 q 682 543 748 568 q 781 502 732 529 q 860 424 829 474 q 892 292 892 374 m 305 446 l 305 149 q 370 147 322 149 q 468 146 417 146 q 582 160 527 146 q 672 209 637 174 q 707 305 707 244 q 643 411 707 375 q 471 446 578 446 l 305 446 z "},"ᴮ":{"ha":650,"x_min":73,"x_max":593,"o":"m 215 1011 l 215 847 l 289 847 q 392 871 356 847 q 427 936 427 895 q 397 994 427 975 q 301 1013 368 1013 q 252 1013 276 1013 q 215 1011 228 1012 m 79 662 l 79 902 q 79 1023 79 967 q 73 1105 78 1078 q 166 1108 107 1107 q 294 1109 224 1109 q 429 1094 370 1109 q 523 1044 489 1079 q 557 951 557 1010 q 524 863 557 897 q 446 814 492 830 q 514 787 481 805 q 570 736 548 769 q 593 651 593 704 q 522 513 593 568 q 301 457 452 457 q 155 459 219 457 q 73 461 90 460 q 79 542 78 488 q 79 662 79 596 m 215 751 l 215 558 q 251 557 227 557 q 311 556 275 556 q 418 578 373 556 q 463 660 463 600 q 422 728 463 705 q 307 751 381 751 l 215 751 z "},"ʙ":{"ha":817,"x_min":92,"x_max":756,"o":"m 283 584 l 283 429 l 367 429 q 487 452 450 429 q 524 515 524 475 q 491 570 524 552 q 381 588 458 588 q 326 586 353 588 q 283 584 298 585 m 100 215 l 100 475 q 99 604 100 545 q 92 692 98 663 q 166 695 119 694 q 271 697 214 696 q 379 699 327 699 q 581 680 507 699 q 685 624 654 661 q 715 534 715 587 q 693 465 715 495 q 636 413 670 434 q 566 379 602 391 q 651 351 607 370 q 726 298 695 332 q 756 210 756 264 q 724 101 756 151 q 611 23 692 52 q 381 -7 530 -7 q 284 -6 334 -7 q 190 -4 233 -5 q 119 -3 146 -3 q 92 -2 92 -2 q 99 85 98 26 q 100 215 100 144 m 283 304 l 283 117 q 324 115 296 116 q 393 113 352 113 q 520 137 473 113 q 566 216 566 161 q 388 304 566 304 l 283 304 z "},"Ḃ":{"ha":939,"x_min":102,"x_max":844,"o":"m 305 846 l 305 593 l 410 593 q 557 630 507 593 q 608 730 608 667 q 566 820 608 791 q 428 850 523 850 q 358 849 393 850 q 305 846 324 848 m 112 309 l 112 678 q 111 864 112 778 q 102 990 109 949 q 235 995 152 994 q 417 997 319 997 q 611 974 526 997 q 745 897 696 951 q 793 753 793 844 q 747 619 793 670 q 634 543 701 568 q 733 502 685 529 q 813 424 781 474 q 844 292 844 374 q 800 140 844 208 q 664 33 756 72 q 428 -7 572 -7 q 282 -5 350 -7 q 166 -2 214 -4 q 102 0 119 -1 q 111 124 109 41 q 112 309 112 208 m 305 446 l 305 149 q 357 147 322 149 q 442 146 391 146 q 551 160 501 146 q 630 209 600 174 q 659 305 659 244 q 601 411 659 375 q 436 446 543 446 l 305 446 m 346 1231 q 379 1316 346 1283 q 465 1350 413 1350 q 550 1316 517 1350 q 583 1231 583 1283 q 550 1145 583 1178 q 465 1112 517 1112 q 379 1145 413 1112 q 346 1231 346 1178 z "},"Ḇ":{"ha":939,"x_min":102,"x_max":844,"o":"m 305 846 l 305 593 l 410 593 q 557 630 507 593 q 608 730 608 667 q 566 820 608 791 q 428 850 523 850 q 358 849 393 850 q 305 846 324 848 m 112 309 l 112 678 q 111 864 112 778 q 102 990 109 949 q 235 995 152 994 q 417 997 319 997 q 611 974 526 997 q 745 897 696 951 q 793 753 793 844 q 747 619 793 670 q 634 543 701 568 q 733 502 685 529 q 813 424 781 474 q 844 292 844 374 q 800 140 844 208 q 664 33 756 72 q 428 -7 572 -7 q 282 -5 350 -7 q 166 -2 214 -4 q 102 0 119 -1 q 111 124 109 41 q 112 309 112 208 m 305 446 l 305 149 q 357 147 322 149 q 442 146 391 146 q 551 160 501 146 q 630 209 600 174 q 659 305 659 244 q 601 411 659 375 q 436 446 543 446 l 305 446 m 173 -251 l 173 -115 l 736 -115 l 736 -251 l 173 -251 z "},"Ḅ":{"ha":939,"x_min":102,"x_max":844,"o":"m 305 846 l 305 593 l 410 593 q 557 630 507 593 q 608 730 608 667 q 566 820 608 791 q 428 850 523 850 q 358 849 393 850 q 305 846 324 848 m 112 309 l 112 678 q 111 864 112 778 q 102 990 109 949 q 235 995 152 994 q 417 997 319 997 q 611 974 526 997 q 745 897 696 951 q 793 753 793 844 q 747 619 793 670 q 634 543 701 568 q 733 502 685 529 q 813 424 781 474 q 844 292 844 374 q 800 140 844 208 q 664 33 756 72 q 428 -7 572 -7 q 282 -5 350 -7 q 166 -2 214 -4 q 102 0 119 -1 q 111 124 109 41 q 112 309 112 208 m 305 446 l 305 149 q 357 147 322 149 q 442 146 391 146 q 551 160 501 146 q 630 209 600 174 q 659 305 659 244 q 601 411 659 375 q 436 446 543 446 l 305 446 m 336 -210 q 371 -126 336 -161 q 454 -92 406 -92 q 538 -126 504 -92 q 573 -210 573 -161 q 538 -295 573 -260 q 454 -329 504 -329 q 371 -295 406 -329 q 336 -210 336 -260 z "},"Ƀ":{"ha":973,"x_min":14,"x_max":878,"o":"m 339 846 l 339 593 l 444 593 q 591 630 541 593 q 642 730 642 667 q 600 820 642 791 q 462 850 557 850 q 392 849 427 850 q 339 846 358 848 m 146 309 l 146 678 q 144 864 146 778 q 136 990 143 949 q 269 995 186 994 q 451 997 353 997 q 645 974 560 997 q 779 897 730 951 q 827 753 827 844 q 781 619 827 670 q 668 543 734 568 q 767 502 719 529 q 847 424 815 474 q 878 292 878 374 q 834 140 878 208 q 698 33 790 72 q 462 -7 606 -7 q 346 -6 404 -7 q 240 -3 288 -5 q 164 -1 193 -2 q 136 0 136 0 q 144 124 143 41 q 146 309 146 208 m 339 446 l 339 149 q 391 147 356 149 q 476 146 425 146 q 585 160 535 146 q 664 209 634 174 q 693 305 693 244 q 635 411 693 375 q 470 446 577 446 l 339 446 m 14 370 l 485 370 l 485 234 l 14 234 l 14 370 z "},"ᴯ":{"ha":711,"x_min":0,"x_max":699,"o":"m 256 1011 l 256 847 l 329 847 q 432 871 397 847 q 468 936 468 895 q 438 994 468 975 q 342 1013 408 1013 q 293 1013 317 1013 q 256 1011 269 1012 m 633 650 q 563 513 633 568 q 342 457 492 457 q 235 458 288 457 q 148 460 182 459 q 113 461 113 461 q 119 542 119 488 q 120 662 120 596 l 120 902 q 119 1022 120 966 q 113 1105 119 1078 q 207 1108 149 1107 q 334 1109 265 1109 q 470 1094 410 1109 q 564 1044 530 1079 q 597 950 597 1010 q 577 896 597 922 q 527 849 557 870 q 465 814 496 828 q 540 780 501 802 q 606 726 578 758 q 633 650 633 694 m 256 751 l 256 558 q 292 557 267 557 q 351 556 316 556 q 458 578 414 556 q 503 659 503 600 q 463 728 503 705 q 347 751 422 751 l 256 751 m 0 751 l 0 847 l 699 847 l 699 751 l 0 751 z "},"ᴃ":{"ha":841,"x_min":-7,"x_max":827,"o":"m 290 584 l 290 427 l 380 427 q 497 451 463 427 q 531 515 531 475 q 498 570 531 552 q 388 588 465 588 q 333 586 360 588 q 290 584 305 585 m 106 215 l 106 475 q 105 604 106 545 q 98 692 104 663 q 173 695 125 694 q 277 697 221 696 q 386 699 334 699 q 588 679 514 699 q 692 622 661 659 q 722 536 722 585 q 696 468 722 500 q 632 414 670 437 q 559 379 595 391 q 648 343 600 366 q 729 284 695 319 q 763 201 763 250 q 746 125 763 162 q 687 58 729 88 q 573 11 646 28 q 388 -7 500 -7 q 291 -6 341 -7 q 196 -4 240 -5 q 125 -3 153 -3 q 98 -2 98 -2 q 105 85 104 26 q 106 215 106 144 m 290 311 l 290 117 q 331 115 303 116 q 399 113 359 113 q 527 137 480 113 q 573 216 573 161 q 533 285 573 260 q 401 311 492 311 l 290 311 m -7 311 l -7 427 l 827 427 l 827 311 l -7 311 z "},"Ɓ":{"ha":1191,"x_min":0,"x_max":1096,"o":"m 557 446 l 557 149 q 608 147 574 149 q 694 146 643 146 q 802 160 753 146 q 881 209 852 174 q 911 305 911 244 q 853 411 911 375 q 688 446 795 446 l 557 446 m 202 575 l 42 543 q 14 616 27 572 q 0 695 0 660 q 107 923 0 850 q 393 997 215 997 l 669 997 q 863 974 778 997 q 997 897 948 951 q 1045 753 1045 844 q 999 619 1045 670 q 886 543 952 568 q 985 502 937 529 q 1064 424 1033 474 q 1096 292 1096 374 q 1052 140 1096 208 q 916 33 1008 72 q 680 -7 823 -7 q 563 -6 621 -7 q 458 -3 505 -5 q 382 -1 410 -2 q 353 0 353 0 q 362 124 361 41 q 363 309 363 208 l 363 876 l 557 876 l 557 593 l 662 593 q 809 631 758 593 q 860 737 860 668 q 805 825 860 800 q 649 850 750 850 l 372 850 q 226 814 284 850 q 168 705 168 778 q 178 632 168 662 q 202 575 187 603 z "},"Ꞗ":{"ha":1156,"x_min":-17,"x_max":1061,"o":"m 522 846 l 522 593 l 627 593 q 774 630 724 593 q 825 730 825 667 q 783 820 825 791 q 645 850 740 850 q 575 849 610 850 q 522 846 541 848 m 329 309 l 329 678 q 328 864 329 778 q 319 990 326 949 q 452 995 369 994 q 634 997 536 997 q 828 974 743 997 q 962 897 913 951 q 1010 753 1010 844 q 964 619 1010 670 q 851 543 918 568 q 950 502 902 529 q 1030 424 998 474 q 1061 292 1061 374 q 1017 140 1061 208 q 881 33 973 72 q 645 -7 789 -7 q 529 -6 587 -7 q 423 -3 471 -5 q 347 -1 376 -2 q 319 0 319 0 q 328 124 326 41 q 329 309 329 208 m 522 446 l 522 149 q 574 147 539 149 q 659 146 608 146 q 768 160 718 146 q 847 209 817 174 q 876 305 876 244 q 818 411 876 375 q 653 446 760 446 l 522 446 m 197 215 l 45 140 q 2 219 20 174 q -17 305 -17 265 q 69 516 -17 439 q 308 593 155 593 l 394 593 l 374 447 l 301 447 q 187 408 223 447 q 151 322 151 370 q 164 266 151 294 q 197 215 177 238 z "},"Ƅ":{"ha":1034,"x_min":14,"x_max":983,"o":"m 451 149 q 508 147 470 149 q 604 146 547 146 q 748 183 690 146 q 805 305 805 220 q 745 410 805 374 q 597 446 685 446 l 451 446 l 451 149 m 451 990 l 451 593 l 590 593 q 983 298 983 593 q 884 76 983 159 q 600 -7 785 -7 q 485 -6 550 -7 q 357 -3 420 -5 q 248 0 294 -1 q 256 124 255 41 q 258 309 258 208 l 258 734 l 275 722 l 173 576 l 14 576 q 83 682 46 625 q 156 797 121 739 q 220 905 192 855 q 262 990 248 956 l 451 990 z "},"Ƃ":{"ha":926,"x_min":102,"x_max":831,"o":"m 102 990 l 753 990 l 753 821 q 677 832 716 829 q 596 834 637 834 l 305 834 l 305 593 l 410 593 q 628 569 533 593 q 777 482 722 545 q 831 305 831 420 q 786 150 831 221 q 650 36 742 79 q 414 -7 557 -7 q 264 -5 336 -7 q 147 -2 193 -3 q 102 0 102 0 q 111 124 109 41 q 112 309 112 208 l 112 678 q 111 864 112 778 q 102 990 109 949 m 305 446 l 305 149 q 344 147 322 149 q 417 146 366 146 q 583 179 521 146 q 646 305 646 213 q 589 411 646 375 q 410 446 532 446 l 305 446 z "},"Ꞵ":{"ha":939,"x_min":98,"x_max":844,"o":"m 305 846 l 305 593 l 410 593 q 557 630 507 593 q 608 730 608 667 q 566 820 608 791 q 428 850 523 850 q 358 849 393 850 q 305 846 324 848 m 288 -5 l 288 150 q 348 148 304 149 q 442 146 391 146 q 551 160 501 146 q 630 209 600 174 q 659 305 659 244 q 601 411 659 375 q 436 446 543 446 l 305 446 l 305 -52 q 308 -220 305 -147 q 319 -332 310 -294 l 98 -332 q 110 -220 107 -294 q 112 -52 112 -147 q 112 38 112 -12 q 112 165 112 87 q 112 367 112 243 q 112 678 112 490 q 111 864 112 778 q 102 990 109 949 q 235 995 152 994 q 417 997 319 997 q 611 974 526 997 q 745 897 696 951 q 793 753 793 844 q 747 619 793 670 q 634 543 701 568 q 733 502 685 529 q 813 424 781 474 q 844 292 844 374 q 800 140 844 208 q 664 33 756 72 q 428 -7 572 -7 q 357 -6 394 -7 q 288 -5 320 -5 z "},"Б":{"ha":960,"x_min":102,"x_max":865,"o":"m 102 990 l 793 990 l 793 824 q 675 833 753 831 q 498 834 598 834 l 305 834 l 305 593 l 471 593 q 693 555 606 593 q 822 450 780 516 q 865 298 865 383 q 821 147 865 216 q 691 35 778 77 q 475 -7 605 -7 q 359 -6 423 -7 q 237 -3 296 -5 q 140 -1 178 -2 q 102 0 102 0 q 111 124 109 41 q 112 309 112 208 l 112 695 q 111 872 112 795 q 102 990 109 949 m 305 446 l 305 149 q 370 147 322 149 q 468 146 417 146 q 575 160 527 146 q 651 209 623 174 q 680 305 680 244 q 629 411 680 375 q 471 446 578 446 l 305 446 z "},"Ь":{"ha":932,"x_min":102,"x_max":838,"o":"m 305 446 l 305 149 q 362 147 324 149 q 458 146 401 146 q 602 183 545 146 q 659 305 659 220 q 599 410 659 374 q 451 446 539 446 l 305 446 m 102 990 l 305 990 l 305 593 l 444 593 q 838 298 838 593 q 738 76 838 159 q 454 -7 639 -7 q 342 -6 403 -7 q 227 -3 281 -5 q 137 -1 172 -2 q 102 0 102 0 q 111 124 109 41 q 112 309 112 208 l 112 695 q 111 872 112 795 q 102 990 109 949 z "},"Ҍ":{"ha":956,"x_min":10,"x_max":861,"o":"m 329 446 l 329 149 q 386 147 348 149 q 481 146 425 146 q 626 183 568 146 q 683 305 683 220 q 623 410 683 374 q 475 446 563 446 l 329 446 m 329 1105 l 329 593 l 468 593 q 861 298 861 593 q 762 76 861 159 q 478 -7 663 -7 q 366 -6 427 -7 q 250 -3 305 -5 q 160 -1 195 -2 q 125 0 125 0 q 134 124 133 41 q 136 309 136 208 l 136 1105 l 329 1105 m 10 854 l 10 994 l 522 994 l 522 854 l 10 854 z "},"Ъ":{"ha":1126,"x_min":17,"x_max":1048,"o":"m 515 446 l 515 149 q 573 147 534 149 q 668 146 611 146 q 812 183 755 146 q 869 305 869 220 q 809 410 869 374 q 661 446 749 446 l 515 446 m 17 821 l 17 990 l 515 990 l 515 593 l 654 593 q 1048 298 1048 593 q 948 76 1048 159 q 665 -7 849 -7 q 550 -6 614 -7 q 421 -3 485 -5 q 312 0 358 -1 q 321 124 319 41 q 322 309 322 208 l 322 834 l 178 834 q 91 832 133 834 q 17 821 48 831 z "},"Ѣ":{"ha":1031,"x_min":24,"x_max":953,"o":"m 420 446 l 420 149 q 478 147 439 149 q 573 146 516 146 q 717 183 660 146 q 774 305 774 220 q 714 410 774 374 q 566 446 654 446 l 420 446 m 217 1058 l 420 1058 l 420 593 l 559 593 q 953 298 953 593 q 853 76 953 159 q 570 -7 754 -7 q 457 -6 518 -7 q 342 -3 397 -5 q 252 -1 287 -2 q 217 0 217 0 q 226 124 224 41 q 227 309 227 208 l 227 763 q 226 940 227 863 q 217 1058 224 1017 m 543 732 l 185 732 q 97 731 140 732 q 24 719 55 729 l 24 888 l 709 888 l 709 719 q 628 730 668 728 q 543 732 589 732 z "},"Ы":{"ha":1265,"x_min":102,"x_max":1146,"o":"m 305 446 l 305 149 q 362 147 324 149 q 458 146 401 146 q 602 183 545 146 q 659 305 659 220 q 599 410 659 374 q 451 446 539 446 l 305 446 m 102 990 l 305 990 l 305 593 l 444 593 q 838 298 838 593 q 738 76 838 159 q 454 -7 639 -7 q 342 -6 403 -7 q 227 -3 281 -5 q 137 -1 172 -2 q 102 0 102 0 q 111 124 109 41 q 112 309 112 208 l 112 695 q 111 872 112 795 q 102 990 109 949 m 932 990 l 1136 990 l 1136 295 q 1137 118 1136 195 q 1146 0 1139 41 l 943 0 l 943 695 q 941 872 943 795 q 932 990 940 949 z "},"Ӹ":{"ha":1265,"x_min":102,"x_max":1146,"o":"m 305 446 l 305 149 q 362 147 324 149 q 458 146 401 146 q 602 183 545 146 q 659 305 659 220 q 599 410 659 374 q 451 446 539 446 l 305 446 m 102 990 l 305 990 l 305 593 l 444 593 q 838 298 838 593 q 738 76 838 159 q 454 -7 639 -7 q 342 -6 403 -7 q 227 -3 281 -5 q 137 -1 172 -2 q 102 0 102 0 q 111 124 109 41 q 112 309 112 208 l 112 695 q 111 872 112 795 q 102 990 109 949 m 932 990 l 1136 990 l 1136 295 q 1137 118 1136 195 q 1146 0 1139 41 l 943 0 l 943 695 q 941 872 943 795 q 932 990 940 949 m 656 1231 q 689 1316 656 1283 q 774 1350 723 1350 q 860 1316 827 1350 q 893 1231 893 1283 q 860 1145 893 1178 q 774 1112 827 1112 q 689 1145 723 1112 q 656 1231 656 1178 m 323 1231 q 357 1316 323 1283 q 442 1350 391 1350 q 528 1316 494 1350 q 561 1231 561 1283 q 528 1145 561 1178 q 442 1112 494 1112 q 357 1145 391 1112 q 323 1231 323 1178 z "},"₿":{"ha":841,"x_min":81,"x_max":729,"o":"m 259 790 l 259 576 l 350 576 q 479 607 434 576 q 524 692 524 638 q 486 768 524 743 q 366 793 449 793 q 306 792 336 793 q 259 790 275 791 m 90 335 l 90 648 q 89 805 90 732 q 81 911 87 878 q 198 916 125 914 q 356 918 271 918 q 526 898 452 918 q 643 833 600 878 q 685 711 685 788 q 644 598 685 641 q 546 533 604 555 q 632 499 590 522 q 702 433 674 476 q 729 321 729 391 q 690 192 729 250 q 572 102 652 135 q 366 68 492 68 q 196 71 264 68 q 81 75 129 73 q 89 179 87 109 q 90 335 90 250 m 259 452 l 259 201 q 304 199 273 200 q 378 198 334 198 q 473 210 430 198 q 542 251 516 222 q 568 332 568 281 q 517 421 568 391 q 372 452 466 452 l 259 452 m 395 1085 l 511 1085 l 511 896 l 395 896 l 395 1085 m 195 1085 l 311 1085 l 311 896 l 195 896 l 195 1085 m 395 95 l 511 95 l 511 -149 l 395 -149 l 395 95 m 195 96 l 311 96 l 311 -149 l 195 -149 l 195 96 z "},"β":{"ha":841,"x_min":92,"x_max":780,"o":"m 298 -332 l 92 -332 l 92 705 q 135 926 92 839 q 256 1056 178 1013 q 434 1099 333 1099 q 575 1064 511 1099 q 677 970 640 1029 q 715 838 715 911 q 694 720 715 770 q 643 636 673 669 q 587 589 612 604 q 728 487 677 551 q 780 298 780 422 q 735 136 780 208 q 616 24 690 65 q 454 -17 542 -17 q 340 -2 391 -17 q 253 33 289 14 q 199 66 218 53 l 244 219 q 323 159 277 183 q 441 136 370 136 q 513 158 479 136 q 569 218 547 180 q 590 304 590 256 q 532 445 590 389 q 371 502 473 502 l 371 629 q 455 655 419 629 q 512 725 492 682 q 532 817 532 768 q 498 901 532 863 q 410 939 463 939 q 317 892 352 939 q 281 742 281 844 q 281 653 281 714 q 281 515 281 593 q 281 357 281 437 q 281 210 281 277 q 281 100 281 142 q 281 58 281 58 q 282 -109 281 -43 q 286 -216 283 -174 q 291 -284 288 -258 q 298 -332 294 -311 z "},"ᵦ":{"ha":586,"x_min":68,"x_max":549,"o":"m 212 -419 l 68 -419 l 68 255 q 135 448 68 385 q 307 511 201 511 q 406 488 361 511 q 478 427 451 466 q 505 341 505 389 q 473 234 505 275 q 414 179 441 193 q 513 113 477 155 q 549 -10 549 71 q 518 -115 549 -68 q 434 -188 486 -161 q 321 -214 382 -214 q 208 -194 254 -214 q 143 -161 162 -173 l 174 -61 q 230 -100 197 -85 q 312 -115 262 -115 q 384 -84 352 -115 q 416 -6 416 -53 q 375 86 416 49 q 263 123 334 123 l 263 205 q 345 242 313 205 q 376 328 376 279 q 352 382 376 358 q 291 407 328 407 q 225 376 250 407 q 201 279 201 345 q 201 205 201 257 q 201 91 201 154 q 201 -31 201 28 q 201 -128 201 -90 q 201 -166 201 -166 q 202 -301 201 -253 q 205 -375 203 -350 q 212 -419 208 -401 z "},"ᵝ":{"ha":586,"x_min":68,"x_max":549,"o":"m 212 245 l 68 245 l 68 920 q 135 1113 68 1050 q 307 1175 201 1175 q 406 1153 361 1175 q 478 1092 451 1131 q 505 1006 505 1053 q 473 899 505 940 q 414 844 441 858 q 513 778 477 819 q 549 654 549 736 q 518 550 549 596 q 434 477 486 503 q 321 450 382 450 q 208 471 254 450 q 143 504 162 492 l 174 604 q 230 565 197 580 q 312 549 262 549 q 384 581 352 549 q 416 659 416 612 q 375 750 416 713 q 263 787 334 787 l 263 870 q 345 907 313 870 q 376 992 376 944 q 352 1047 376 1023 q 291 1072 328 1072 q 225 1041 250 1072 q 201 943 201 1010 q 201 870 201 922 q 201 755 201 819 q 201 634 201 692 q 201 537 201 575 q 201 498 201 498 q 202 363 201 412 q 205 289 203 315 q 212 245 208 264 z "},"ꞵ":{"ha":841,"x_min":92,"x_max":780,"o":"m 298 -332 l 92 -332 l 92 705 q 135 926 92 839 q 256 1056 178 1013 q 434 1099 333 1099 q 575 1064 511 1099 q 677 970 640 1029 q 715 838 715 911 q 694 720 715 770 q 643 636 673 669 q 587 589 612 604 q 728 487 677 551 q 780 298 780 422 q 735 136 780 208 q 616 24 690 65 q 454 -17 542 -17 q 340 -2 391 -17 q 253 33 289 14 q 199 66 218 53 l 244 219 q 323 159 277 183 q 441 136 370 136 q 513 158 479 136 q 569 218 547 180 q 590 304 590 256 q 532 445 590 389 q 371 502 473 502 l 371 629 q 455 655 419 629 q 512 725 492 682 q 532 817 532 768 q 498 901 532 863 q 410 939 463 939 q 317 892 352 939 q 281 742 281 844 l 281 58 q 282 -109 281 -43 q 286 -216 283 -174 q 291 -284 288 -258 q 298 -332 294 -311 z "},"ẞ":{"ha":1058,"x_min":92,"x_max":980,"o":"m 888 916 l 702 607 q 915 485 850 559 q 980 288 980 410 q 939 135 980 204 q 825 24 898 66 q 658 -17 753 -17 q 508 6 565 -17 q 393 75 450 29 l 437 254 q 506 193 475 216 q 568 159 536 170 q 641 149 600 149 q 746 190 705 149 q 787 288 787 230 q 756 390 787 349 q 654 460 725 431 q 465 509 584 488 l 637 817 q 588 835 619 829 q 522 841 556 841 q 405 813 456 841 q 324 715 353 785 q 295 519 295 646 l 295 0 l 92 0 q 99 103 97 44 q 101 220 101 161 q 102 322 102 278 l 102 545 q 160 803 102 701 q 320 957 219 906 q 546 1007 420 1007 q 730 986 646 1007 q 888 916 814 966 z "},"с":{"ha":693,"x_min":61,"x_max":632,"o":"m 625 657 l 595 486 q 510 534 550 518 q 418 549 471 549 q 299 494 348 549 q 251 339 251 438 q 297 194 251 250 q 418 139 342 139 q 524 158 479 139 q 612 213 568 178 l 632 47 q 524 0 581 16 q 392 -17 468 -17 q 226 24 301 -17 q 106 143 151 64 q 61 332 61 221 q 105 523 61 438 q 228 656 149 607 q 415 705 308 705 q 535 691 482 705 q 625 657 588 677 z "},"ⅽ":{"ha":693,"x_min":61,"x_max":632,"o":"m 625 657 l 595 493 q 518 541 560 525 q 418 556 476 556 q 297 497 342 556 q 251 339 251 438 q 294 193 251 250 q 418 136 337 136 q 524 155 479 136 q 612 210 568 175 l 632 47 q 527 0 586 16 q 392 -17 468 -17 q 226 24 301 -17 q 106 143 151 64 q 61 332 61 221 q 105 523 61 438 q 228 656 149 607 q 415 705 308 705 q 535 691 482 705 q 625 657 588 677 z "},"ᶜ":{"ha":483,"x_min":45,"x_max":444,"o":"m 439 888 l 419 782 q 365 812 394 802 q 295 823 335 823 q 210 784 242 823 q 178 682 178 746 q 208 586 178 623 q 295 549 238 549 q 369 562 338 549 q 430 598 399 575 l 444 492 q 371 461 412 471 q 277 450 330 450 q 160 477 212 450 q 76 554 107 503 q 45 677 45 605 q 75 801 45 746 q 161 888 106 856 q 292 920 217 920 q 377 910 340 920 q 439 888 414 901 z "},"ͨ":{"ha":0,"x_min":-615,"x_max":-215,"o":"m -220 1268 l -241 1158 q -300 1188 -273 1178 q -365 1198 -328 1198 q -448 1162 -414 1198 q -482 1062 -482 1126 q -450 968 -482 1004 q -365 932 -418 932 q -291 944 -322 932 q -229 980 -260 957 l -215 872 q -291 841 -251 852 q -383 830 -330 830 q -499 857 -447 830 q -584 934 -552 883 q -615 1057 -615 985 q -584 1181 -615 1126 q -498 1268 -553 1236 q -367 1300 -442 1300 q -283 1291 -320 1300 q -220 1268 -245 1281 z "},"ć":{"ha":693,"x_min":61,"x_max":675,"o":"m 625 657 l 595 493 q 518 541 560 525 q 418 556 476 556 q 297 497 342 556 q 251 339 251 438 q 294 193 251 250 q 418 136 337 136 q 524 155 479 136 q 612 210 568 175 l 632 47 q 527 0 586 16 q 392 -17 468 -17 q 226 24 301 -17 q 106 143 151 64 q 61 332 61 221 q 105 523 61 438 q 228 656 149 607 q 415 705 308 705 q 535 691 482 705 q 625 657 588 677 m 437 1086 l 675 1086 l 404 814 l 241 814 l 437 1086 z "},"ĉ":{"ha":693,"x_min":61,"x_max":688,"o":"m 625 657 l 595 493 q 518 541 560 525 q 418 556 476 556 q 297 497 342 556 q 251 339 251 438 q 294 193 251 250 q 418 136 337 136 q 524 155 479 136 q 612 210 568 175 l 632 47 q 527 0 586 16 q 392 -17 468 -17 q 226 24 301 -17 q 106 143 151 64 q 61 332 61 221 q 105 523 61 438 q 228 656 149 607 q 415 705 308 705 q 535 691 482 705 q 625 657 588 677 m 688 814 l 526 814 l 390 970 l 254 814 l 92 814 l 288 1086 l 492 1086 l 688 814 z "}}}
